<svg xmlns="http://www.w3.org/2000/svg" viewBox="0 0 22.46 21.1"><title>AddShipping</title><g id="Layer_2" data-name="Layer 2"><g id="Layer_1-2" data-name="Layer 1"><path d="M0,4V21.1H18.74v-.44l.18.18,3.41-3.59h.13V0H4.26A.41.41,0,0,0,3.8.11L.13,3.6A.41.41,0,0,0,0,4H0ZM7.87,20.14V17.39h3v2.75Zm10,.14H11.72V16.56H7v3.72H.85V4.86H7V8.44h4.68V4.86h6.19ZM8.23,3.9l1.2-1.38H12L11,3.9Zm2.67,1V7.61h-3V4.86Zm10.7,12-2.85,3V4.52l2.89-2.75v15ZM4.2.87H21.38L18.05,4H11.9L13.65,1.7H9.06L7.44,3.54,7,4H.87Z"/></g></g></svg>
