<svg xmlns="http://www.w3.org/2000/svg" viewBox="0 0 23.1 16.32"><title>Waiver</title><g id="Layer_2" data-name="Layer 2"><g id="Layer_1-2" data-name="Layer 1"><path d="M23,11.36a1.6,1.6,0,0,0-.85-1.11,2.71,2.71,0,0,0-1.27-.31,7.6,7.6,0,0,0-2.95.57,3.28,3.28,0,0,1-2.09.22,2.62,2.62,0,0,1-.67-.29l.09,0a12.35,12.35,0,0,0,2.61-1.2,9.42,9.42,0,0,0,3-2.83,6.23,6.23,0,0,0,1-2,3.35,3.35,0,0,0,.07-1.51A3.45,3.45,0,0,0,20.13.44a3,3,0,0,0-3.07,0,6.71,6.71,0,0,0-1.39,1A10.05,10.05,0,0,0,13.09,5.3a8.16,8.16,0,0,0-.55,3.59c0,.13,0,.25,0,.39a31.19,31.19,0,0,1-4.53.16v1.75h1a23.42,23.42,0,0,0,4-.25.17.17,0,0,1,.18.08,3,3,0,0,0,1.06,1,4.81,4.81,0,0,0,3.79.3c.61-.2,1.23-.4,1.85-.57a2.25,2.25,0,0,1,1-.07c.4.08.44.15.45.49,0,.12,0,.25,0,.37v.31h1.66A5.79,5.79,0,0,0,23,11.36ZM14.28,8.91a1.5,1.5,0,0,1,0-.2,6.34,6.34,0,0,1,.3-2.16A8.43,8.43,0,0,1,17.7,2.06a1.53,1.53,0,0,1,1.63-.16,1.57,1.57,0,0,1,.92,1.3,2.14,2.14,0,0,1-.17,1,5.94,5.94,0,0,1-2,2.8,11.14,11.14,0,0,1-3.69,1.89Z"/><path d="M23.07,14.62H0v1.7h23Z"/><path d="M6.26,11.23l-2-2,2-2L5.05,6.12l-2,2L1.21,6.19,0,7.4,1.92,9.27,0,11.2,1.2,12.35l1.93-1.9,1.94,2Z"/><path d="M23.07,14.62v1.7H0v-1.7Z"/><path d="M6.26,11.23,5.07,12.42l-1.94-2L1.2,12.35,0,11.2l1.9-1.93L0,7.4,1.21,6.19,3.08,8.1l2-2L6.23,7.3l-1.95,2Z"/></g></g></svg>
