<svg xmlns="http://www.w3.org/2000/svg" viewBox="0 0 21.35 19.5"><title>AutoReminderDark</title><g id="Layer_2" data-name="Layer 2"><g id="Notes"><path d="M10.69.93A9.29,9.29,0,1,0,20,10.21,9.29,9.29,0,0,0,10.69.93Zm0,17a7.72,7.72,0,1,1,7.72-7.72A7.73,7.73,0,0,1,10.69,17.93Z"/><polygon points="8.72 3.37 9.74 9.41 6.39 9.43 6.39 11 11.62 10.97 10.26 3.11 8.72 3.37"/><path d="M5.51.62A3.52,3.52,0,0,0,0,3.54,3.59,3.59,0,0,0,.81,5.8,9.18,9.18,0,0,1,5.51.62Z"/><path d="M17.84,0a3.53,3.53,0,0,0-2,.62A9.29,9.29,0,0,1,20.55,5.8a3.54,3.54,0,0,0,.81-2.26A3.5,3.5,0,0,0,17.84,0Z"/></g></g></svg>
