<svg xmlns="http://www.w3.org/2000/svg" viewBox="0 0 27.27 27.27"><defs><style>.cls-1{fill:none;stroke:#5e5e5e;stroke-miterlimit:10;stroke-width:0.5px;}.cls-2{fill:#231f20;}</style></defs><title>BackCircleArrow.Inactive</title><g id="Layer_2" data-name="Layer 2"><g id="Layer_1-2" data-name="Layer 1"><circle class="cls-1" cx="13.63" cy="13.63" r="13.38"/><path class="cls-2" d="M10.92,13.63a.29.29,0,0,1,.09-.21l4.35-4.35A.31.31,0,0,1,15.58,9a.29.29,0,0,1,.21.09l.47.47a.29.29,0,0,1,.09.21.33.33,0,0,1-.09.22l-3.67,3.66,3.67,3.67a.33.33,0,0,1,.09.22.29.29,0,0,1-.09.21l-.47.47a.29.29,0,0,1-.21.09.31.31,0,0,1-.22-.09L11,13.85A.29.29,0,0,1,10.92,13.63Z"/></g></g></svg>