<svg xmlns="http://www.w3.org/2000/svg" width="26.254" height="26.254" viewBox="0 0 26.254 26.254" fill="currentColor">
    <path d="M145.251,713.127h-2.625A2.625,2.625,0,0,0,140,715.752v7.876a2.625,2.625,0,0,0,2.625,2.625h2.625a2.625,2.625,0,0,0,2.625-2.625v-7.876A2.625,2.625,0,0,0,145.251,713.127Zm0,9.189a1.313,1.313,0,0,1-2.625,0v-5.251a1.313,1.313,0,0,1,2.625,0Zm9.189-17.065h-2.625a2.625,2.625,0,0,0-2.625,2.625v15.752a2.625,2.625,0,0,0,2.625,2.625h2.625a2.625,2.625,0,0,0,2.625-2.625V707.876A2.625,2.625,0,0,0,154.44,705.251Zm0,17.065a1.313,1.313,0,0,1-2.625,0V709.189a1.313,1.313,0,0,1,2.625,0ZM163.629,700H161a2.625,2.625,0,0,0-2.625,2.625v21A2.625,2.625,0,0,0,161,726.254h2.625a2.625,2.625,0,0,0,2.625-2.625v-21A2.625,2.625,0,0,0,163.629,700Zm0,22.316a1.313,1.313,0,0,1-2.625,0V703.938a1.313,1.313,0,0,1,2.625,0Z"
          transform="translate(-140 -700)"/>
</svg>
