<svg xmlns="http://www.w3.org/2000/svg" viewBox="0 0 22.15 29.25"><defs><style>.cls-1{stroke-miterlimit:10;stroke-width:0.5px;}</style></defs><title>BillingInfo</title><g id="Layer_2" data-name="Layer 2"><g id="Notes"><path class="cls-1" d="M11.72,16a2.23,2.23,0,0,0,1.56-1.19c.64-1.35,0-2.29-1.36-3l-.69-.33-.64-.3c-.83-.43-1.06-.77-.79-1.33s1.79-.64,2.31-.27l.52.37.74-1-.52-.37a2.92,2.92,0,0,0-1.11-.45V7H10.44V8.1A2.3,2.3,0,0,0,8.64,9.34c-.64,1.34,0,2.29,1.35,3l.7.33.64.3c.83.44,1.06.78.8,1.33s-1.79.64-2.31.27l-.52-.37-.74,1,.52.37a3.07,3.07,0,0,0,1.36.49v1.07h1.27Z"/><rect class="cls-1" x="4.07" y="19.72" width="14.01" height="1.27"/><polygon class="cls-1" points="6.88 25.45 3.43 28.9 2.53 28 5.98 24.55 6.88 25.45"/><polygon class="cls-1" points="4.33 28 3.43 28.9 0.25 25.72 0.25 25.19 0.89 24.55 4.33 28"/><polygon class="cls-1" points="11.98 25.45 8.53 28.9 7.63 28 11.08 24.55 11.98 25.45"/><polygon class="cls-1" points="5.98 24.55 9.43 28 8.53 28.9 5.08 25.45 5.98 24.55"/><polygon class="cls-1" points="17.07 25.45 13.62 28.9 12.72 28 16.17 24.55 17.07 25.45"/><polygon class="cls-1" points="11.08 24.55 14.52 28 13.62 28.9 10.18 25.45 11.08 24.55"/><polygon class="cls-1" points="17.82 28 18.72 28.9 21.9 25.72 21.9 25.19 21.27 24.55 17.82 28"/><polygon class="cls-1" points="16.17 24.55 19.62 28 18.72 28.9 15.27 25.45 16.17 24.55"/><polygon class="cls-1" points="6.88 1.25 3.43 4.7 2.53 3.8 5.98 0.35 6.88 1.25"/><polygon class="cls-1" points="4.33 3.8 3.43 4.7 0.25 1.52 0.25 0.99 0.89 0.35 4.33 3.8"/><polygon class="cls-1" points="11.98 1.25 8.53 4.7 7.63 3.8 11.08 0.35 11.98 1.25"/><polygon class="cls-1" points="5.98 0.35 9.43 3.8 8.53 4.7 5.08 1.25 5.98 0.35"/><polygon class="cls-1" points="17.07 1.25 13.62 4.7 12.72 3.8 16.17 0.35 17.07 1.25"/><polygon class="cls-1" points="11.08 0.35 14.52 3.8 13.62 4.7 10.18 1.25 11.08 0.35"/><polygon class="cls-1" points="17.82 3.8 18.72 4.7 21.9 1.52 21.9 0.99 21.27 0.35 17.82 3.8"/><rect class="cls-1" x="0.25" y="1.25" width="1.27" height="24.2"/><rect class="cls-1" x="20.63" y="1.25" width="1.27" height="24.2"/><polygon class="cls-1" points="16.17 0.35 19.62 3.8 18.72 4.7 15.27 1.25 16.17 0.35"/></g></g></svg>
