<svg xmlns="http://www.w3.org/2000/svg" width="32.224" height="24.252" viewBox="0 0 32.224 24.252"><defs><style>.a{fill:#414142;}</style></defs><g transform="translate(-4320.308 -340.29)"><path class="a" d="M4323.85,364.542c-2.2,0-3.466-1.184-3.476-3.251l-.066-13.848c-.007-1.39.578-3.049,3.4-3.062l8.29-.04,1.763-2.375a3.223,3.223,0,0,1,2.592-1.645l6.664-.031h.011a3.263,3.263,0,0,1,2.621,1.654l1.182,2.326,2.13-.01c2.929-.019,3.5,1.641,3.5,3.029l.066,13.848a3.237,3.237,0,0,1-.783,2.3,3.53,3.53,0,0,1-2.692.989l-25.177.12Zm19.179-22.752h0l-6.665.031c-.617,0-1.123.632-1.37,1.006l-2.235,3.011-9.039.043c-1.768.008-1.912.772-1.908,1.554l.066,13.848c.006,1.239.578,1.773,2,1.759l25.178-.12a2.138,2.138,0,0,0,1.6-.507,1.814,1.814,0,0,0,.384-1.27l-.066-13.848c0-.81-.158-1.537-1.965-1.537h-.033l-3.055.014-1.555-3.072A1.906,1.906,0,0,0,4343.029,341.79Z"/><path class="a" d="M4339.729,360.136a6.565,6.565,0,0,1-1.205-.111,6.424,6.424,0,1,1,7.521-7.591h0a6.422,6.422,0,0,1-6.316,7.7Zm.016-11.339a4.929,4.929,0,0,0-4.82,5.913,4.925,4.925,0,1,0,5.768-5.826A5.278,5.278,0,0,0,4339.745,348.8Z"/></g></svg>