<svg xmlns="http://www.w3.org/2000/svg" xmlns:xlink="http://www.w3.org/1999/xlink" viewBox="0 0 50.96 36.15"><defs><style>.cls-1,.cls-3{fill:none;stroke-miterlimit:10;stroke-width:2px;}.cls-1{stroke:#b3b3b3;}.cls-2{fill:#b3b3b3;}.cls-3{stroke:#fff;}</style><symbol id="Add_Photo" data-name="Add Photo" viewBox="0 0 39.8 28.23"><path class="cls-1" d="M2.66,9.52l0-1.34A1.36,1.36,0,0,1,4,6.84H5.25A1.45,1.45,0,0,1,6.67,8.16V9.5"/><path class="cls-2" d="M25.38,9.41,24,6.74a2.58,2.58,0,0,0-2-1.32l-6.68,0a2.6,2.6,0,0,0-2,1.34l-2,2.69-8.69,0c-2,0-2.67.92-2.66,2.31L.07,25.72c0,1.39.68,2.52,2.76,2.51l25.24-.12c2.08,0,2.75-1.14,2.74-2.54l-.07-13.88c0-1.4-.68-2.3-2.76-2.29Z"/><circle class="cls-3" cx="18.74" cy="18.13" r="5.69"/><circle class="cls-1" cx="4.69" cy="14.19" r="2"/><path class="cls-2" d="M30.77,4h3.94V0h1.15V4H39.8V5.09H35.86V9H34.71V5.09H30.77Z"/></symbol></defs><title>CameraPlus</title><g id="Layer_2" data-name="Layer 2"><g id="Layer_1-2" data-name="Layer 1"><use width="39.8" height="28.23" transform="scale(1.28)" xlink:href="#Add_Photo"/></g></g></svg>