<svg xmlns="http://www.w3.org/2000/svg" viewBox="0 0 49.4 39.51"><defs><style>.cls-1{fill:#257a91;}</style></defs><title>Cards</title><g id="Layer_2" data-name="Layer 2"><g id="canvas"><path class="cls-1" d="M39.74,0a3.14,3.14,0,0,0-.64.11L23.71,4.24H5.4A3.28,3.28,0,0,0,2.12,7.5v2.56a3.2,3.2,0,0,0-2,3.84l2,7.45,0,.07V32A3.3,3.3,0,0,0,5.4,35.29h.42l.51,1.83A3.24,3.24,0,0,0,9.66,39.5a3.1,3.1,0,0,0,.64-.11l15.31-4.1H44A3.3,3.3,0,0,0,47.28,32V29.47a3.22,3.22,0,0,0,2-3.86l-2-7.45,0-.07V7.5A3.28,3.28,0,0,0,44,4.24h-.42l-.51-1.83A3.25,3.25,0,0,0,39.74,0Zm.09,1.41A1.82,1.82,0,0,1,41.7,2.76l.4,1.48H29.18l10.3-2.76A1.8,1.8,0,0,1,39.83,1.42ZM5.4,5.65H44A1.84,1.84,0,0,1,45.87,7.5v3.09H3.53V7.5A1.84,1.84,0,0,1,5.4,5.65Zm-3.29,6v4.3l-.64-2.4A1.74,1.74,0,0,1,2.12,11.63ZM3.53,12H45.87v4.94H3.53Zm0,6.35H45.87V32A1.86,1.86,0,0,1,44,33.88H5.4A1.86,1.86,0,0,1,3.53,32Zm4.81,4.94a.71.71,0,1,0,.13,1.41H25.41a.71.71,0,1,0,0-1.41H8.34Zm38.95.29.64,2.4a1.77,1.77,0,0,1-.64,1.92ZM8.34,27.53a.71.71,0,0,0,.13,1.41h8.47a.71.71,0,0,0,0-1.41H8.34Zm-1,7.76H20.13L9.92,38a1.79,1.79,0,0,1-.35.07A1.82,1.82,0,0,1,7.7,36.75Z"/></g></g></svg>