<svg xmlns="http://www.w3.org/2000/svg" viewBox="0 0 30 28.35"><defs><style>.cls-1{fill:#00b6e8;}.cls-2{fill:#fff;}.cls-3{fill:#41c5ef;}.cls-4{fill:#007a9f;}.cls-5{fill:#dae7e9;}</style></defs><title>Amex</title><g id="Layer_2" data-name="Layer 2"><g id="canvas"><path class="cls-1" d="M30,23.92a4.56,4.56,0,0,1-4.69,4.43H4.69A4.56,4.56,0,0,1,0,23.92V4.43A4.56,4.56,0,0,1,4.69,0H25.31A4.56,4.56,0,0,1,30,4.43Z"/><polygon class="cls-2" points="7.49 17.52 7.49 18.05 9.4 18.05 9.4 18.84 7.49 18.84 7.49 19.43 9.45 19.43 10.37 18.47 9.45 17.52 7.49 17.52"/><path class="cls-3" d="M1.55,27.22a4.83,4.83,0,0,0,3.13,1.14H25.31A4.56,4.56,0,0,0,30,23.92V4.43a4.28,4.28,0,0,0-1.2-3Z"/><polygon class="cls-2" points="12.8 19.68 12.8 17.27 11.64 18.47 12.8 19.68"/><path class="cls-2" d="M14.69,17.5h-1v.66h1c.28,0,.51-.15.51-.33S15,17.5,14.69,17.5Z"/><polygon class="cls-2" points="21.98 11.73 21.52 12.76 22.42 12.76 21.98 11.73"/><path class="cls-2" d="M30,16.07H28.11a2.19,2.19,0,0,0-.85.15v-.15H24.83a2.22,2.22,0,0,0-.83.14v-.14H19.71v.13a2.18,2.18,0,0,0-.9-.13H15.89v.11a2.21,2.21,0,0,0-.84-.12H11.8l-.77.79-.77-.79H5.89v4.78h4.46l.69-.71.68.71h2.73V19.74h.22a3.49,3.49,0,0,0,1.23-.18v1.3H18.2v-1.2h.15c0,.09,0,.55,0,.55v.65H25.5a2.28,2.28,0,0,0,.82-.16v.15h2.46A2.78,2.78,0,0,0,30,20.5m-.1-1a1.18,1.18,0,0,1-1.15.67H27v-.8h1.45s.53.06.53-.27-.79-.29-.79-.29-1.28.11-1.28-1A1.06,1.06,0,0,1,28,16.71h1.78v.81H28.4s-.5-.09-.5.25.68.25.68.25,1-.07,1.33.53m-15.26.52h-.91v1.11H12l-1-1-1,1H6.55V16.71H9.94L11,17.81l1.07-1.1h3s1.18-.12,1.18,1S15.84,19.06,14.64,19.06Zm5.28.26v.86H19v-.67a.58.58,0,0,0-.62-.53h-.91v1.2h-.93V16.72h2.26a1,1,0,0,1,1.18,1,.89.89,0,0,1-.52.81A.85.85,0,0,1,19.92,19.33Zm3.36-1.81h-2v.53h1.92v.79H21.32v.59h2v.75h-2.9V16.72h2.9Zm2.19,2.66H23.71v-.8h1.45s.52.06.52-.27-.79-.29-.79-.29-1.28.11-1.28-1a1.06,1.06,0,0,1,1.16-1.07h1.79v.81H25.11s-.5-.09-.5.25.68.25.68.25,1.42-.1,1.42.94A1.14,1.14,0,0,1,25.48,20.18Z"/><path class="cls-2" d="M15.41,12c0-.18-.23-.33-.51-.33h-1v.66h1C15.18,12.35,15.41,12.21,15.41,12Z"/><polygon class="cls-2" points="2.05 11.73 1.6 12.76 2.5 12.76 2.05 11.73"/><path class="cls-2" d="M18.45,17.51h-1v.66h1c.28,0,.51-.15.51-.33S18.73,17.51,18.45,17.51Z"/><path class="cls-4" d="M25.29,18s-.68,0-.68-.25.5-.25.5-.25h1.44v-.81H24.77a1.06,1.06,0,0,0-1.16,1.07c0,1.14,1.28,1,1.28,1s.79,0,.79.29-.52.27-.52.27H23.71v.8h1.77A1.14,1.14,0,0,0,26.72,19C26.72,17.92,25.29,18,25.29,18Z"/><polygon class="cls-4" points="20.38 20.18 23.28 20.18 23.28 19.43 21.32 19.43 21.32 18.84 23.23 18.84 23.23 18.05 21.32 18.05 21.32 17.52 23.28 17.52 23.28 16.72 20.38 16.72 20.38 20.18"/><rect class="cls-4" x="16.83" y="10.91" width="0.94" height="3.48"/><path class="cls-4" d="M13.94,13.17h.91a.58.58,0,0,1,.62.53v.67h.91v-.86a.85.85,0,0,0-.45-.79.89.89,0,0,0,.52-.81,1,1,0,0,0-1.18-1H13v3.47h.93Zm0-1.47h1c.28,0,.51.15.51.33s-.23.33-.51.33h-1Z"/><polygon class="cls-4" points="12.53 13.62 10.56 13.62 10.56 13.03 12.47 13.03 12.47 12.25 10.56 12.25 10.56 11.71 12.53 11.71 12.53 10.9 9.62 10.9 9.62 14.37 12.53 14.37 12.53 13.62"/><path class="cls-4" d="M19.34,14.37H20.8l.32-.73h1.7l.33.73H25V12.05l1.48,2.32h1.28V10.91H26.8v2.28l-1.46-2.28H24V14l-1.4-3.14h-1.3l-1.15,2.59a.78.78,0,0,1-1.11-.8q0-.11,0-.24a.74.74,0,0,1,.69-.76h.94v-.78l-1.15,0s-1.47-.06-1.47,1.86A1.53,1.53,0,0,0,19.34,14.37ZM22,11.73l.45,1h-.91Z"/><path class="cls-4" d="M20,17.73a1,1,0,0,0-1.18-1H16.56v3.47h.93V19h.91a.58.58,0,0,1,.62.53v.67h.91v-.86a.85.85,0,0,0-.45-.79A.89.89,0,0,0,20,17.73Zm-1.54.43h-1v-.66h1c.28,0,.51.15.51.33S18.73,18.17,18.45,18.17Z"/><path class="cls-4" d="M15.05,16.71h-3L11,17.81l-1.07-1.1H6.55v3.47H10l1-1,1,1h1.73V19.06h.91c1.2,0,1.6-.32,1.6-1.34S15.05,16.71,15.05,16.71Zm-5.6,2.72h-2v-.59H9.4v-.79H7.49v-.53h2l.92,1Zm3.35.25-1.15-1.21,1.15-1.2Zm1.89-1.52h-1V17.5h1c.28,0,.51.15.51.33S15,18.16,14.69,18.16Z"/><path class="cls-4" d="M29.9,18.55c-.32-.6-1.33-.53-1.33-.53s-.68,0-.68-.25.5-.25.5-.25h1.43v-.81H28a1.06,1.06,0,0,0-1.16,1.07c0,1.14,1.28,1,1.28,1s.79,0,.79.29-.53.27-.53.27H27v.8h1.77a1.18,1.18,0,0,0,1.15-.67A1.46,1.46,0,0,0,30,19,.87.87,0,0,0,29.9,18.55Z"/><path class="cls-4" d="M7.63,10.91l-1,2.15-1-2.15H4.12v3.18L2.71,10.91H1.4L0,14v.33H.87l.33-.73H2.9l.32.73H5.06V12l1.17,2.38H7L8.16,12v2.39h.94V10.91Zm-6,1.85.45-1,.45,1Z"/><rect class="cls-5" y="14.04" height="0.33"/><path class="cls-2" d="M26.09,10.21v.59l-.38-.59H23.31v.56l-.25-.56H20.84l-1.29,0a2.39,2.39,0,0,0-1.12.32v-.29H16.12v.13a2.17,2.17,0,0,0-.9-.13H7.17l-.57,1.21L6,10.21H3.41v.6l-.27-.6H.92L0,12.39V14l1.4-3.13H2.71l1.42,3.18V10.91H5.59l1,2.15,1-2.15H9.11v3.47H8.16V12L7,14.37H6.23L5.06,12v2.38H3.22l-.32-.73H1.2l-.33.73H0V15H1.3l.33-.73h.79l.32.73h3v-.09l0,.09H7.41l0-.07V15h7.16v-1.2h.15c0,.09,0,.55,0,.55V15h3.68v-.31a2.15,2.15,0,0,0,.78.29h2l.32-.73h.79l.33.73h3v-.62L26,15H28.4V10.21Zm-13.56,1.5h-2v.53h1.92V13H10.56v.59h2v.75H9.62V10.91h2.9Zm3.85,1.8v.86h-.91V13.7a.58.58,0,0,0-.62-.53h-.91v1.2H13V10.91h2.26a1,1,0,0,1,1.18,1,.89.89,0,0,1-.52.81A.85.85,0,0,1,16.38,13.52Zm1.39.87h-.94V10.91h.94Zm10,0H26.45L25,12.05v2.32H23.15l-.33-.73h-1.7l-.32.73H19.34a1.53,1.53,0,0,1-1.25-1.64c0-1.92,1.42-1.85,1.47-1.86l1.15,0v.78h-.94a.74.74,0,0,0-.69.76q0,.13,0,.24a.78.78,0,0,0,1.11.8l1.15-2.59h1.3L24,14V10.91h1.32l1.46,2.28V10.91h.94Z"/></g></g></svg>