<svg xmlns="http://www.w3.org/2000/svg" viewBox="0 0 30 28.35"><defs><style>.cls-1{fill:#fbb040;}.cls-2{fill:#ffdf5f;}.cls-3{fill:#164b6a;}.cls-4{fill:#ffe478;}.cls-5{fill:#fff;}.cls-6{fill:#859aa4;}</style></defs><title>GenericCard</title><g id="Layer_2" data-name="Layer 2"><g id="canvas"><path class="cls-1" d="M30,23.92a4.56,4.56,0,0,1-4.69,4.43H4.69A4.56,4.56,0,0,1,0,23.92V4.43A4.56,4.56,0,0,1,4.69,0H25.31A4.56,4.56,0,0,1,30,4.43Z"/><path class="cls-2" d="M1.78,27.4a4.84,4.84,0,0,0,2.91,1H25.31A4.56,4.56,0,0,0,30,23.92V4.43a4.26,4.26,0,0,0-1-2.75Z"/><rect class="cls-3" y="5.96" width="30" height="6.2"/><path class="cls-4" d="M10.22,16.93a2.62,2.62,0,0,1-2.7,2.55H5a2.62,2.62,0,0,1-2.7-2.55h0A2.62,2.62,0,0,1,5,14.38h2.5a2.62,2.62,0,0,1,2.7,2.55Z"/><path class="cls-5" d="M27.66,17.7a1.83,1.83,0,0,1-1.88,1.77H13.13a1.83,1.83,0,0,1-1.88-1.77V16.15a1.83,1.83,0,0,1,1.88-1.77H25.78a1.83,1.83,0,0,1,1.88,1.77Z"/><path class="cls-6" d="M25.54,22.13a.46.46,0,0,1-.47.44h-8a.46.46,0,0,1-.47-.44h0a.46.46,0,0,1,.47-.44h8a.46.46,0,0,1,.47.44Z"/><path class="cls-6" d="M27.64,24.35a.46.46,0,0,1-.47.44H2.8a.46.46,0,0,1-.47-.44h0a.46.46,0,0,1,.47-.44H27.18a.46.46,0,0,1,.47.44Z"/><path class="cls-6" d="M15.93,22.13a.46.46,0,0,1-.47.44H2.8a.46.46,0,0,1-.47-.44h0a.46.46,0,0,1,.47-.44H15.46a.46.46,0,0,1,.47.44Z"/></g></g></svg>