<?xml version="1.0" encoding="UTF-8"?>
<svg width="26px" height="24px" viewBox="0 0 26 24" version="1.1" xmlns="http://www.w3.org/2000/svg" xmlns:xlink="http://www.w3.org/1999/xlink">
    <!-- Generator: Sketch 56.3 (81716) - https://sketch.com -->
    <title>cart-icon</title>
    <desc>Created with Sketch.</desc>
    <g id="pi" stroke="none" stroke-width="1">
        <g id="cart-icon" transform="translate(0.000000, -1.000000)">
            <path d="M21.95,9.506 L17.396,1.645 C17.0414383,1.0323716 16.2587054,0.821051572 15.644,1.172 L15.644,1.172 C15.3464934,1.34185113 15.1289812,1.62330569 15.0396374,1.95402804 C14.9502936,2.28475038 14.9964917,2.63744563 15.168,2.934 L18.968,9.505 L6.855,9.505 L10.661,2.939 C11.0174577,2.32474203 10.8094418,1.53786044 10.196,1.18 L10.184,1.174 C9.88829716,1.001382 9.53603208,0.95360929 9.20503581,1.04123699 C8.87403954,1.12886468 8.59155658,1.3446801 8.42,1.641 L3.873,9.504 L1.291,9.504 C0.948340264,9.50426511 0.619820305,9.64064047 0.377710818,9.88312503 C0.135601332,10.1256096 -0.000265319152,10.4543403 -3.87854939e-07,10.797 L-3.87854939e-07,10.797 C0.00055146722,11.5097711 0.578228938,12.0874485 1.291,12.088 L1.721,12.088 L3.513,22.842 C3.72106746,24.0868129 4.79791817,24.9991976 6.06,25 L19.76,25 C21.0220818,24.9991976 22.0989325,24.0868129 22.307,22.842 L24.1,12.088 L24.53,12.088 C25.2427711,12.0874485 25.8204485,11.5097711 25.821,10.797 L25.821,10.797 C25.8204485,10.0842289 25.2427711,9.50655147 24.53,9.506 L21.95,9.506 Z M18.692,22.418 L7.154,22.418 C6.52299639,22.4177681 5.98461946,21.9614376 5.881,21.339 L4.339,12.089 L21.717,12.089 L19.961,21.367 C19.8452572,21.9766061 19.3124966,22.4178445 18.692,22.418 L18.692,22.418 Z" id="Shape"></path>
        </g>
    </g>
</svg>
