<svg xmlns="http://www.w3.org/2000/svg" viewBox="0 0 24.49 19.27"><defs><style>.cls-1{fill:#287b90;}.cls-2{fill:#fff;}</style></defs><title>AddCategoryTealPlus</title><g id="Layer_2" data-name="Layer 2"><g id="Layer_1-2" data-name="Layer 1"><circle class="cls-1" cx="20.21" cy="15" r="4.28"/><polygon class="cls-2" points="18 14.49 19.7 14.49 19.7 12.79 20.72 12.79 20.72 14.49 22.42 14.49 22.42 15.51 20.72 15.51 20.72 17.21 19.7 17.21 19.7 15.51 18 15.51 18 14.49"/><path class="cls-1" d="M1.78,3.67H20.27a1.66,1.66,0,0,0,1.26-.54,1.78,1.78,0,0,0,.52-1.29A1.78,1.78,0,0,0,21.53.55,1.64,1.64,0,0,0,20.27,0H1.78A1.64,1.64,0,0,0,.52.55,1.78,1.78,0,0,0,0,1.84,1.78,1.78,0,0,0,.52,3.13,1.66,1.66,0,0,0,1.78,3.67Z"/><path class="cls-1" d="M1.78,11H15a6.13,6.13,0,0,1,7-1.65,1.1,1.1,0,0,0,0-.18,1.78,1.78,0,0,0-.52-1.29,1.64,1.64,0,0,0-1.26-.55H1.78A1.64,1.64,0,0,0,.52,7.9a1.86,1.86,0,0,0,0,2.58A1.66,1.66,0,0,0,1.78,11Z"/><path class="cls-1" d="M13.52,15c0-.11,0-.21,0-.32H1.78a1.64,1.64,0,0,0-1.26.55,1.86,1.86,0,0,0,0,2.58,1.66,1.66,0,0,0,1.26.54H14.52A6.08,6.08,0,0,1,13.52,15Z"/></g></g></svg>