<svg xmlns="http://www.w3.org/2000/svg" viewBox="0 0 30.43 24.72"><defs><style>.category-plus-icon-cheddar-up-cls-2{fill:#fff;}</style></defs><title>AddCategory</title><g id="Layer_2" data-name="Layer 2"><g id="Layer_1-2" data-name="Layer 1"><circle cx="25.08" cy="19.37" r="5.35"/><polygon class="category-plus-icon-cheddar-up-cls-2" points="22.31 18.73 24.44 18.73 24.44 16.6 25.71 16.6 25.71 18.73 27.84 18.73 27.84 20 25.71 20 25.71 22.13 24.44 22.13 24.44 20 22.31 20 22.31 18.73"/><path d="M2.23,4.6H25.36a2.09,2.09,0,0,0,1.58-.68,2.27,2.27,0,0,0,.65-1.62A2.27,2.27,0,0,0,26.94.68,2.09,2.09,0,0,0,25.36,0H2.23A2.09,2.09,0,0,0,.65.68,2.27,2.27,0,0,0,0,2.3,2.27,2.27,0,0,0,.65,3.91,2.09,2.09,0,0,0,2.23,4.6Z"/><path d="M2.23,13.79H18.78a7.66,7.66,0,0,1,8.78-2.07c0-.08,0-.15,0-.23a2.27,2.27,0,0,0-.65-1.62,2.09,2.09,0,0,0-1.58-.68H2.23a2.09,2.09,0,0,0-1.58.68,2.34,2.34,0,0,0,0,3.23A2.09,2.09,0,0,0,2.23,13.79Z"/><path d="M16.92,18.79c0-.14,0-.27,0-.4H2.23a2.09,2.09,0,0,0-1.58.68,2.34,2.34,0,0,0,0,3.23A2.09,2.09,0,0,0,2.23,23H18.17A7.63,7.63,0,0,1,16.92,18.79Z"/></g></g></svg>
