<?xml version="1.0" encoding="utf-8"?>
<!-- Generator: Adobe Illustrator 21.0.2, SVG Export Plug-In . SVG Version: 6.00 Build 0)  -->
<svg version="1.1" id="Layer_1" xmlns="http://www.w3.org/2000/svg" xmlns:xlink="http://www.w3.org/1999/xlink" x="0px" y="0px"
	 viewBox="0 0 176.6 39.5" style="enable-background:new 0 0 176.6 39.5;" xml:space="preserve">
<style type="text/css">
	.st0{fill:#E4E4E4;}
	.st1{fill:#414141;}
	.st2{fill:#F1673A;}
	.st3{opacity:0.55;}
	.st4{fill:#F59120;}
	.st5{opacity:0.6;fill:#F1673A;enable-background:new    ;}
	.st6{fill:#F9AE41;}
	.st7{opacity:0.4;fill:#FFFFFF;enable-background:new    ;}
	.st8{opacity:0.2;fill:#FFFFFF;enable-background:new    ;}
	.st9{fill:#414142;}
</style>
<title>CheddarUpPay</title>
<g>
	<g id="Layer_2">
		<g id="Layer_1-2">
			<path class="st0" d="M5.4,0h165.8c3,0,5.4,2.4,5.4,5.4v28.7c0,3-2.4,5.4-5.4,5.4H5.4c-3,0-5.4-2.4-5.4-5.4V5.4C0,2.4,2.4,0,5.4,0
				z"/>
			<polygon class="st1" points="48.4,8 39.6,9.5 42.5,11.1 33.9,16.5 34.4,17.3 43.1,11.9 43.2,15.2 			"/>
			<g>
				<polygon class="st2" points="20.5,25.6 20.6,13.5 31.1,19.6 31.1,31.7 				"/>
			</g>
			<g class="st3">
				<path class="st4" d="M30.9,31.6l0.2,0.1v-1.1C31,30.9,31,31.2,30.9,31.6z"/>
				<path class="st4" d="M31.1,26.2v-6.6L26.7,17C29.1,19.5,30.6,22.7,31.1,26.2z"/>
			</g>
			<g>
				<polyline class="st4" points="41.6,13.5 31.1,7.4 20.6,13.5 31.1,19.6 				"/>
			</g>
			<path class="st5" d="M20.9,16.7c0-0.9,0.1-1.9,0.3-2.8l-0.6-0.4v12.1l10.5,6.1v-1C25,28.7,20.9,23.1,20.9,16.7z"/>
			<g>
				<polygon class="st6" points="31.1,31.7 31.1,19.6 41.6,13.5 41.6,25.6 				"/>
			</g>
			<path class="st7" d="M41.2,16.7c0-0.9-0.1-1.9-0.2-2.8l0.6-0.4v12.1l-10.5,6.1v-1C37.1,28.7,41.2,23.1,41.2,16.7z"/>
			<path class="st8" d="M35.5,10c0.1,0.4,0.1,0.8,0.1,1.2c0,3.4-1.9,6.6-5,8.2l0.4,0.2l10.5-6.1L35.5,10z"/>
			<path class="st1" d="M25.9,22.1c-0.2-0.3-0.5-0.4-0.8-0.2L21,24.4l-4.8,0.1l-4.7,2.9l3.7,0.9l5.3-3.3v0.6l0.2,0.1l-5.1,3.2
				l-0.9,3.7l4.7-2.9l2.2-4.2l4.1-2.6C26,22.7,26.1,22.3,25.9,22.1z"/>
			<path class="st9" d="M57.8,9.4h2c0.9-0.1,1.8,0.5,2,1.5c0,0.1,0,0.2,0,0.4c0,1-0.7,1.8-1.6,1.8c-0.1,0-0.2,0-0.4,0h-1.2v2.4h-0.8
				V9.4z M59.8,12.4c0.6,0.1,1.1-0.4,1.2-0.9c0-0.1,0-0.1,0-0.2c0.1-0.6-0.4-1.1-0.9-1.1c-0.1,0-0.1,0-0.2,0h-1.2v2.3h1.1V12.4z"/>
			<path class="st9" d="M64.2,9.4h0.5l2.6,6h-0.8l-0.7-1.7h-2.6l-0.7,1.7h-0.8L64.2,9.4z M65.5,13.1l-1-2.5l-1,2.5H65.5z"/>
			<path class="st9" d="M69.2,13l-2.3-3.6h0.9l1.9,2.9l1.9-2.9h0.8L69.9,13v2.4h-0.8L69.2,13z"/>
			<path class="st9" d="M74.2,9.4H75l1.4,4.4c0,0.1,0.1,0.4,0.1,0.4s0.1-0.3,0.1-0.4L78,9.4h0.5l1.4,4.4c0,0.1,0.1,0.4,0.1,0.4
				c0-0.1,0-0.2,0.1-0.4l1.4-4.4h0.8l-2.1,6h-0.5l-1.4-4.1c0-0.1-0.1-0.3-0.1-0.3s-0.1,0.2-0.1,0.3l-1.4,4.1h-0.5L74.2,9.4z"/>
			<path class="st9" d="M83.2,9.4H84v6h-0.8V9.4z"/>
			<path class="st9" d="M87,10.1h-2.1V9.4H90v0.7h-2.1v5.3H87V10.1z"/>
			<path class="st9" d="M90.8,9.4h0.8v2.5h3.3V9.4h0.8v6h-0.8v-2.8h-3.3v2.8h-0.8V9.4z"/>
			<path class="st9" d="M61.9,31c-3.2,0.2-5.9-2.2-6.1-5.4c-0.2-3.2,2.2-5.9,5.4-6.1c0.2,0,0.5,0,0.7,0c1.4-0.1,2.7,0.3,3.9,1.1V23
				c-1-0.8-2.2-1.3-3.4-1.3c-1.8-0.1-3.4,1.3-3.5,3.1c0,0.1,0,0.3,0,0.4c-0.1,1.8,1.3,3.4,3.1,3.5c0.1,0,0.2,0,0.4,0
				c1.3,0,2.5-0.5,3.4-1.3v2.5C64.6,30.7,63.3,31.1,61.9,31z"/>
			<path class="st9" d="M75.3,30.8v-4.6h-4.5v4.6h-2.9V19.7h2.9v4h4.5v-4h2.9v11.1C78.2,30.8,75.3,30.8,75.3,30.8z"/>
			<path class="st9" d="M80.5,30.8V19.7h7.6v2.2h-4.8v2h3.8V26h-3.8v2.6h4.8v2.2L80.5,30.8z"/>
			<path class="st9" d="M94.4,30.8h-4.2V19.7h4.3c4.5,0,6.4,2.5,6.4,5.5S99,30.8,94.4,30.8z M94.2,21.9H93v6.6h1.2
				c2.6,0,3.7-1.1,3.7-3.3S96.8,21.9,94.2,21.9z"/>
			<path class="st9" d="M106.9,30.8h-4.3V19.7h4.3c4.5,0,6.4,2.5,6.4,5.5S111.5,30.8,106.9,30.8z M106.7,21.9h-1.2v6.6h1.2
				c2.6,0,3.7-1.1,3.7-3.3S109.3,21.9,106.7,21.9z"/>
			<path class="st9" d="M122.4,30.8l-1-2.4h-4.2l-1,2.4h-2.7l4.7-11.1h2.4l4.7,11.1H122.4z M118,26.5h2.8l-1.4-3.6L118,26.5z"/>
			<path class="st9" d="M134.7,30.9c-1.5,0.1-2.8-0.9-3.3-2.3l-0.9-2.2h-1.1v4.3h-2.9v-11h5c2.7,0,3.9,1.6,3.9,3.4
				c0.1,1.4-0.9,2.7-2.3,3.1l0.9,1.7c0.5,0.9,0.9,1.1,1.6,1.1c0.2,0,0.4,0,0.6-0.1v1.7C135.7,30.8,135.2,30.9,134.7,30.9z
				 M130.8,21.6h-1.4v3h1.4c1.2,0,1.7-0.5,1.7-1.5S132,21.6,130.8,21.6z"/>
			<path class="st9" d="M146.9,31.1c-2.9,0-5.3-1.7-5.3-5.4v-6h2.9v5.9c0,2,0.9,3.1,2.5,3.1s2.5-1,2.5-3.1v-5.8h2.8v6
				C152.3,29.5,149.9,31.1,146.9,31.1z"/>
			<path class="st9" d="M159.3,27.1h-1.8v3.7h-2.9V19.7h4.7c2.8,0,4,1.7,4,3.7S162.1,27.1,159.3,27.1z M158.6,21.6h-1.1v3.5h1.1
				c0.9,0.1,1.7-0.5,1.8-1.4c0-0.1,0-0.3,0-0.4c0.1-0.9-0.5-1.7-1.4-1.8C158.9,21.6,158.7,21.6,158.6,21.6z"/>
		</g>
	</g>
</g>
</svg>
