<svg xmlns="http://www.w3.org/2000/svg" xmlns:xlink="http://www.w3.org/1999/xlink" width="140.557" height="26.797" viewBox="0 0 140.557 26.797"><defs><style>.a{fill:none;}.b{clip-path:url(#a);}.c{fill:#252525;}.d,.g{fill:#e5361a;}.e{opacity:0.55;}.f{fill:#f26511;}.g{opacity:0.6;}.h{fill:#fa881b;}.i,.j{fill:#fff;}.i{opacity:0.4;}.j{opacity:0.2;}</style><clipPath id="a"><rect class="a" width="140.557" height="26.797"/></clipPath></defs><g class="b"><g transform="translate(-153.999 -368.001)"><path class="c" d="M204.2,378.339a5,5,0,0,1,0-10,5.673,5.673,0,0,1,3.373.954v2.129a4.624,4.624,0,0,0-2.972-1.132,2.851,2.851,0,0,0-3,2.7,2.6,2.6,0,0,0,0,.342,2.868,2.868,0,0,0,2.668,3.056,2.745,2.745,0,0,0,.327,0,4.525,4.525,0,0,0,2.972-1.153v2.152A5.672,5.672,0,0,1,204.2,378.339Z"/><path class="c" d="M215.782,378.139v-4.014h-3.926v4.014h-2.485v-9.6h2.485v3.483h3.926v-3.483h2.484v9.6Z"/><path class="c" d="M220.336,378.139v-9.6h6.61v1.885h-4.125v1.73h3.327V374h-3.327v2.262h4.125v1.881Z"/><path class="c" d="M232.353,378.139h-3.682v-9.6h3.683c3.925,0,5.546,2.152,5.546,4.792C237.9,375.988,236.278,378.139,232.353,378.139Zm-.2-7.675h-1v5.745h1c2.263,0,3.216-.953,3.216-2.883,0-1.907-.953-2.861-3.216-2.861Z"/><path class="c" d="M243.174,378.139h-3.681v-9.6h3.681c3.927,0,5.546,2.152,5.546,4.792C248.72,375.988,247.1,378.139,243.174,378.139Zm-.2-7.675h-1v5.745h1c2.262,0,3.216-.953,3.216-2.883,0-1.907-.953-2.861-3.215-2.861Z"/><path class="c" d="M256.583,378.139l-.844-2.107h-3.66l-.842,2.107h-2.374l4.059-9.6h2.064l4.058,9.6Zm-3.882-3.726h2.441l-1.221-3.151Z"/><path class="c" d="M267.161,378.251A2.869,2.869,0,0,1,264.3,376.3l-.8-1.885h-.909v3.725h-2.484v-9.6h4.281c2.307,0,3.327,1.4,3.327,2.95a2.69,2.69,0,0,1-1.953,2.707l.777,1.442c.4.733.8,1,1.419,1a1.261,1.261,0,0,0,.555-.11v1.508A4.965,4.965,0,0,1,267.161,378.251Zm-3.394-8.053h-1.175v2.618h1.175c1.042,0,1.486-.466,1.486-1.309S264.809,370.2,263.767,370.2Z"/><path class="c" d="M277.76,378.406c-2.551,0-4.591-1.442-4.591-4.7v-5.167h2.506V373.6c0,1.751.733,2.661,2.129,2.661,1.419,0,2.129-.91,2.129-2.661v-5.058h2.441v5.169C282.375,376.965,280.356,378.406,277.76,378.406Z"/><path class="c" d="M288.45,374.923H286.9v3.216h-2.485v-9.6h4.037c2.4,0,3.461,1.442,3.461,3.194C291.911,373.46,290.842,374.923,288.45,374.923Zm-.576-4.725H286.9v3.062h.975a1.385,1.385,0,0,0,1.57-1.169,1.415,1.415,0,0,0,.005-.362,1.384,1.384,0,0,0-1.215-1.536A1.4,1.4,0,0,0,287.874,370.2Z"/></g><g transform="translate(-153.999 -368.001)"><path class="c" d="M191.362,368.663l-8.9,1.528,2.956,1.565-8.754,5.462.557.891,8.754-5.462.1,3.342Z"/><path class="d" d="M163.115,386.466l.035-12.237,10.649,6.149v12.235Z"/><g class="e"><path class="f" d="M173.636,392.519l.165.093v-1.088C173.753,391.859,173.7,392.19,173.636,392.519Z"/><path class="f" d="M173.8,387.052v-6.675l-4.451-2.569A16.575,16.575,0,0,1,173.8,387.052Z"/></g><path class="f" d="M184.448,374.229,173.8,368l-10.648,6.228,10.649,6.149"/><path class="g" d="M163.492,377.439a15.048,15.048,0,0,1,.274-2.857l-.615-.356-.036,12.238,10.689,6.148v-.984A14.915,14.915,0,0,1,163.492,377.439Z"/><path class="h" d="M173.8,392.613V380.377l10.65-6.149.034,12.237Z"/><path class="i" d="M184.107,377.439a14.808,14.808,0,0,0-.275-2.857l.617-.356.033,12.238L173.8,392.612v-.984A14.917,14.917,0,0,0,184.107,377.439Z"/><path class="j" d="M178.322,370.646a9.554,9.554,0,0,1,.082,1.23,9.312,9.312,0,0,1-5.015,8.263l.412.238,10.65-6.149Z"/><path class="c" d="M168.6,382.89a.6.6,0,0,0-.827-.191h0l-4.181,2.6-4.834.066L154,388.322l3.757.875,5.36-3.322v.591l.245.141-5.218,3.233-.871,3.742,4.755-2.956,2.2-4.306,4.181-2.6a.6.6,0,0,0,.19-.827Z"/></g><g transform="translate(-153.999 -368.001)"><path class="c" d="M200.81,387.626a4.629,4.629,0,0,1,4.636-4.244,4.042,4.042,0,0,1,2.592.883l-.183,1.064a3.332,3.332,0,0,0-2.563-1.036,3.531,3.531,0,0,0-3.4,3.333c-.294,2.088.855,3.614,2.508,3.614a4.2,4.2,0,0,0,2.815-1.093l-.182,1.122a4.946,4.946,0,0,1-2.774.881C202.14,392.15,200.431,390.344,200.81,387.626Z"/><path class="c" d="M210.527,392.15a2.213,2.213,0,0,1-2.241-2.7,2.874,2.874,0,0,1,2.8-2.437,2.213,2.213,0,0,1,2.241,2.7A2.875,2.875,0,0,1,210.527,392.15Zm.532-4.4a1.914,1.914,0,0,0-1.793,1.708c-.21,1.219.392,1.947,1.289,1.947a1.906,1.906,0,0,0,1.793-1.709C212.558,388.48,211.956,387.753,211.059,387.753Z"/><path class="c" d="M214.319,390.96l1.317-7.4.994-.168-1.344,7.564c-.056.351.028.505.238.505a1.64,1.64,0,0,0,.406-.084v.42a1.667,1.667,0,0,1-.882.265C214.516,392.066,214.179,391.744,214.319,390.96Z"/><path class="c" d="M217.007,390.96l1.316-7.4.995-.168-1.345,7.564c-.056.351.028.505.238.505a1.639,1.639,0,0,0,.407-.084v.42a1.67,1.67,0,0,1-.883.265C217.2,392.066,216.867,391.744,217.007,390.96Z"/><path class="c" d="M219.709,389.5a2.945,2.945,0,0,1,2.843-2.466c.9,0,1.485.546,1.359,1.205s-1.2,1.653-3.32,1.933a1.284,1.284,0,0,0,1.387,1.205,2.189,2.189,0,0,0,1.429-.561l.322.5a2.8,2.8,0,0,1-2,.8A2.135,2.135,0,0,1,219.709,389.5ZM223,388.285c.042-.253-.153-.518-.574-.518a2.033,2.033,0,0,0-1.807,1.821C221.852,389.447,222.917,388.775,223,388.285Z"/><path class="c" d="M228.951,388.285a1.9,1.9,0,0,0-3.18,1.162,1.477,1.477,0,0,0,1.457,1.934,1.82,1.82,0,0,0,1.064-.379l.309.477a2.316,2.316,0,0,1-1.709.644,2.181,2.181,0,0,1-2.1-2.689,2.852,2.852,0,0,1,2.815-2.4,2.325,2.325,0,0,1,1.471.5Z"/><path class="c" d="M229.957,390.5l.476-2.647h-.728l.126-.659h.714l.294-1.6.994-.169-.321,1.765h1.232l-.126.659H231.4l-.476,2.647c-.112.588.042.939.491.939a1.063,1.063,0,0,0,.63-.21l.14.475a1.716,1.716,0,0,1-1.079.364C230.335,392.066,229.761,391.576,229.957,390.5Z"/><path class="c" d="M236.131,387.851h-.882l.126-.659h.868l.336-1.9c.252-1.457,1.121-1.961,1.989-1.961a1.99,1.99,0,0,1,.575.112l-.126.672a1.062,1.062,0,0,0-.365-.07c-.546,0-.952.337-1.107,1.247l-.336,1.9h1.331l-.126.659H237.1l-.714,4.118h-.966Z"/><path class="c" d="M240.779,392.15a2.214,2.214,0,0,1-2.241-2.7,2.875,2.875,0,0,1,2.8-2.437,2.214,2.214,0,0,1,2.242,2.7A2.876,2.876,0,0,1,240.779,392.15Zm.533-4.4a1.914,1.914,0,0,0-1.793,1.708c-.211,1.219.392,1.947,1.288,1.947A1.9,1.9,0,0,0,242.6,389.7C242.81,388.48,242.208,387.753,241.312,387.753Z"/><path class="c" d="M245.3,388.173c.055-.351-.029-.505-.239-.505a1.593,1.593,0,0,0-.406.085v-.421a1.669,1.669,0,0,1,.883-.266c.532,0,.868.378.728,1.121a2.482,2.482,0,0,1,1.975-1.107l-.2,1.107a.858.858,0,0,0-.378-.071c-.574,0-1.443.238-1.737,1.92l-.336,1.933h-.967Z"/><path class="c" d="M250.858,389.5a2.966,2.966,0,0,1,2.885-2.466,1.964,1.964,0,0,1,1.219.406l.308-.378h.6l-.7,3.894c-.056.351.028.505.238.505a1.232,1.232,0,0,0,.406-.084v.42a1.667,1.667,0,0,1-.882.265.654.654,0,0,1-.756-.658,2.4,2.4,0,0,1-1.555.687C251.222,392.1,250.6,390.891,250.858,389.5Zm3.5.6.365-1.989a1.546,1.546,0,0,0-1.037-.349,2.005,2.005,0,0,0-1.863,1.806c-.182.981.155,1.793,1.107,1.793A1.532,1.532,0,0,0,254.359,390.105Z"/><path class="c" d="M260.478,391.254c0-.784.476-1.736.476-2.619,0-.49-.225-.784-.715-.784-.644,0-1.653.658-1.919,2.157l-.35,1.961H257l.672-3.8c.056-.351-.028-.505-.238-.505a1.593,1.593,0,0,0-.406.085v-.421a1.668,1.668,0,0,1,.882-.266c.532,0,.869.392.729,1.121a2.451,2.451,0,0,1,1.933-1.149,1.279,1.279,0,0,1,1.344,1.4c0,1.009-.476,1.962-.476,2.732a.266.266,0,0,0,.266.295,1.639,1.639,0,0,0,.407-.084v.42a1.577,1.577,0,0,1-.855.265A.764.764,0,0,1,260.478,391.254Z"/><path class="c" d="M263.29,394.7H262.3l1.835-2.928-1.247-4.58h.939l.924,3.6,2.171-3.6h.995Z"/><path class="c" d="M268.666,390.5l.477-2.647h-.729l.126-.659h.714l.3-1.6.994-.169-.322,1.765h1.233l-.126.659h-1.219l-.476,2.647c-.112.588.042.939.49.939a1.063,1.063,0,0,0,.63-.21l.141.475a1.718,1.718,0,0,1-1.079.364C269.044,392.066,268.47,391.576,268.666,390.5Z"/><path class="c" d="M275.318,391.254c0-.784.476-1.736.476-2.619,0-.49-.224-.784-.714-.784-.644,0-1.653.658-1.919,2.157l-.35,1.961h-.967l1.485-8.4.994-.168-.84,4.791a2.452,2.452,0,0,1,1.933-1.149,1.28,1.28,0,0,1,1.345,1.4c0,1.009-.477,1.962-.477,2.732a.266.266,0,0,0,.266.295,1.659,1.659,0,0,0,.407-.084v.42a1.58,1.58,0,0,1-.855.265A.764.764,0,0,1,275.318,391.254Z"/><path class="c" d="M278.144,391.254c0-.784.63-2.521.63-3.291a.266.266,0,0,0-.266-.3,1.594,1.594,0,0,0-.406.085v-.421a1.575,1.575,0,0,1,.854-.266.765.765,0,0,1,.785.813c0,.784-.631,2.521-.631,3.291a.266.266,0,0,0,.266.295,1.639,1.639,0,0,0,.407-.084v.42a1.577,1.577,0,0,1-.855.265A.764.764,0,0,1,278.144,391.254Zm1.092-6.233a.689.689,0,0,1,.659-.588.512.512,0,0,1,.518.588.688.688,0,0,1-.658.588A.513.513,0,0,1,279.236,385.021Z"/><path class="c" d="M284.445,391.254c0-.784.477-1.736.477-2.619,0-.49-.225-.784-.715-.784-.644,0-1.653.658-1.919,2.157l-.35,1.961h-.966l.672-3.8c.056-.351-.028-.505-.238-.505a1.593,1.593,0,0,0-.406.085v-.421a1.668,1.668,0,0,1,.882-.266c.532,0,.868.392.728,1.121a2.453,2.453,0,0,1,1.933-1.149,1.279,1.279,0,0,1,1.345,1.4c0,1.009-.476,1.962-.476,2.732a.266.266,0,0,0,.266.295,1.641,1.641,0,0,0,.406-.084v.42a1.574,1.574,0,0,1-.854.265A.764.764,0,0,1,284.445,391.254Z"/><path class="c" d="M287.02,394.364v-.841a2.9,2.9,0,0,0,1.639.477c.938,0,1.428-.519,1.624-1.85l.1-.643a2.371,2.371,0,0,1-1.485.588c-1.4,0-2.017-1.2-1.764-2.591a2.966,2.966,0,0,1,2.885-2.466,2,2,0,0,1,1.233.406l.308-.378h.6l-.924,5.127c-.35,1.947-1.149,2.605-2.648,2.605A3.376,3.376,0,0,1,287.02,394.364Zm3.614-4.244.364-2a1.548,1.548,0,0,0-1.037-.349,2.005,2.005,0,0,0-1.863,1.806c-.182.981.154,1.793,1.107,1.793A1.52,1.52,0,0,0,290.634,390.12Z"/><path class="c" d="M293.1,391.353a.817.817,0,0,1,.8-.729.645.645,0,0,1,.658.729.816.816,0,0,1-.8.728A.645.645,0,0,1,293.1,391.353Z"/></g></g></svg>