<?xml version="1.0" encoding="utf-8"?>
<!-- Generator: Adobe Illustrator 21.0.2, SVG Export Plug-In . SVG Version: 6.00 Build 0)  -->
<svg version="1.1" id="Layer_1" xmlns="http://www.w3.org/2000/svg" xmlns:xlink="http://www.w3.org/1999/xlink" x="0px" y="0px"
	 viewBox="0 0 23.6 14.9" style="enable-background:new 0 0 23.6 14.9;" xml:space="preserve">
<title>Code</title>
<g>
	<path d="M21.1,3.8V1.6c0-0.9-0.7-1.6-1.6-1.6H4.1C3.3,0,2.6,0.7,2.5,1.6v2.3c-2,0.7-3,2.9-2.3,4.9
		c0.4,1.1,1.2,1.9,2.3,2.3v2.3c0,0.9,0.7,1.6,1.6,1.6h15.4c0.9,0,1.6-0.7,1.6-1.6v-2.2c2-0.7,3-2.9,2.3-4.9
		C23,5.1,22.1,4.2,21.1,3.8L21.1,3.8z M20.3,10c-0.3,0.1-0.5,0.3-0.5,0.6v2.7c0,0.2-0.1,0.3-0.3,0.3H4.1c-0.2,0-0.3-0.1-0.3-0.3
		v-2.7c0-0.3-0.2-0.6-0.5-0.6C1.9,9.7,1,8.3,1.3,6.9c0.2-1,1-1.8,2-2c0.3-0.1,0.5-0.3,0.5-0.6V1.6c0-0.2,0.1-0.3,0.3-0.3
		c0,0,0,0,0,0h15.4c0.2,0,0.3,0.1,0.3,0.3v0v2.7c0,0.3,0.2,0.6,0.5,0.6c1.4,0.3,2.3,1.7,2,3.1C22.1,9,21.3,9.8,20.3,10z"/>
	<path d="M14.8,3.6c-0.3-0.2-0.7-0.2-0.9,0.1l-5.1,6.7c-0.2,0.3-0.2,0.7,0.1,0.9s0.7,0.2,0.9-0.1l5.1-6.7
		C15.1,4.2,15,3.8,14.8,3.6C14.8,3.6,14.8,3.6,14.8,3.6z"/>
	<path d="M14.6,7.6c-1.1,0-2,0.9-2,2V10c0,1.1,1,1.9,2,1.9c1,0,1.9-0.9,1.9-1.9V9.6C16.6,8.5,15.7,7.6,14.6,7.6z
		 M15.3,10c0,0.4-0.4,0.7-0.7,0.7c-0.4,0-0.6-0.3-0.7-0.7V9.6c0-0.4,0.4-0.7,0.7-0.7c0.4,0,0.6,0.3,0.7,0.7V10z"/>
	<path d="M11,5.3V4.9c0-1.1-0.8-2-1.9-2s-2,0.8-2,1.9c0,0,0,0.1,0,0.1v0.4c0,1.1,0.8,2,1.9,2s2-0.8,2-1.9
		C11,5.4,11,5.3,11,5.3z M8.3,5.3V4.9c0-0.4,0.3-0.7,0.7-0.7s0.7,0.3,0.7,0.7c0,0,0,0.1,0,0.1v0.4C9.8,5.7,9.5,6,9.1,6
		C8.7,6.1,8.4,5.8,8.3,5.3C8.3,5.3,8.3,5.3,8.3,5.3z"/>
</g>
</svg>
