<svg xmlns="http://www.w3.org/2000/svg" viewBox="0 0 60.11 60.12"><defs><style>.cls-1{fill:#fff;}</style></defs><title>CollectionPlaceholder</title><g id="Layer_2" data-name="Layer 2"><g id="Layer_1-2" data-name="Layer 1"><path class="cls-1" d="M39.87,24.44a7.51,7.51,0,0,0-5.37,2.23,7.56,7.56,0,0,0-9.81-.78,7.47,7.47,0,0,0-4.44-1.45A7.65,7.65,0,0,0,12.65,32c-.13,5,10.07,14.7,12.11,16.6a1.26,1.26,0,0,0,1.7,0c.07-.07,1.64-1.47,3.64-3.5C31.68,46.75,33,48,33.64,48.6a1.28,1.28,0,0,0,.86.34,1.25,1.25,0,0,0,.83-.32C36.58,47.52,47.46,37.68,47.46,32A7.61,7.61,0,0,0,39.87,24.44ZM25.63,46c-4.4-4.22-10.53-11.09-10.45-13.88A5.12,5.12,0,0,1,20.25,27a5,5,0,0,1,2.66.76,7.58,7.58,0,0,0-.53.92l-.06.12a7.73,7.73,0,0,0-.65,2,1.57,1.57,0,0,1,0,.23,8.73,8.73,0,0,0-.1,1h0c0,.63-.05,2.15,2.3,5.6.09.15.2.3.31.45l.31.44a54.41,54.41,0,0,0,3.92,4.78C27.27,44.4,26.29,45.34,25.63,46Zm8.88,0c-1.08-1-2.26-2.24-3.44-3.49,0,0,0,0,0,0-5.61-6-6.74-8.83-6.95-9.93a3.29,3.29,0,0,1,0-.42s0,0,0,0a5.36,5.36,0,0,1,.12-1,4.31,4.31,0,0,1,.19-.61c0-.12.07-.24.11-.35a5.26,5.26,0,0,1,.46-.84l0,0a4.68,4.68,0,0,1,.63-.78A5,5,0,0,1,29.13,27a5.05,5.05,0,0,1,4.3,2.39,1.31,1.31,0,0,0,2.14,0A5,5,0,0,1,39.87,27,5.08,5.08,0,0,1,44.94,32C44.94,35.22,38.87,41.94,34.51,46Z"/><path class="cls-1" d="M54.22,13.26H49.5A14.39,14.39,0,0,0,30.06.93,14.4,14.4,0,0,0,10.61,13.26H6.41a1.25,1.25,0,0,0-1.25,1.1L0,54.39a5.17,5.17,0,0,0,5.15,5.73H54.94a5.18,5.18,0,0,0,5.15-5.69l-4.62-40A1.26,1.26,0,0,0,54.22,13.26ZM35.11,2.52A11.92,11.92,0,0,1,47,13.26H39.39a14.34,14.34,0,0,0-6-10.59A11.4,11.4,0,0,1,35.11,2.52Zm1.75,10.74H23.25a11.85,11.85,0,0,1,6.81-9.6A11.85,11.85,0,0,1,36.86,13.26ZM25,2.52a11.29,11.29,0,0,1,1.76.15,14.33,14.33,0,0,0-6,10.59H13.14A11.9,11.9,0,0,1,25,2.52Zm31.91,54.2a2.64,2.64,0,0,1-2,.87H5.18a2.64,2.64,0,0,1-2.65-2.9l5-38.91H53.1L57.58,54.7A2.59,2.59,0,0,1,56.91,56.72Z"/></g></g></svg>