<svg xmlns="http://www.w3.org/2000/svg" width="24.38" height="22.106" viewBox="0 0 24.38 22.106" fill="currentColor">
    <g transform="translate(-20 -87.067)">
        <g transform="translate(14.68 67.595)">
            <g transform="translate(5.32 23.949)">
                <path d="M27.817,189.085v11.121a2.824,2.824,0,0,1-.019.343l.034-.25a2.4,2.4,0,0,1-.161.592l.095-.225a2.417,2.417,0,0,1-.3.517l.147-.191a2.446,2.446,0,0,1-.4.4l.191-.147a2.418,2.418,0,0,1-.517.3l.225-.095a2.4,2.4,0,0,1-.592.161l.25-.034a6.017,6.017,0,0,1-.726.019H8.553a2.485,2.485,0,0,1-.3-.019l.25.034a2.4,2.4,0,0,1-.592-.161l.225.095a2.416,2.416,0,0,1-.517-.3l.191.147a2.447,2.447,0,0,1-.4-.4l.147.191a2.417,2.417,0,0,1-.3-.517l.095.225a2.4,2.4,0,0,1-.16-.592l.034.25a7.966,7.966,0,0,1-.019-.957V189.165a3.117,3.117,0,0,1,.019-.378l-.034.25a2.4,2.4,0,0,1,.16-.592l-.095.225a2.418,2.418,0,0,1,.3-.517l-.147.191a2.446,2.446,0,0,1,.4-.4l-.191.147a2.418,2.418,0,0,1,.517-.3l-.225.095a2.4,2.4,0,0,1,.592-.161l-.25.034a6.017,6.017,0,0,1,.726-.019H26.467a2.487,2.487,0,0,1,.3.019l-.25-.034a2.4,2.4,0,0,1,.592.161l-.225-.095a2.419,2.419,0,0,1,.517.3l-.191-.147a2.445,2.445,0,0,1,.4.4l-.147-.191a2.419,2.419,0,0,1,.3.517l-.095-.225a2.4,2.4,0,0,1,.161.592l-.034-.25a2.645,2.645,0,0,1,.019.3.942.942,0,1,0,1.884,0,3.32,3.32,0,0,0-.873-2.208,3.01,3.01,0,0,0-.862-.654,3.5,3.5,0,0,0-1.271-.357,6.445,6.445,0,0,0-.671-.011H8.552a3.249,3.249,0,0,0-3.167,2.608,7.2,7.2,0,0,0-.064,1.24v10.451a3.869,3.869,0,0,0,.1.9,3.287,3.287,0,0,0,1.36,1.9,3.365,3.365,0,0,0,1.955.529H26.39a3.246,3.246,0,0,0,2.55-1.157,3.309,3.309,0,0,0,.76-2.076V189.085a.942.942,0,1,0-1.884,0Z"
                      transform="translate(-5.32 -185.851)"/>
            </g>
            <g transform="translate(12.567 19.472)">
                <path d="M276.514,22.2a7.421,7.421,0,0,1,.011-.941l-.034.25a1.144,1.144,0,0,1,.067-.24l-.095.225a1.148,1.148,0,0,1,.122-.212l-.147.191a1.13,1.13,0,0,1,.2-.2l-.191.147a1.149,1.149,0,0,1,.212-.122l-.225.095a1.141,1.141,0,0,1,.24-.067l-.25.034a3.568,3.568,0,0,1,.456-.011h5.051a6.217,6.217,0,0,1,.789.011l-.25-.034a1.142,1.142,0,0,1,.24.067l-.225-.095a1.148,1.148,0,0,1,.212.122l-.191-.147a1.13,1.13,0,0,1,.2.2l-.147-.191a1.152,1.152,0,0,1,.122.212l-.095-.225a1.138,1.138,0,0,1,.067.24l-.034-.25a7.415,7.415,0,0,1,.011.941.942.942,0,1,0,1.884,0,7.215,7.215,0,0,0-.044-1.191,1.944,1.944,0,0,0-1.9-1.54H276.53a1.986,1.986,0,0,0-1.611.919,3.134,3.134,0,0,0-.289,1.811.942.942,0,0,0,1.884,0Z"
                      transform="translate(-274.625 -19.472)"/>
            </g>
            <g transform="translate(5.321 28.052)">
                <path d="M28.3,338.47l-.161.069.225-.095a27.191,27.191,0,0,1-6.919,1.842l.25-.034a31.667,31.667,0,0,1-8.357,0l.25.034a27.181,27.181,0,0,1-6.9-1.839l.225.095-.162-.069a1.026,1.026,0,0,0-.726-.095.942.942,0,0,0-.658,1.159.9.9,0,0,0,.433.563,29.229,29.229,0,0,0,9.657,2.247,31.414,31.414,0,0,0,10.225-.992,26.766,26.766,0,0,0,3.565-1.255.9.9,0,0,0,.433-.563.942.942,0,0,0-.658-1.159,1.025,1.025,0,0,0-.726.095Z"
                      transform="translate(-5.335 -338.344)"/>
            </g>
            <g transform="translate(14.085 30.139)">
                <path d="M335.988,416.839v1.973a3.512,3.512,0,0,1-.011.449l.034-.25a1.138,1.138,0,0,1-.067.24l.095-.225a1.148,1.148,0,0,1-.122.212l.147-.191a1.13,1.13,0,0,1-.2.2l.191-.147a1.146,1.146,0,0,1-.212.122l.225-.095a1.141,1.141,0,0,1-.24.067l.25-.034a4.391,4.391,0,0,1-.56.011h-2.114a4.561,4.561,0,0,1-.58-.011l.25.034a1.141,1.141,0,0,1-.24-.067l.225.095a1.141,1.141,0,0,1-.212-.122l.191.147a1.131,1.131,0,0,1-.2-.2l.147.191a1.146,1.146,0,0,1-.122-.212l.095.225a1.145,1.145,0,0,1-.067-.24l.034.25a3.371,3.371,0,0,1-.011-.43v-1.993a.942.942,0,0,0-1.884,0v2.274a2.022,2.022,0,0,0,.52,1.321,2,2,0,0,0,1.572.618h2.312a4.675,4.675,0,0,0,.962-.058,1.951,1.951,0,0,0,1.469-1.9v-2.255a.942.942,0,0,0-1.884,0Z"
                      transform="translate(-331.037 -415.896)"/>
            </g>
        </g>
    </g>
</svg>
