<svg xmlns="http://www.w3.org/2000/svg" width="25.191" height="28.96" viewBox="0 0 22.94 24.04"><title>CollectionSummary</title><g id="Layer_2" data-name="Layer 2"><g id="Notes_Withdrawal" data-name="Notes Withdrawal"><path d="M11.41.18l0,0L.9,4.33a.25.25,0,0,0-.17.26V7.07A.27.27,0,0,0,1,7.34H2.38V18.5l-1,.74a.27.27,0,0,0-.11.22v1.1H.45a.26.26,0,0,0-.27.24s0,0,0,0v2.75a.28.28,0,0,0,.27.28h22a.28.28,0,0,0,.27-.28V20.84a.27.27,0,0,0-.27-.28h-.83v-1.1a.27.27,0,0,0-.11-.22l-1-.74V7.34h1.38a.27.27,0,0,0,.27-.27V4.59A.26.26,0,0,0,22,4.33L11.57.2A.3.3,0,0,0,11.41.18Zm.06.57,10.19,4v2H1.28v-2ZM2.93,7.34h2.2V18.63a.3.3,0,0,0,.12.22l1,.74v1H1.83v-1l1-.74a.27.27,0,0,0,.11-.22V7.34Zm2.75,0H9.82V18.5l-1,.74a.27.27,0,0,0-.12.22v1.1H6.79v-1.1a.25.25,0,0,0-.12-.22l-1-.74Zm4.69,0h2.2V18.63a.27.27,0,0,0,.11.22l1,.74v1H9.27v-1l1-.74a.3.3,0,0,0,.11-.22V7.34Zm2.75,0h4.13V18.5l-1,.74a.27.27,0,0,0-.11.22v1.1H14.22v-1.1a.27.27,0,0,0-.11-.22l-1-.74Zm4.68,0H20V18.63a.27.27,0,0,0,.11.22l1,.74v1H16.7v-1l1-.74a.27.27,0,0,0,.11-.22V7.34ZM.73,21.11H22.21v2.2H.73Z"/><path d="M22.49,24H.45A.45.45,0,0,1,0,23.59v-2.8a.44.44,0,0,1,.45-.4H1.1v-.93a.49.49,0,0,1,.18-.37l.92-.68V7.52H1a.45.45,0,0,1-.45-.45V4.59a.44.44,0,0,1,.28-.42L11.3,0l0,0h0a.39.39,0,0,1,.26,0L22.1,4.17a.44.44,0,0,1,.29.42V7.07a.45.45,0,0,1-.45.45H20.73V18.41l.92.68a.47.47,0,0,1,.19.37v.93h.65a.45.45,0,0,1,.45.45v2.75A.45.45,0,0,1,22.49,24Zm-22-3.3a.09.09,0,0,0-.1.08v2.77a.1.1,0,0,0,.1.1h22a.1.1,0,0,0,.1-.1V20.84a.1.1,0,0,0-.1-.1h-1V19.46a.12.12,0,0,0,0-.08l-1.07-.8V7.17h1.56a.11.11,0,0,0,.1-.1V4.59a.12.12,0,0,0-.06-.1L11.51.36h-.06L1,4.49a.11.11,0,0,0-.06.09V7.07a.11.11,0,0,0,.1.1H2.55V18.58l-1.06.8a.12.12,0,0,0,0,.08v1.28ZM11.41.18l.05.17Zm11,23.31H.55V20.94H22.39ZM.9,23.14H22V21.29H.9Zm20.39-2.4H16.53V19.5l1.06-.79a.12.12,0,0,0,0-.08V7.17h2.55V18.63a.12.12,0,0,0,0,.08l1.07.79Zm-4.41-.35h4.06v-.71L20,19a.48.48,0,0,1-.19-.35V7.52H18V18.63a.44.44,0,0,1-.18.36l-.92.69Zm-.55.35H14.05V19.46a.12.12,0,0,0,0-.08L13,18.58V7.17h4.48V18.58l-1.06.8a.09.09,0,0,0,0,.08Zm-1.93-.35H16v-.93a.46.46,0,0,1,.18-.37l.92-.68V7.52H13.3V18.41l.92.68a.49.49,0,0,1,.18.37Zm-.55.35H9.09V19.5l1.06-.79a.09.09,0,0,0,0-.08V7.17h2.56V18.63a.09.09,0,0,0,0,.08l1.06.79Zm-4.41-.35H13.5v-.71L12.58,19a.44.44,0,0,1-.18-.35V7.52H10.54V18.63a.44.44,0,0,1-.18.36l-.92.69Zm-.55.35H6.61V19.46a.09.09,0,0,0,0-.08l-1.06-.8V7.17H10V18.58l-1.06.8a.09.09,0,0,0,0,.08ZM7,20.39H8.54v-.93a.49.49,0,0,1,.18-.37l.92-.68V7.52H5.86V18.41l.92.68a.49.49,0,0,1,.18.37Zm-.55.35H1.65V19.5l1.06-.79a.09.09,0,0,0,0-.08V7.17H5.31V18.63a.09.09,0,0,0,0,.08l1.06.79ZM2,20.39H6.06v-.71L5.14,19A.44.44,0,0,1,5,18.64V7.52H3.1V18.63a.44.44,0,0,1-.18.36L2,19.68ZM21.84,7H1.1V4.65L11.47.56,21.84,4.65ZM1.45,6.61h20V4.89L11.47.94l-10,4Z"/></g></g></svg>
