<svg xmlns="http://www.w3.org/2000/svg" width="55.365" height="45.446" viewBox="0 0 55.365 45.446" fill="currentColor">
    <defs>
        <style>.a{fill-rule:evenodd;}</style>
    </defs>
    <path class="a"
          d="M106.346,114.441l12.288,7.094a6.264,6.264,0,0,1,3.2,5.532v14.2a2.379,2.379,0,0,1-3.566,2.063l-7.6-4.382a1.47,1.47,0,0,0-1.521,0l-7.586,4.382A2.383,2.383,0,0,1,98,141.27a2.319,2.319,0,0,1,1.187-2.059l14.3-8.263a2.383,2.383,0,1,0-2.384-4.127l-7.725,4.461a.394.394,0,0,1-.4,0,.385.385,0,0,1-.2-.348V116.5a2.379,2.379,0,0,1,3.566-2.059Zm38.676-14.129,7.155,4.131a2.319,2.319,0,0,1,1.187,2.059v8.263a2.383,2.383,0,0,1-4.767,0v-5.991a1.479,1.479,0,0,0-.756-1.312l-5.207-3.009a2.383,2.383,0,0,1,2.388-4.122Zm-5.291,5.875-12.288-7.1a6.237,6.237,0,0,0-6.4,0l-12.288,7.1a2.379,2.379,0,0,0,0,4.118l12.288,7.1a6.246,6.246,0,0,0,6.4,0l12.283-7.1a2.379,2.379,0,0,0,0-4.118Zm-13.1,20.866v14.2a2.379,2.379,0,0,0,3.57,2.059l12.274-7.1a6.26,6.26,0,0,0,3.195-5.532V116.477a2.376,2.376,0,0,0-3.566-2.059l-12.288,7.1a6.246,6.246,0,0,0-3.195,5.536Z"
          transform="translate(-97.999 -98.205)"/>
</svg>
