<svg xmlns="http://www.w3.org/2000/svg" viewBox="0 0 16.56 16.56"><defs><style>.cls-1{isolation:isolate;}.cls-2{fill:#9e9d9e;}</style></defs><title>EditIcon</title><g id="Layer_2" data-name="Layer 2"><g id="Layer_1-2" data-name="Layer 1"><g id="_" data-name=" " class="cls-1"><g class="cls-1"><path class="cls-2" d="M13.75,8.31l1.37-1.37v8.64a.94.94,0,0,1-1,1H1a1,1,0,0,1-.71-.28.93.93,0,0,1-.28-.7V2.43a1,1,0,0,1,1-1H9.62L8.25,2.81H1.85c-.32,0-.47.15-.47.43V14.76a.37.37,0,0,0,.42.43H13.36c.26,0,.39-.14.39-.43ZM12.12,2,14.48,4.4l-7.6,7.44-2.76.6.61-2.75Zm4.17-.43a.66.66,0,0,1,0,1.08L14.91,4,12.55,1.65,13.88.28A.65.65,0,0,1,15,.28Z"/></g></g></g></g></svg>