
<svg xmlns="http://www.w3.org/2000/svg" viewBox="0 0 32.06 21.95"><defs><style>.cls-1{isolation:isolate;}.cls-2,.cls-8,.cls-9{fill:#fff;}.cls-3,.cls-6{fill:#f2673a;}.cls-4{opacity:0.55;}.cls-5{fill:#f69321;}.cls-6{opacity:0.6;mix-blend-mode:multiply;}.cls-7{fill:#faaf42;}.cls-8{opacity:0.4;}.cls-9{opacity:0.2;}</style></defs><title>Cube.Reversed</title><g class="cls-1"><g id="Layer_2" data-name="Layer 2"><g id="Layer_1-2" data-name="Layer 1"><polygon class="cls-2" points="32.06 0.57 24.42 1.88 26.96 3.22 19.44 7.91 19.92 8.67 27.43 3.98 27.52 6.85 32.06 0.57"/><g class="cls-1"><polygon class="cls-3" points="7.82 15.85 7.85 5.34 16.99 10.62 16.99 21.12 7.82 15.85"/></g><g class="cls-4"><path class="cls-5" d="M16.85,21l.14.08v-.93C17,20.47,16.9,20.76,16.85,21Z"/><path class="cls-5" d="M17,16.35V10.62L13.17,8.42A14.22,14.22,0,0,1,17,16.35Z"/></g><g class="cls-1"><polyline class="cls-5" points="26.13 5.34 16.99 0 7.85 5.34 16.99 10.62"/></g><path class="cls-6" d="M8.15,8.1a12.86,12.86,0,0,1,.24-2.45l-.53-.31,0,10.5L17,21.12v-.85A12.8,12.8,0,0,1,8.15,8.1Z"/><g class="cls-1"><polygon class="cls-7" points="16.99 21.12 16.99 10.62 26.13 5.34 26.16 15.85 16.99 21.12"/></g><path class="cls-8" d="M25.84,8.1a12.72,12.72,0,0,0-.24-2.45l.53-.31,0,10.5L17,21.12v-.85A12.8,12.8,0,0,0,25.84,8.1Z"/><path class="cls-9" d="M20.87,2.27a8.15,8.15,0,0,1,.07,1.05,8,8,0,0,1-4.3,7.09l.35.2,9.14-5.28Z"/><path class="cls-2" d="M12.52,12.78a.51.51,0,0,0-.71-.16L8.23,14.84l-4.15.06L0,17.44l3.22.75,4.6-2.85v.51L8,16,3.56,18.74,2.81,22l4.08-2.54,1.88-3.69,3.59-2.23A.52.52,0,0,0,12.52,12.78Z"/></g></g></g></svg>
