<svg xmlns="http://www.w3.org/2000/svg" xmlns:xlink="http://www.w3.org/1999/xlink" width="195.023" height="39.448" viewBox="0 0 195.023 39.448"><defs><style>.a{fill:none;}.b{clip-path:url(#a);}.c,.i,.j{fill:#fff;}.d,.g{fill:#ed4e29;}.e{opacity:0.55;}.f{fill:#f67d10;}.g{opacity:0.6;}.h{fill:#fc9d2c;}.i{opacity:0.4;}.j{opacity:0.2;}</style><clipPath id="a"><rect class="a" width="195.024" height="39.448"/></clipPath></defs><g class="b"><g transform="translate(65.03 1.843)"><path class="c" d="M74.149,28.745c-3.879,0-7.232-2.639-7.232-7.015,0-4.347,3.353-6.986,7.232-6.986a7.934,7.934,0,0,1,4.719,1.336v2.98a6.466,6.466,0,0,0-4.158-1.584,3.992,3.992,0,0,0-4.193,4.254,4.016,4.016,0,0,0,4.193,4.283A6.325,6.325,0,0,0,78.868,24.4v3.01A7.922,7.922,0,0,1,74.149,28.745Z" transform="translate(-66.917 -14.744)"/><path class="c" d="M84.231,28.348V22.729H78.738v5.619H75.26V14.905h3.478V19.78h5.492V14.905h3.478V28.348Z" transform="translate(-60.787 -14.626)"/><path class="c" d="M84.106,28.348V14.905h9.252v2.639H87.582v2.422H92.24v2.576H87.582v3.168h5.775v2.639Z" transform="translate(-54.287 -14.626)"/><path class="c" d="M95.984,28.348H90.83V14.905h5.154c5.494,0,7.76,3.012,7.76,6.707C103.744,25.336,101.478,28.348,95.984,28.348ZM95.7,17.606h-1.4v8.041h1.4c3.166,0,4.5-1.336,4.5-4.035C100.2,18.942,98.871,17.606,95.7,17.606Z" transform="translate(-49.346 -14.626)"/><path class="c" d="M104.713,28.348H99.561V14.905h5.152c5.5,0,7.763,3.012,7.763,6.707C112.476,25.336,110.211,28.348,104.713,28.348Zm-.278-10.742h-1.4v8.041h1.4c3.166,0,4.5-1.336,4.5-4.035C108.937,18.942,107.6,17.606,104.436,17.606Z" transform="translate(-42.931 -14.626)"/><path class="c" d="M117.925,28.348,116.744,25.4h-5.123l-1.178,2.949h-3.322L112.8,14.905h2.887l5.681,13.443Zm-5.435-5.216h3.416L114.2,18.723Z" transform="translate(-37.376 -14.626)"/><path class="c" d="M126.065,28.5a4.016,4.016,0,0,1-4-2.731l-1.119-2.64H119.67v5.216h-3.478V14.905h5.992c3.23,0,4.658,1.957,4.658,4.129a3.765,3.765,0,0,1-2.734,3.789L125.2,24.84c.559,1.024,1.117,1.4,1.986,1.4a1.759,1.759,0,0,0,.777-.154v2.111A6.922,6.922,0,0,1,126.065,28.5Zm-4.75-11.269H119.67V20.9h1.645c1.459,0,2.08-.652,2.08-1.832S122.774,17.233,121.315,17.233Z" transform="translate(-30.711 -14.626)"/><path class="c" d="M133.157,28.721c-3.57,0-6.426-2.019-6.426-6.582V14.905h3.508v7.08c0,2.451,1.024,3.725,2.98,3.725,1.986,0,2.98-1.273,2.98-3.725v-7.08h3.414v7.234C139.613,26.7,136.789,28.721,133.157,28.721Z" transform="translate(-22.967 -14.626)"/><path class="c" d="M141.452,23.846H139.28v4.5H135.8V14.905h5.65c3.353,0,4.843,2.018,4.843,4.471C146.3,21.8,144.805,23.846,141.452,23.846Zm-.807-6.613H139.28v4.285h1.365a1.937,1.937,0,0,0,2.2-2.142A1.938,1.938,0,0,0,140.645,17.233Z" transform="translate(-16.302 -14.626)"/></g><path class="c" d="M69.781,14.234l-12.94,2.221,4.3,2.274L48.414,26.667l.809,1.3,12.722-7.937.153,4.856Z" transform="translate(-15.483 -13.275)"/><g transform="translate(13.248)"><g transform="translate(0 9.051)"><path class="d" d="M37.068,36.684,37.119,18.9l15.476,8.936V45.617Z" transform="translate(-37.068 -18.899)"/></g><g class="e" transform="translate(9.058 14.252)"><path class="f" d="M45.88,34.835l.239.135V33.388C46.053,33.875,45.972,34.356,45.88,34.835Z" transform="translate(-39.65 -13.454)"/><path class="f" d="M48.758,35.333v-9.7L42.289,21.9A24.092,24.092,0,0,1,48.758,35.333Z" transform="translate(-42.289 -21.897)"/></g><g transform="translate(0.051)"><path class="f" d="M68.05,22.733,52.573,13.682,37.1,22.733l15.476,8.936" transform="translate(-37.097 -13.682)"/></g><path class="g" d="M37.614,23.569a21.835,21.835,0,0,1,.4-4.153l-.9-.517-.05,17.785,15.526,8.932V44.185A21.675,21.675,0,0,1,37.614,23.569Z" transform="translate(-37.068 -9.848)"/><g transform="translate(15.526 9.051)"><path class="h" d="M46.018,45.617V27.835L61.495,18.9l.049,17.784Z" transform="translate(-46.018 -18.899)"/></g><path class="i" d="M61,23.569a21.557,21.557,0,0,0-.4-4.153l.9-.517.05,17.785L46.018,45.616V44.185A21.679,21.679,0,0,0,61,23.569Z" transform="translate(-30.491 -9.848)"/><path class="j" d="M52.845,15.9a13.776,13.776,0,0,1,.12,1.787A13.536,13.536,0,0,1,45.673,29.7l.6.345L61.747,21.1Z" transform="translate(-30.745 -12.054)"/></g><path class="c" d="M50.644,26.329a.868.868,0,0,0-1.2-.278L43.368,29.83l-7.028.1-6.91,4.3L34.892,35.5l7.789-4.83,0,.86.356.2-7.581,4.7-1.266,5.439,6.91-4.3,3.192-6.257,6.075-3.782A.873.873,0,0,0,50.644,26.329Z" transform="translate(-29.431 -4.69)"/><g transform="translate(65.774 24.302)"><path class="c" d="M67.416,33.335a6.112,6.112,0,0,1,6.12-5.6A5.333,5.333,0,0,1,76.957,28.9L76.717,30.3a4.4,4.4,0,0,0-3.385-1.369c-2.182,0-4.106,1.627-4.495,4.4-.389,2.757,1.129,4.772,3.312,4.772a5.543,5.543,0,0,0,3.716-1.443l-.239,1.48a6.53,6.53,0,0,1-3.662,1.164C69.171,39.308,66.916,36.925,67.416,33.335Z" transform="translate(-67.346 -27.659)"/><path class="c" d="M76.061,37.279A2.922,2.922,0,0,1,73.1,33.711a3.8,3.8,0,0,1,3.7-3.218,2.922,2.922,0,0,1,2.958,3.57A3.8,3.8,0,0,1,76.061,37.279Zm.7-5.806A2.527,2.527,0,0,0,74.4,33.73c-.278,1.608.517,2.571,1.7,2.571a2.516,2.516,0,0,0,2.368-2.257C78.743,32.436,77.949,31.473,76.766,31.473Z" transform="translate(-63.152 -25.63)"/><path class="c" d="M77.7,37.73l1.738-9.765,1.311-.222L78.972,37.73c-.075.461.036.664.314.664a2.04,2.04,0,0,0,.536-.111v.555a2.2,2.2,0,0,1-1.164.352C77.954,39.191,77.511,38.764,77.7,37.73Z" transform="translate(-59.771 -27.651)"/><path class="c" d="M79.744,37.73l1.738-9.765,1.313-.222L81.019,37.73c-.073.461.038.664.316.664a2.055,2.055,0,0,0,.536-.111v.555a2.2,2.2,0,0,1-1.166.352C80,39.191,79.558,38.764,79.744,37.73Z" transform="translate(-58.267 -27.651)"/><path class="c" d="M81.8,33.769a3.887,3.887,0,0,1,3.754-3.254c1.183,0,1.96.72,1.794,1.589-.167.888-1.591,2.182-4.382,2.552a1.692,1.692,0,0,0,1.83,1.591,2.892,2.892,0,0,0,1.886-.739l.425.666a3.7,3.7,0,0,1-2.644,1.053A2.818,2.818,0,0,1,81.8,33.769Zm4.346-1.61c.056-.333-.2-.683-.758-.683a2.683,2.683,0,0,0-2.385,2.4C84.634,33.695,86.039,32.808,86.15,32.16Z" transform="translate(-56.755 -25.614)"/><path class="c" d="M91.17,32.16a2.566,2.566,0,0,0-1.7-.664,2.533,2.533,0,0,0-2.5,2.2,1.948,1.948,0,0,0,1.922,2.552,2.412,2.412,0,0,0,1.407-.5l.406.63a3.051,3.051,0,0,1-2.255.85,2.878,2.878,0,0,1-2.774-3.551,3.765,3.765,0,0,1,3.716-3.161,3.068,3.068,0,0,1,1.943.664Z" transform="translate(-53.912 -25.614)"/><path class="c" d="M89.733,35.984l.63-3.5H89.4l.167-.869h.944l.389-2.108,1.311-.224-.423,2.332h1.627l-.167.869h-1.61l-.628,3.5c-.149.777.056,1.239.647,1.239a1.407,1.407,0,0,0,.833-.278l.184.628a2.269,2.269,0,0,1-1.424.482C90.233,38.056,89.475,37.407,89.733,35.984Z" transform="translate(-51.141 -26.516)"/><path class="c" d="M94.788,33.663H93.624l.167-.869h1.147l.444-2.515c.331-1.924,1.478-2.588,2.625-2.588a2.605,2.605,0,0,1,.758.147l-.165.886a1.435,1.435,0,0,0-.482-.092c-.722,0-1.258.444-1.461,1.646l-.444,2.515H97.97l-.167.869H96.065L95.121,39.1H93.846Z" transform="translate(-48.037 -27.69)"/><path class="c" d="M99.111,37.279a2.923,2.923,0,0,1-2.96-3.568,3.8,3.8,0,0,1,3.7-3.218,2.922,2.922,0,0,1,2.96,3.57A3.8,3.8,0,0,1,99.111,37.279Zm.7-5.806a2.527,2.527,0,0,0-2.366,2.257c-.279,1.608.517,2.571,1.7,2.571a2.514,2.514,0,0,0,2.366-2.257C101.793,32.436,101,31.473,99.814,31.473Z" transform="translate(-46.217 -25.63)"/><path class="c" d="M101.658,32c.073-.461-.038-.666-.316-.666a2.145,2.145,0,0,0-.536.111v-.553a2.19,2.19,0,0,1,1.166-.352c.7,0,1.147.5.961,1.48a3.28,3.28,0,0,1,2.607-1.461l-.258,1.461a1.136,1.136,0,0,0-.5-.094c-.758,0-1.9.316-2.293,2.535l-.442,2.552H100.77Z" transform="translate(-42.787 -25.599)"/><path class="c" d="M105.547,33.769a3.916,3.916,0,0,1,3.81-3.254,2.588,2.588,0,0,1,1.61.536l.406-.5h.8l-.925,5.142c-.075.461.036.664.314.664a1.627,1.627,0,0,0,.536-.111V36.8a2.2,2.2,0,0,1-1.164.352.865.865,0,0,1-1-.869,3.17,3.17,0,0,1-2.052.906C106.027,37.19,105.214,35.6,105.547,33.769Zm4.623.795.481-2.626a2.03,2.03,0,0,0-1.367-.461,2.647,2.647,0,0,0-2.46,2.385c-.241,1.294.2,2.368,1.461,2.368A2.024,2.024,0,0,0,110.17,34.564Z" transform="translate(-39.33 -25.614)"/><path class="c" d="M114.784,36.08c0-1.036.63-2.292.63-3.457,0-.647-.3-1.036-.944-1.036-.85,0-2.182.869-2.533,2.847l-.463,2.59H110.2l.888-5.012c.073-.461-.038-.666-.316-.666a2.145,2.145,0,0,0-.536.111V30.9a2.19,2.19,0,0,1,1.166-.352c.7,0,1.147.517.961,1.48a3.242,3.242,0,0,1,2.552-1.516,1.687,1.687,0,0,1,1.775,1.848c0,1.332-.628,2.59-.628,3.607a.351.351,0,0,0,.352.389,2.07,2.07,0,0,0,.536-.111V36.8a2.083,2.083,0,0,1-1.128.352A1.012,1.012,0,0,1,114.784,36.08Z" transform="translate(-35.858 -25.614)"/><path class="c" d="M115.544,40.545h-1.313l2.422-3.865-1.645-6.047h1.239l1.22,4.753,2.868-4.753h1.313Z" transform="translate(-32.896 -25.528)"/><path class="c" d="M119.225,35.984l.628-3.5h-.961l.167-.869H120l.387-2.108,1.313-.224-.425,2.332H122.9l-.167.869H121.13l-.628,3.5c-.149.777.055,1.239.647,1.239a1.4,1.4,0,0,0,.831-.278l.186.628a2.269,2.269,0,0,1-1.424.482C119.725,38.056,118.967,37.407,119.225,35.984Z" transform="translate(-29.471 -26.516)"/><path class="c" d="M126.092,38.117c0-1.036.63-2.292.63-3.457,0-.647-.3-1.036-.944-1.036-.852,0-2.182.869-2.535,2.847l-.461,2.59h-1.277l1.96-11.1,1.313-.222-1.109,6.325a3.24,3.24,0,0,1,2.552-1.516A1.688,1.688,0,0,1,128,34.4c0,1.332-.63,2.59-.63,3.607a.351.351,0,0,0,.352.389,2.04,2.04,0,0,0,.536-.111v.555a2.074,2.074,0,0,1-1.128.352A1.011,1.011,0,0,1,126.092,38.117Z" transform="translate(-27.551 -27.651)"/><path class="c" d="M126.327,37.537c0-1.036.834-3.329.834-4.346a.352.352,0,0,0-.352-.389,2.112,2.112,0,0,0-.536.111v-.553a2.064,2.064,0,0,1,1.128-.352,1.01,1.01,0,0,1,1.036,1.072c0,1.036-.833,3.329-.833,4.346a.351.351,0,0,0,.352.389,2.055,2.055,0,0,0,.536-.111v.555a2.078,2.078,0,0,1-1.128.352A1.012,1.012,0,0,1,126.327,37.537Zm1.443-8.23a.909.909,0,0,1,.869-.775.676.676,0,0,1,.685.775.909.909,0,0,1-.869.777A.676.676,0,0,1,127.77,29.307Z" transform="translate(-24.048 -27.071)"/><path class="c" d="M133.046,36.08c0-1.036.63-2.292.63-3.457,0-.647-.3-1.036-.945-1.036-.85,0-2.181.869-2.533,2.847l-.461,2.59h-1.277l.888-5.012c.075-.461-.036-.666-.314-.666a2.112,2.112,0,0,0-.536.111V30.9a2.184,2.184,0,0,1,1.164-.352c.7,0,1.147.517.963,1.48a3.237,3.237,0,0,1,2.552-1.516,1.688,1.688,0,0,1,1.775,1.848c0,1.332-.628,2.59-.628,3.607a.35.35,0,0,0,.35.389,2.04,2.04,0,0,0,.536-.111V36.8a2.079,2.079,0,0,1-1.128.352A1.01,1.01,0,0,1,133.046,36.08Z" transform="translate(-22.441 -25.614)"/><path class="c" d="M133.066,40.186v-1.11a3.832,3.832,0,0,0,2.165.63c1.239,0,1.886-.685,2.146-2.443l.128-.85a3.131,3.131,0,0,1-1.96.777c-1.849,0-2.663-1.591-2.332-3.421a3.916,3.916,0,0,1,3.81-3.254,2.643,2.643,0,0,1,1.629.536l.406-.5h.8l-1.221,6.769c-.461,2.569-1.516,3.44-3.494,3.44A4.464,4.464,0,0,1,133.066,40.186Zm4.772-5.6.481-2.646a2.039,2.039,0,0,0-1.369-.461,2.649,2.649,0,0,0-2.46,2.385c-.239,1.294.2,2.368,1.461,2.368A2.01,2.01,0,0,0,137.838,34.583Z" transform="translate(-19.056 -25.614)"/></g></g></svg>