<svg xmlns="http://www.w3.org/2000/svg" viewBox="0 0 15.3 15.3"><defs><style>.cls-1{fill:#414142;}</style></defs><title>Date</title><g id="Layer_2" data-name="Layer 2"><g id="Layer_1-2" data-name="Layer 1"><path class="cls-1" d="M10.84,0h1.91V1.27h1a1.52,1.52,0,0,1,1.11.48,1.53,1.53,0,0,1,.48,1.12V13.71a1.64,1.64,0,0,1-1.59,1.59H1.59a1.52,1.52,0,0,1-1.11-.48A1.52,1.52,0,0,1,0,13.71V2.87A1.53,1.53,0,0,1,.48,1.75a1.52,1.52,0,0,1,1.11-.48h1V0H4.46V1.27h6.38Zm2.87,13.71V5.26H1.59v8.45Zm-1.6-5.42v3.82H8.29V8.29Z"/></g></g></svg>