<svg xmlns="http://www.w3.org/2000/svg" viewBox="0 0 30.97 30.97"><defs><style>.default-avatar-icon{fill:#b0dfe5;stroke:#b1e0e6;stroke-miterlimit:10;stroke-width:0.97px;}</style></defs><title>GenProfile.Sm</title><g id="Layer_2" data-name="Layer 2"><g id="Navigation_Symbol" data-name="Navigation Symbol"><g id="Layer_2-2" data-name="Layer 2"><g id="canvas"><path id="default-avatar-icon" class="default-avatar-icon" d="M15.48,16.23A5.49,5.49,0,1,0,10,10.74h0A5.5,5.5,0,0,0,15.48,16.23Zm0-9.49a4,4,0,1,1-4,4h0A4,4,0,0,1,15.48,6.75Z"/><path id="default-avatar-icon" class="default-avatar-icon" d="M15.48.48a15,15,0,1,0,15,15A15,15,0,0,0,15.48.48Zm0,1.5A13.5,13.5,0,0,1,26.25,23.64a7.78,7.78,0,0,0-7.6-6.15H12.32a7.78,7.78,0,0,0-7.59,6.15A13.5,13.5,0,0,1,15.48,2ZM6,25.14A6.28,6.28,0,0,1,12.32,19h6.34a6.28,6.28,0,0,1,6.27,6.16,13.5,13.5,0,0,1-18.87,0Z"/></g></g></g></g></svg>
