<svg xmlns="http://www.w3.org/2000/svg" viewBox="0 0 60.69 36.7"><defs><style>.cls-1{fill:#257a91;}</style></defs><title>Device</title><g id="Layer_2" data-name="Layer 2"><g id="canvas"><path class="cls-1" d="M6.22,0a.71.71,0,0,0-.57.71V31.05H.57a.71.71,0,0,0-.57.71V36a.71.71,0,0,0,.71.71H60a.71.71,0,0,0,.71-.71V4.94A.71.71,0,0,0,60,4.24H55V.71A.71.71,0,0,0,54.34,0H6.22Zm.84,1.41H53.63V4.24H7.06Zm21.68.71a.71.71,0,1,0,.2,1.41h2.82a.71.71,0,0,0,0-1.41h-3ZM7.06,5.65H42.34V31.05H7.06Zm36.7,0H59.28V7.77H43.75Zm0,3.53H59.28V29.64H43.75Zm0,21.88H59.28v4.23H43.75ZM1.41,32.47H42.34v2.82H1.41Zm46.38,0a.71.71,0,1,0,.2,1.41H55a.71.71,0,1,0,0-1.41H47.79Z"/></g></g></svg>