<svg xmlns="http://www.w3.org/2000/svg" viewBox="0 0 17.12 16.96"><title>DiscountCode</title><g id="Layer_2" data-name="Layer 2"><g id="Layer_1-2" data-name="Layer 1"><g id="CAT:_Build:_Settings_2" data-name="CAT: Build: Settings 2"><g id="CAT:_Build:_Settings_4" data-name="CAT: Build: Settings 4"><path d="M0,4.2A3.74,3.74,0,0,1,.31,2.68,4,4,0,0,1,2.38.62,3.75,3.75,0,0,1,3.89.31,3.75,3.75,0,0,1,5.41.62,4,4,0,0,1,7.48,2.68,3.75,3.75,0,0,1,7.79,4.2a3.75,3.75,0,0,1-.31,1.52A4,4,0,0,1,5.41,7.79a3.74,3.74,0,0,1-1.52.31,3.74,3.74,0,0,1-1.52-.31A4,4,0,0,1,.31,5.72,3.74,3.74,0,0,1,0,4.2Zm1.72,0A2.14,2.14,0,0,0,3.89,6.38,2.14,2.14,0,0,0,6.07,4.2,2.14,2.14,0,0,0,3.89,2,2.14,2.14,0,0,0,1.72,4.2ZM4.36,17,3,16.28,12.83,0l1.32.68Zm5-4.18a3.74,3.74,0,0,1,.31-1.52A4,4,0,0,1,11.7,9.2a3.89,3.89,0,0,1,3,0,4,4,0,0,1,2.07,2.07,3.89,3.89,0,0,1,0,3,4,4,0,0,1-2.07,2.07,3.89,3.89,0,0,1-3,0A4,4,0,0,1,9.64,14.3,3.74,3.74,0,0,1,9.33,12.78Zm1.72,0a2.19,2.19,0,0,0,3.73,1.55,2.19,2.19,0,0,0-3.1-3.1A2.11,2.11,0,0,0,11,12.78Z"/></g></g></g></g></svg>
