<svg xmlns="http://www.w3.org/2000/svg" xmlns:xlink="http://www.w3.org/1999/xlink" viewBox="0 0 30 28.35"><defs><style>.cls-1{fill:#eee2ba;}.cls-2{fill:#f3e8c7;}.cls-3{fill:url(#radial-gradient);}.cls-4{fill:#071923;}</style><radialGradient id="radial-gradient" cx="4515.64" cy="-2653.5" r="2.64" gradientTransform="translate(-3339.91 1878) scale(0.74 0.7)" gradientUnits="userSpaceOnUse"><stop offset="0.01" stop-color="#ffede0"/><stop offset="0.11" stop-color="#fee8d7"/><stop offset="0.28" stop-color="#fddabf"/><stop offset="0.49" stop-color="#fbc497"/><stop offset="0.74" stop-color="#f8a460"/><stop offset="1" stop-color="#f48020"/></radialGradient></defs><title>Discover</title><g id="Layer_2" data-name="Layer 2"><g id="canvas"><path class="cls-1" d="M30,23.92a4.56,4.56,0,0,1-4.69,4.43H4.69A4.56,4.56,0,0,1,0,23.92V4.43A4.56,4.56,0,0,1,4.69,0H25.31A4.56,4.56,0,0,1,30,4.43Z"/><path class="cls-2" d="M28.59,1.27,1.34,27a4.81,4.81,0,0,0,3.35,1.33H25.31A4.56,4.56,0,0,0,30,23.92V4.43A4.3,4.3,0,0,0,28.59,1.27Z"/><path class="cls-3" d="M15.67,12.34a1.91,1.91,0,0,0-2,1.81,1.88,1.88,0,0,0,2,1.86,1.84,1.84,0,1,0,0-3.67Z"/><path class="cls-4" d="M4.37,12.41H3.3v3.53H4.37a2,2,0,0,0,1.33-.41,1.74,1.74,0,0,0,.68-1.35A1.81,1.81,0,0,0,4.37,12.41Zm.85,2.65a1.43,1.43,0,0,1-1,.28H4V13h.2a1.4,1.4,0,0,1,1,.29,1.16,1.16,0,0,1,.4.88A1.18,1.18,0,0,1,5.22,15.06Z"/><rect class="cls-4" x="6.71" y="12.41" width="0.73" height="3.53"/><path class="cls-4" d="M9.22,13.76c-.44-.15-.57-.25-.57-.44s.23-.39.54-.39a.77.77,0,0,1,.59.28l.38-.47a1.69,1.69,0,0,0-1.1-.39,1.07,1.07,0,0,0-1.16,1c0,.49.23.74.92,1a2.88,2.88,0,0,1,.5.2.42.42,0,0,1,.22.36.52.52,0,0,1-.57.5.87.87,0,0,1-.79-.47l-.47.43A1.47,1.47,0,0,0,9,16a1.18,1.18,0,0,0,1.29-1.16C10.29,14.3,10,14,9.22,13.76Z"/><path class="cls-4" d="M10.52,14.17a1.88,1.88,0,0,0,2,1.84,2.1,2.1,0,0,0,.91-.21V15a1.22,1.22,0,1,1-.91-2,1.25,1.25,0,0,1,.91.4v-.81a1.94,1.94,0,0,0-.9-.22A1.91,1.91,0,0,0,10.52,14.17Z"/><polygon class="cls-4" points="19.3 14.78 18.3 12.41 17.51 12.41 19.09 16.02 19.48 16.02 21.1 12.41 20.31 12.41 19.3 14.78"/><polygon class="cls-4" points="21.43 15.94 23.49 15.94 23.49 15.34 22.15 15.34 22.15 14.38 23.44 14.38 23.44 13.79 22.15 13.79 22.15 13.01 23.49 13.01 23.49 12.41 21.43 12.41 21.43 15.94"/><path class="cls-4" d="M26.37,13.45c0-.66-.48-1-1.32-1H24v3.53h.73V14.52h.1l1,1.42h.9l-1.18-1.49A1,1,0,0,0,26.37,13.45ZM24.91,14H24.7V13h.22c.45,0,.7.18.7.52S25.38,14,24.91,14Z"/></g></g></svg>