<svg xmlns="http://www.w3.org/2000/svg" width="18" height="18" viewBox="0 0 18 18"><defs><style>.download-a{fill:#cecfd2;}</style></defs><path class="download-a" d="M-1002,756.4c0,.88-.612,1.6-1.9,1.6h-14.5a1.6,1.6,0,0,1-1.6-1.6v-5.8a1.6,1.6,0,0,1,1.7-1.6h1.006a.894.894,0,0,1,.894.894v.013a.894.894,0,0,1-.894.894h-.013a.894.894,0,0,0-.894.894v3.613a.894.894,0,0,0,.894.894h12.613a.894.894,0,0,0,.894-.894v-3.613a.894.894,0,0,0-.894-.894h-.013a.894.894,0,0,1-.894-.894v-.013a.894.894,0,0,1,.894-.894h1.106a1.6,1.6,0,0,1,1.6,1.6v5.8Zm-5.153-10.394,0,0a.9.9,0,0,0-1.267-.045l-.919.861a.45.45,0,0,1-.758-.329V740.9a.9.9,0,0,0-.9-.9h0a.9.9,0,0,0-.9.9v5.577a.45.45,0,0,1-.76.326l-.877-.836a.893.893,0,0,0-1.269.036h0a.893.893,0,0,0,.039,1.261l2.563,2.42a1.8,1.8,0,0,0,2.478-.006l2.534-2.417A.9.9,0,0,0-1007.153,746.006Z" transform="translate(1020 -740)"/></svg>
