<svg xmlns="http://www.w3.org/2000/svg" viewBox="0 0 41.14 39.7"><defs><style>.cls-1{fill:#e8e8e8;}.cls-2{fill:#fff;}</style></defs><title>DragandDrop</title><g id="Layer_2" data-name="Layer 2"><g id="Layer_1-2" data-name="Layer 1"><path class="cls-1" d="M31.54,35.89a3.3,3.3,0,0,1-.82-.11L7.43,29.18a3,3,0,0,1-2.07-3.71L12,2.18A3,3,0,0,1,13.39.38,3,3,0,0,1,15.67.12L39,6.72A3,3,0,0,1,41,10.42l-6.6,23.29A2.94,2.94,0,0,1,33,35.51,3.06,3.06,0,0,1,31.54,35.89Zm-.27-2a.94.94,0,0,0,.75-.09,1,1,0,0,0,.48-.6L39.1,9.87a1,1,0,0,0-.69-1.23L15.12,2a1,1,0,0,0-1.23.69L7.29,26A1,1,0,0,0,8,27.25Z"/><rect class="cls-2" x="1" y="10.5" width="28.21" height="28.21" rx="2" ry="2"/><path class="cls-1" d="M27.21,39.7H3a3,3,0,0,1-3-3V12.5a3,3,0,0,1,3-3H27.21a3,3,0,0,1,3,3V36.7A3,3,0,0,1,27.21,39.7ZM3,11.5a1,1,0,0,0-1,1V36.7a1,1,0,0,0,1,1H27.21a1,1,0,0,0,1-1V12.5a1,1,0,0,0-1-1Z"/></g></g></svg>