<svg xmlns="http://www.w3.org/2000/svg" viewBox="0 0 30.99 30.99"><defs><style>.cls-1{fill:#fff;}</style></defs><title>EditView</title><g id="Layer_2" data-name="Layer 2"><g id="Notes_Withdrawal" data-name="Notes Withdrawal"><path class="cls-1" d="M24.68.46,7.53,17.63h0a.8.8,0,0,0-.18.27h0l-3,7.46a1,1,0,0,0,.54,1.25.9.9,0,0,0,.72,0l7.45-3h0a1.08,1.08,0,0,0,.29-.18h0L30.53,6.31a1,1,0,0,0,0-1.36L26.05.46a1,1,0,0,0-1.37,0ZM7,24l1.6-4,1.2,1.2,1.2,1.2Zm5.73-2.62-1.55-1.55L9.59,18.31,25.36,2.52l3.11,3.11Z"/><path class="cls-1" d="M30,13.56a1,1,0,0,0-1,1V29.05H1.94V1.94H16.46a1,1,0,0,0,0-1.94H1A1,1,0,0,0,0,1V30a1,1,0,0,0,1,1H30a1,1,0,0,0,1-1V14.53A1,1,0,0,0,30,13.56Z"/></g></g></svg>