<svg xmlns="http://www.w3.org/2000/svg" viewBox="0 0 95.08 89.59"><defs><style>.cls-1{fill:#eee;}</style></defs><title>EmptyCart</title><g id="Layer_2" data-name="Layer 2"><g id="Layer_1-2" data-name="Layer 1"><path id="shopping_cart_close_round-2" data-name="shopping cart close round-2" class="cls-1" d="M90.3,32.56H80.8L64.06,2.71C62.75.44,59.84-.77,57.56.54a5.53,5.53,0,0,0-1.73,7.13l14,24.89H25.25l14-25.1A5.27,5.27,0,0,0,37.52.54C35.24-.77,32.34.65,31,2.93L14.27,32.57H4.77c-5.68,0-7.57,9.5,1.59,9.5L13,81.65a9.51,9.51,0,0,0,9.37,7.94H72.75a9.52,9.52,0,0,0,9.38-7.94l6.6-39.58C97.88,42.07,96,32.56,90.3,32.56ZM73.48,76.22a4.74,4.74,0,0,1-4.67,3.86H26.35a4.75,4.75,0,0,1-4.68-4L16,42.07H80Zm-36-13.5,3.36-3.36L37.46,56a4.75,4.75,0,0,1,6.66-6.78l.06.06,3.36,3.36,3.36-3.36A4.75,4.75,0,0,1,57.62,56l-3.36,3.36,3.36,3.36a4.75,4.75,0,0,1-6.72,6.72l-3.36-3.36-3.36,3.36a4.75,4.75,0,0,1-6.72-6.72Z"/></g></g></svg>