<svg xmlns="http://www.w3.org/2000/svg" viewBox="0 0 15.04 12.83"><defs><style>.cls-1{fill:#414042;}</style></defs><title>eSignature</title><g id="Layer_2" data-name="Layer 2"><g id="Layer_1-2" data-name="Layer 1"><path class="cls-1" d="M15,11.34a1.6,1.6,0,0,0-.85-1.11,2.8,2.8,0,0,0-1.27-.31,7.67,7.67,0,0,0-2.95.57,3.27,3.27,0,0,1-2.09.22,2.35,2.35,0,0,1-.67-.29h.09a12.09,12.09,0,0,0,2.61-1.2,9.33,9.33,0,0,0,3-2.83,6.26,6.26,0,0,0,1-2,3.35,3.35,0,0,0,.07-1.51A3.49,3.49,0,0,0,12.12.42a3,3,0,0,0-3.07,0,7.21,7.21,0,0,0-1.39,1A10.1,10.1,0,0,0,5.08,5.28a8.16,8.16,0,0,0-.55,3.59v.39A29.79,29.79,0,0,1,0,9.42v1.75H1a23.24,23.24,0,0,0,4-.25.18.18,0,0,1,.18.08,3,3,0,0,0,1.06,1,4.77,4.77,0,0,0,3.79.3c.61-.2,1.23-.4,1.85-.57a2.26,2.26,0,0,1,1-.07c.4.08.44.15.45.49v.68H15A6.19,6.19,0,0,0,15,11.34ZM6.27,8.89v-.2a6.34,6.34,0,0,1,.3-2.16A8.43,8.43,0,0,1,9.69,2a1.55,1.55,0,0,1,1.63-.16,1.58,1.58,0,0,1,.92,1.3,2.14,2.14,0,0,1-.17,1,5.93,5.93,0,0,1-2,2.8A11,11,0,0,1,6.38,8.87Z"/></g></g></svg>