<svg xmlns="http://www.w3.org/2000/svg" viewBox="0 0 35.14 35.14"><defs><style>.cls-1{fill:#fff !important;}</style></defs><title>GrowlErrror</title><g id="Layer_2" data-name="Layer 2"><g id="canvas"><circle class="cls-1" cx="17.57" cy="17.57" r="17.57"/><path d="M9.39,3.61a15.94,15.94,0,0,1,8.18-2.18,15.94,15.94,0,0,1,8.18,2.18,16.23,16.23,0,0,1,5.93,5.93,15.94,15.94,0,0,1,2.19,8.18,15.93,15.93,0,0,1-2.19,8.18,16.21,16.21,0,0,1-5.93,5.93A15.93,15.93,0,0,1,17.57,34a15.93,15.93,0,0,1-8.18-2.19A16.21,16.21,0,0,1,3.46,25.9a15.93,15.93,0,0,1-2.19-8.18A15.93,15.93,0,0,1,3.46,9.54,16.22,16.22,0,0,1,9.39,3.61Zm10.85,17,.38-13.17A.42.42,0,0,0,20.41,7a.79.79,0,0,0-.51-.17H15.23a.79.79,0,0,0-.51.17.42.42,0,0,0-.21.38l.36,13.17a.46.46,0,0,0,.21.37.83.83,0,0,0,.51.16h3.92A.78.78,0,0,0,20,21,.54.54,0,0,0,20.24,20.58Zm0,7.3v-4a.69.69,0,0,0-.19-.5.62.62,0,0,0-.47-.2H15.55a.73.73,0,0,0-.7.7v4a.73.73,0,0,0,.7.7h4.07a.62.62,0,0,0,.47-.2A.69.69,0,0,0,20.28,27.88Z"/></g></g></svg>
