<svg xmlns="http://www.w3.org/2000/svg" width="25" height="25" viewBox="0 0 25 25"><defs><style>.a{fill:#1877f2;}.b{fill:#fff;}</style></defs><path class="a" d="M25,12.5A12.5,12.5,0,1,0,10.547,24.849V16.113H7.373V12.5h3.174V9.746c0-3.132,1.865-4.863,4.722-4.863a19.225,19.225,0,0,1,2.8.244V8.2H16.489a1.807,1.807,0,0,0-2.036,1.953V12.5H17.92l-.554,3.613H14.453v8.735A12.5,12.5,0,0,0,25,12.5Z"/><path class="b" d="M24.149,20.605l.554-3.613H21.236V14.648A1.807,1.807,0,0,1,23.272,12.7H24.85V9.619a19.225,19.225,0,0,0-2.8-.244c-2.856,0-4.722,1.731-4.722,4.863v2.754H14.156v3.613H17.33v8.735a12.677,12.677,0,0,0,3.906,0V20.605Z" transform="translate(-6.783 -4.492)"/></svg>