<svg xmlns="http://www.w3.org/2000/svg" width="17" height="18.562" viewBox="0 0 17 18.562"><defs><style>.a{fill:#373737;}</style></defs><path class="a" d="M12.6,3.091H17V4.636h-.433a.714.714,0,0,0-.392.2l-.185.433-.927,11.642a2.622,2.622,0,0,1-.072.865.776.776,0,0,1-.216.464.806.806,0,0,1-.5.258,6.793,6.793,0,0,1-.938.052H3.668a6.78,6.78,0,0,1-.938,0,.72.72,0,0,1-.67-.773,4.675,4.675,0,0,0-.072-.865L1.03,5.213a.8.8,0,0,0-.206-.433L.433,4.636H0V3.091H4.4V1.69A1.66,1.66,0,0,1,4.853.484,1.577,1.577,0,0,1,6.038,0h4.873a1.62,1.62,0,0,1,1.216.5A1.667,1.667,0,0,1,12.6,1.69ZM5.028,15.455h.958L5.5,6.182H4.472ZM5.409,1.69v1.4h6.182V1.69c0-.484-.309-.721-.917-.721h-4.4C5.7.969,5.409,1.205,5.409,1.69ZM9.036,15.455V6.182H8.005v9.273Zm2.988,0,.484-9.273h-.968l-.525,9.273Z" transform="translate(0 0.001)"/></svg>