<svg xmlns="http://www.w3.org/2000/svg" viewBox="0 0 100.1 95.79"><defs><style>.cls-1{fill:#9d9d9d;}.cls-2{fill:#f36d36;}.cls-3{fill:#fff;}</style></defs><title>FollowUpInvite</title><g id="Layer_2" data-name="Layer 2"><g id="canvas"><path class="cls-1" d="M87.89,1.58a5.11,5.11,0,0,1,1.58,3.74V79.7A5.39,5.39,0,0,1,84.16,85H20.4a5.39,5.39,0,0,1-5.31-5.31V5.31a5.1,5.1,0,0,1,1.58-3.74A5.11,5.11,0,0,1,20.4,0H84.16A5.12,5.12,0,0,1,87.89,1.58ZM20.4,79.7H31V5.31H20.4ZM84.16,5.31H36.34V79.7H84.16Zm-11,52.14q0,4.65-6.56,6.48a24,24,0,0,1-13.12,0Q47,62.1,47,57.45A20.31,20.31,0,0,1,50.78,45q3.82-5.14,9.3-5.15T69.38,45A20.32,20.32,0,0,1,73.2,57.45Zm-13.28-37a8.22,8.22,0,0,1,8.14,8.14,7.56,7.56,0,0,1-2.41,5.65,8,8,0,0,1-5.73,2.32,7.94,7.94,0,0,1-8-8V25.24l2.32-2.41A7.56,7.56,0,0,1,59.92,20.42Zm34.87.83h5.31V5.31H94.78Zm0,21.25h5.31V26.57H94.78Zm0,21.25h5.31V47.82H94.78Z"/></g><g id="Notes"><circle class="cls-2" cx="15.47" cy="80.32" r="15.47"/><path class="cls-3" d="M7.47,78.48h6.16V72.32h3.68v6.16h6.16v3.68H17.31v6.16H13.63V82.16H7.47Z"/></g></g></svg>