<?xml version="1.0" encoding="utf-8"?>
<!-- Generator: Adobe Illustrator 23.0.2, SVG Export Plug-In . SVG Version: 6.00 Build 0)  -->
<svg version="1.1" id="Layer_1" xmlns="http://www.w3.org/2000/svg" xmlns:xlink="http://www.w3.org/1999/xlink" x="0px" y="0px"
	 viewBox="0 0 25.6 28.2" style="enable-background:new 0 0 25.6 28.2;" xml:space="preserve">
<style type="text/css">
	.st1{fill:#FFFFFF;}
</style>
<title>AddForm</title>
<g>
	<g id="Layer_1-2">
		<circle cx="20.3" cy="22.8" r="5.4"/>
		<polygon class="st1" points="17.5,22.2 19.6,22.2 19.6,20 20.9,20 20.9,22.2 23,22.2 23,23.5 20.9,23.5 20.9,25.6 19.6,25.6
			19.6,23.5 17.5,23.5 		"/>
		<path d="M12.6,22.9c0,0,0-0.1,0-0.1h-11V3.2h3.3c0,0.4,0.2,0.8,0.5,1.1c0.3,0.3,0.7,0.5,1.1,0.5H13
			c0.4,0,0.8-0.2,1.1-0.5c0.3-0.3,0.5-0.7,0.5-1.1h3.2v12.1c0.5-0.2,1.1-0.3,1.6-0.4V3.2c0-0.4-0.2-0.8-0.5-1.1
			c-0.3-0.3-0.7-0.5-1.1-0.5H13c0-0.4-0.2-0.8-0.5-1.1C12.2,0.2,11.8,0,11.4,0H8.1C7.7,0,7.3,0.2,7,0.5C6.7,0.8,6.5,1.2,6.5,1.6H1.6
			c-0.4,0-0.8,0.2-1.1,0.5C0.2,2.4,0,2.8,0,3.2v21.1c0,0.4,0.2,0.8,0.5,1.1C0.8,25.8,1.2,26,1.6,26h11.6
			C12.8,25,12.6,23.9,12.6,22.9z"/>
		<path d="M3.5,14.4c0.2,0.2,0.4,0.2,0.6,0.2h11.4c0.4,0,0.8-0.4,0.8-0.8c0-0.4-0.4-0.8-0.8-0.8c0,0,0,0,0,0H4.1
			c-0.5,0-0.8,0.4-0.8,0.9C3.3,14.1,3.3,14.3,3.5,14.4L3.5,14.4z"/>
		<path d="M4.1,9.8h11.4c0.4,0,0.8-0.4,0.8-0.8c0-0.4-0.4-0.8-0.8-0.8c0,0,0,0,0,0H4.1c-0.5,0-0.8,0.4-0.8,0.8
			C3.2,9.4,3.6,9.8,4.1,9.8L4.1,9.8z"/>
		<path d="M3.5,19.3c0.2,0.2,0.4,0.2,0.6,0.2h9.3c0.3-0.6,0.6-1.1,1-1.6H4.1c-0.5,0-0.8,0.4-0.8,0.9
			C3.3,18.9,3.3,19.1,3.5,19.3L3.5,19.3z"/>
	</g>
</g>
</svg>
