<svg xmlns="http://www.w3.org/2000/svg" viewBox="0 0 23.93 31.07"><title>Form</title><g id="Layer_2" data-name="Layer 2"><g id="canvas"><path d="M7.42.14a2.15,2.15,0,0,0-2.1,2.1v.42H.7a.66.66,0,0,0-.7.7v27a.66.66,0,0,0,.7.7H23.23a.66.66,0,0,0,.7-.7V3.22a.66.66,0,0,0-.7-.7H18.61V2.1A2.15,2.15,0,0,0,16.51,0H7.42Zm0,1.4h9.1a.66.66,0,0,1,.7.7v2.1a.66.66,0,0,1-.7.7H7.42a.66.66,0,0,1-.7-.7V2.24A.66.66,0,0,1,7.42,1.54Zm-6,2.38H5.32v.42a2.15,2.15,0,0,0,2.1,2.1h9.1a2.15,2.15,0,0,0,2.1-2.1V3.92h3.92V29.67H1.4Zm2.8,7.84a.7.7,0,0,0,0,1.4H19.73a.7.7,0,0,0,0-1.4H4.2Zm0,6.3a.7.7,0,1,0,0,1.4H19.73a.7.7,0,0,0,0-1.4H4.2Zm0,6.3a.7.7,0,1,0,0,1.4H19.73a.7.7,0,0,0,0-1.4H4.2Z"/></g></g></svg>
