<svg xmlns="http://www.w3.org/2000/svg" viewBox="0 0 27.27 27.27"><defs><style>.cls-1{fill:none;stroke:#5e5e5e;stroke-miterlimit:10;stroke-width:0.5px;}.cls-2{fill:#231f20;}</style></defs><title>ForwardCircleArrow.InActive</title><g id="Layer_2" data-name="Layer 2"><g id="Layer_1-2" data-name="Layer 1"><circle class="cls-1" cx="13.63" cy="13.63" r="13.38"/><path class="cls-2" d="M16.35,13.63a.29.29,0,0,1-.09.22L11.91,18.2a.31.31,0,0,1-.22.09.29.29,0,0,1-.21-.09L11,17.73a.29.29,0,0,1-.09-.21A.33.33,0,0,1,11,17.3l3.67-3.67L11,10a.33.33,0,0,1-.09-.22A.29.29,0,0,1,11,9.54l.47-.47A.29.29,0,0,1,11.69,9a.31.31,0,0,1,.22.09l4.35,4.35A.29.29,0,0,1,16.35,13.63Z"/></g></g></svg>