<svg xmlns="http://www.w3.org/2000/svg" width="16" height="16" viewBox="0 0 16 16"><defs><style>.a{fill:#d3d3d3;}</style></defs><path class="a" d="M32.046-73.952a8,8,0,0,0-8,8,8,8,0,0,0,8,8,8.007,8.007,0,0,0,8-8A8,8,0,0,0,32.046-73.952Zm.809,12.8H31.237v-1.614h1.618Zm-.008-2.423h-1.6c0-2.574,2.4-2.391,2.4-3.989a1.611,1.611,0,0,0-1.6-1.606,1.621,1.621,0,0,0-1.6,1.6h-1.6a3.191,3.191,0,0,1,3.2-3.192,3.194,3.194,0,0,1,3.2,3.2C35.246-65.563,32.847-65.336,32.847-63.571Z" transform="translate(-24.048 73.952)"/></svg>