<svg xmlns="http://www.w3.org/2000/svg" viewBox="0 0 32 32"><defs><style>.cls-1{fill:#007c94;}.cls-2{fill:#fff;}</style></defs><title>HomePage</title><g id="Layer_2" data-name="Layer 2"><g id="Layer_1-2" data-name="Layer 1"><path class="cls-1" d="M16,0A16,16,0,1,0,32,16,16,16,0,0,0,16,0Z"/><path class="cls-2" d="M16.48,6a.81.81,0,0,0-1,0L5.82,13.26a.81.81,0,1,0,1,1.29l1.13-.85V22a.81.81,0,0,0,.81.81H23.27a.81.81,0,0,0,.81-.81V13.71l1.13.85a.81.81,0,0,0,1-1.29Zm6,15.18h-4V15.53H13.58v5.65h-4V12.5L16,7.65l6.46,4.85Z"/></g></g></svg>