<svg xmlns="http://www.w3.org/2000/svg" viewBox="0 0 32.22 24.25"><defs><style>.cls-1{fill:#414142;}</style></defs><title>Images</title><g id="Layer_2" data-name="Layer 2"><g id="Layer_1-2" data-name="Layer 1"><path class="cls-1" d="M3.54,24.25C1.34,24.25.08,23.07.07,21L0,7.15C0,5.76.58,4.1,3.4,4.09l8.29,0,1.76-2.37A3.24,3.24,0,0,1,16.05,0l6.66,0h0a3.28,3.28,0,0,1,2.62,1.65L26.52,4h2.13c2.93,0,3.5,1.64,3.51,3l.06,13.85a3.17,3.17,0,0,1-.78,2.29,3.51,3.51,0,0,1-2.69,1l-25.18.12ZM22.72,1.5h0l-6.67,0c-.61,0-1.12.63-1.37,1l-2.23,3-9,0c-1.77,0-1.91.77-1.91,1.56L1.57,21c0,1.24.57,1.78,2,1.76l25.18-.12a2.1,2.1,0,0,0,1.6-.51,1.73,1.73,0,0,0,.38-1.26L30.66,7c0-.81-.16-1.54-2-1.54H25.61L24.05,2.41A1.89,1.89,0,0,0,22.72,1.5Z"/><path class="cls-1" d="M19.42,19.85a7,7,0,0,1-1.2-.11,6.43,6.43,0,1,1,7.52-7.6h0a6.43,6.43,0,0,1-6.32,7.71Zm0-11.34a4.93,4.93,0,0,0-4.82,5.91,4.92,4.92,0,1,0,5.77-5.83A6.19,6.19,0,0,0,19.44,8.51Z"/></g></g></svg>