<svg xmlns="http://www.w3.org/2000/svg" viewBox="0 0 110.57 110.64"><defs><style>.cls-1{fill:#fff;}</style></defs><title>ImagePlaceholder</title><g id="Layer_2" data-name="Layer 2"><g id="Layer_1-2" data-name="Layer 1"><path class="cls-1" d="M97.58,0H63.42a13.6,13.6,0,0,0-9.68,4L3.94,53.87A13.56,13.56,0,0,0,3.94,73l33.7,33.71a13.54,13.54,0,0,0,19.12,0l5.35-5.36a2.48,2.48,0,0,0-3.25-3.74l-.06.06-.2.17-5.41,5.28a8.6,8.6,0,0,1-12.12,0L7.37,69.39a8.58,8.58,0,0,1,0-12.13L57.29,7.47A8.43,8.43,0,0,1,63.42,5H97.56a7.93,7.93,0,0,1,7.93,7.93h0V47.05a8.53,8.53,0,0,1-2.42,6.18l-4.92,4.92a2.5,2.5,0,0,0,3.34,3.71l.19-.2,4.92-4.92a13.62,13.62,0,0,0,4-9.65V13A13,13,0,0,0,97.62,0Z"/><path class="cls-1" d="M95.52,26.13A11.19,11.19,0,1,0,84.34,37.31h0A11.22,11.22,0,0,0,95.52,26.13Zm-17.41,0a6.23,6.23,0,1,1,6.25,6.21h0a6.23,6.23,0,0,1-6.17-6.21Z"/><path class="cls-1" d="M86.24,64.87A21.12,21.12,0,1,0,107.35,86,21.13,21.13,0,0,0,86.24,64.87ZM97.12,88.51H88.76v8.4h-5V88.49H75.31v-5h8.41V75.08h5v8.41h8.36Z"/></g></g></svg>