<svg xmlns="http://www.w3.org/2000/svg" viewBox="0 0 24.26 21.23"><title>InternalMarketplace</title><g id="Layer_2" data-name="Layer 2"><g id="Layer_1-2" data-name="Layer 1"><path d="M20.66,10.62a3.55,3.55,0,0,1-2.84-1.47,3.49,3.49,0,0,1-5.69,0,3.48,3.48,0,0,1-5.68,0A3.55,3.55,0,0,1,3.6,10.62,3.71,3.71,0,0,1,0,6.82a1.1,1.1,0,0,1,0-.18L1.54.57A.76.76,0,0,1,2.27,0H22a.77.77,0,0,1,.74.57l1.51,6.07a.55.55,0,0,1,0,.18A3.71,3.71,0,0,1,20.66,10.62ZM17.82,6.07a.76.76,0,0,1,.76.75,2.09,2.09,0,1,0,4.17.09L21.4,1.52H2.87L1.52,6.91A2.18,2.18,0,0,0,3.6,9.1,2.19,2.19,0,0,0,5.69,6.82a.76.76,0,0,1,1.51,0A2.19,2.19,0,0,0,9.29,9.1a2.19,2.19,0,0,0,2.08-2.28.76.76,0,0,1,1.52,0A2.19,2.19,0,0,0,15,9.1a2.19,2.19,0,0,0,2.08-2.28A.76.76,0,0,1,17.82,6.07Z"/><path d="M9.86,21.23H2.27a.76.76,0,0,1-.75-.76v-11A.76.76,0,1,1,3,9.51v10.2H9.86a.76.76,0,0,1,0,1.52Z"/><path d="M22,21.23H14.41a.76.76,0,1,1,0-1.52h6.82V9.51a.76.76,0,1,1,1.52,0v11A.76.76,0,0,1,22,21.23Z"/><path d="M14.41,21.23a.76.76,0,0,1-.76-.76v-5.3h-3v5.3a.76.76,0,1,1-1.52,0V14.41a.76.76,0,0,1,.76-.76h4.55a.76.76,0,0,1,.76.76v6.06A.76.76,0,0,1,14.41,21.23Z"/></g></g></svg>
