<svg xmlns="http://www.w3.org/2000/svg" viewBox="0 0 25.94 18.86"><title>Invited</title><g id="Layer_2" data-name="Layer 2"><g id="Layer_1-2" data-name="Layer 1"><path d="M16.37,3.39A3.39,3.39,0,1,0,13,6.75,3.39,3.39,0,0,0,16.37,3.39Zm-5.68,0A2.3,2.3,0,1,1,13,5.68,2.29,2.29,0,0,1,10.69,3.39Z"/><path d="M25.94,12.08A4.09,4.09,0,0,0,21.84,8H19.68A4.11,4.11,0,0,0,16.86,9.1,4.14,4.14,0,0,0,14,8H11.89A4.14,4.14,0,0,0,9.07,9.1,4.11,4.11,0,0,0,6.26,8H4.1A4.09,4.09,0,0,0,0,12.08v4.86H7.76v1.91H18.12V16.94h7.76V12.08ZM1.12,15.85V12.08a3,3,0,0,1,3-3H6.29a3.12,3.12,0,0,1,2.13.87,4,4,0,0,0-.6,2.13v3.77Zm15.93,1.91H8.91V12.08a3,3,0,0,1,3-3h2.16a3,3,0,0,1,3,3v5.68Zm7.79-1.91h-6.7V12.08a4,4,0,0,0-.6-2.13,3,3,0,0,1,2.13-.87h2.16a3,3,0,0,1,3,3Z"/><path d="M24.13,3.39A3.39,3.39,0,0,0,20.74,0a3.35,3.35,0,0,0-3.36,3.39,3.38,3.38,0,1,0,6.75,0Zm-5.66,0a2.3,2.3,0,1,1,2.3,2.3A2.29,2.29,0,0,1,18.48,3.39Z"/><path d="M8.58,3.39A3.39,3.39,0,0,0,5.19,0,3.35,3.35,0,0,0,1.83,3.39a3.38,3.38,0,1,0,6.75,0Zm-5.66,0a2.3,2.3,0,1,1,2.3,2.3A2.29,2.29,0,0,1,2.92,3.39Z"/></g></g></svg>
