<svg xmlns="http://www.w3.org/2000/svg" viewBox="0 0 30 30"><defs><style>.cls-1{fill:#414142;}</style></defs><title>ItemDetails</title><g id="Layer_2" data-name="Layer 2"><g id="Layer_1-2" data-name="Layer 1"><path class="cls-1" d="M16.84,27.48l-1.45,1.45a3.68,3.68,0,0,1-5.19,0L1.07,19.81a3.69,3.69,0,0,1,0-5.2L14.61,1.08A3.63,3.63,0,0,1,17.23,0h9.25A3.5,3.5,0,0,1,30,3.51l0,9.26a3.65,3.65,0,0,1-1.08,2.62l-1.33,1.33Zm9.8-11.71L28,14.44a2.32,2.32,0,0,0,.68-1.66V3.51a2.18,2.18,0,0,0-2.16-2.16H17.23A2.27,2.27,0,0,0,15.56,2L2,15.56a2.33,2.33,0,0,0,0,3.29L11.15,28a2.33,2.33,0,0,0,3.29,0l1.45-1.45ZM22.9,10.12a3,3,0,1,1,3-3A3,3,0,0,1,22.9,10.12Zm0-1.35a1.69,1.69,0,1,0-1.68-1.68A1.69,1.69,0,0,0,22.9,8.77Z"/></g></g></svg>