<svg xmlns="http://www.w3.org/2000/svg" viewBox="0 0 33.74 29.8"><defs><style>.cls-1{fill:#414142;}</style></defs><title>ItemQuestions</title><g id="Layer_2" data-name="Layer 2"><g id="Layer_1-2" data-name="Layer 1"><path class="cls-1" d="M3.48,29.8a1.69,1.69,0,0,1-1.59-1,1.68,1.68,0,0,1,.25-1.9A19.05,19.05,0,0,0,4.4,23.41,12.34,12.34,0,0,1,5,4,18.24,18.24,0,0,1,16.87,0,18.24,18.24,0,0,1,28.74,4a12.45,12.45,0,0,1,5,9.91,12.55,12.55,0,0,1-5,9.94A18.15,18.15,0,0,1,16.87,28a31.86,31.86,0,0,1-5.06-.47A16.68,16.68,0,0,1,3.48,29.8ZM16.87,1.5A16.8,16.8,0,0,0,6,5.2,10.88,10.88,0,0,0,5.8,22.64l.44.37L6,23.53a20.83,20.83,0,0,1-2.7,4.35l0,0c-.11.13-.09.16,0,.25s.11.15.25.15a15.33,15.33,0,0,0,7.81-2.24l.23-.14.27,0a31.73,31.73,0,0,0,5.08.49,16.61,16.61,0,0,0,10.91-3.73,10.85,10.85,0,0,0,0-17.53A16.8,16.8,0,0,0,16.87,1.5Z"/><path class="cls-1" d="M15.79,17.19V16.06a3.89,3.89,0,0,1,.07-.83,2.14,2.14,0,0,1,.62-1.12l.62-.6.6-.56a6,6,0,0,0,.53-.6,3.59,3.59,0,0,0,.4-.64,1.93,1.93,0,0,0,.16-.77,2,2,0,0,0-.16-.79,1.94,1.94,0,0,0-.42-.62,1.92,1.92,0,0,0-.62-.41A2.14,2.14,0,0,0,16.83,9a2,2,0,0,0-1.48.57,2.48,2.48,0,0,0-.67,1.5l-1.89-.19a3.91,3.91,0,0,1,1.34-2.52,4.15,4.15,0,0,1,2.73-.92,4.65,4.65,0,0,1,1.46.23,3.54,3.54,0,0,1,1.17.67,3.14,3.14,0,0,1,.79,1.07,3.54,3.54,0,0,1,.28,1.45,3.4,3.4,0,0,1-.2,1.24,4.1,4.1,0,0,1-.57,1l-1.11,1.14-.19.17-.47.47a1.76,1.76,0,0,0-.28.41,1.72,1.72,0,0,0-.14.47,5.79,5.79,0,0,0,0,.65v.81Zm-.35,2.56a1.23,1.23,0,1,1,.36.86A1.18,1.18,0,0,1,15.44,19.75Z"/></g></g></svg>