<svg xmlns="http://www.w3.org/2000/svg" viewBox="0 0 135.72 146.12"><defs><style>.cls-1{fill:#fff;}.cls-2{fill:none;}</style></defs><title>ImagePlaceholder</title><g id="Layer_2" data-name="Layer 2"><g id="Layer_1-2" data-name="Layer 1"><g id="Image_Placeholder_1" data-name="Image Placeholder 1"><path id="Compound_Path" data-name="Compound Path" class="cls-1" d="M106.58,83.83V37.36a3.12,3.12,0,0,0-3.17-3.07H84.15V23.14C84.15,10.36,73.47,0,60.29,0S36.43,10.36,36.43,23.14V34.29H17.17A3.12,3.12,0,0,0,14,37.36v82.51a12.5,12.5,0,0,0,12.68,12.3H76.81a32.69,32.69,0,0,0,38.11,11.92,31.1,31.1,0,0,0,20.54-33.35c-2-14.4-14-25.56-28.88-26.91ZM42.78,23.14a17.52,17.52,0,0,1,35,0V34.29h-35ZM26.68,126a6.24,6.24,0,0,1-6.34-6.15V40.44H36.43V56.58a3.17,3.17,0,0,0,6.34,0V40.44h35V56.58a3.17,3.17,0,0,0,6.34,0V40.44h16.09V83.83a32.2,32.2,0,0,0-24.1,14.69A30.27,30.27,0,0,0,73.56,126Zm76.9,14c-14.26,0-25.82-11.22-25.82-25s11.56-25,25.82-25,25.82,11.21,25.82,25-11.57,25-25.82,25Z"/><path id="Path" class="cls-1" d="M113.62,112.72H105.8V104.9a2.73,2.73,0,0,0-5.46-.1v7.92H92.53a2.73,2.73,0,0,0,0,5.45h7.82V126a2.73,2.73,0,0,0,5.45.1v-7.92h7.82a2.73,2.73,0,0,0,0-5.45Z"/><ellipse id="Ellipse_204" data-name="Ellipse 204" class="cls-2" cx="14" cy="113.01" rx="14" ry="18.5"/></g></g></g></svg>