<svg xmlns="http://www.w3.org/2000/svg" viewBox="0 0 18.04 22.2"><title>Items.Small</title><g id="Layer_2" data-name="Layer 2"><g id="Layer_1-2" data-name="Layer 1"><path d="M17.86.2a.72.72,0,0,1,.17.5V12.23a1.1,1.1,0,0,1-.39.74L8.8,21.81a1.41,1.41,0,0,1-2,0L.39,15.35a1.41,1.41,0,0,1,0-2l1.13-1.08L.39,11.19a1.41,1.41,0,0,1,0-2L9.24.39A1.09,1.09,0,0,1,10,0h7.41A.6.6,0,0,1,17.86.2ZM16.65,1.39H10.23a.13.13,0,0,1-.09,0l-8.76,8.8,6.46,6.42,8.8-8.8V1.39Zm0,8.41L8.8,17.65a1.42,1.42,0,0,1-2,0L2.47,13.27,1.39,14.4l6.46,6.42,8.8-8.8V9.8Zm-2.06-7a.67.67,0,0,1,.67.67.72.72,0,0,1-.2.5.61.61,0,0,1-.48.22.68.68,0,0,1-.5-.22.68.68,0,0,1-.22-.5A.62.62,0,0,1,14.09,3,.72.72,0,0,1,14.59,2.77Z"/></g></g></svg>
