<svg xmlns="http://www.w3.org/2000/svg" viewBox="0 0 20.13 20.13"><defs><style>.cls-1{fill:#414142;}</style></defs><title>LargerCloseX</title><g id="Layer_2" data-name="Layer 2"><g id="Layer_1-2" data-name="Layer 1"><path class="cls-1" d="M.53,17.71l7.56-7.64L.53,2.42A1.18,1.18,0,0,1,.48.48,1.19,1.19,0,0,1,2.42.53l7.65,7.56L17.71.53A1.19,1.19,0,0,1,19.65.48a1.18,1.18,0,0,1,0,1.94L12,10.07l7.56,7.64a1.18,1.18,0,0,1,0,1.94,1.18,1.18,0,0,1-1.94,0L10.07,12,2.42,19.6a1.18,1.18,0,0,1-1.94,0A1.18,1.18,0,0,1,.53,17.71Z"/></g></g></svg>