<svg xmlns="http://www.w3.org/2000/svg" width="25" height="25" viewBox="0 0 25 25"><defs><style>.a{fill:#0077b5;}.b{fill:#fff;fill-rule:evenodd;}</style></defs><path class="a" d="M0,12.5A12.5,12.5,0,1,1,12.5,25,12.5,12.5,0,0,1,0,12.5Z"/><path class="b" d="M14.38,13.474a1.477,1.477,0,0,1-1.6,1.475h-.018A1.478,1.478,0,1,1,12.8,12,1.471,1.471,0,0,1,14.38,13.474Zm-.186,2.64v8.533H11.367V16.113Zm10.193,8.533V19.754c0-2.621-1.394-3.841-3.254-3.841a2.8,2.8,0,0,0-2.548,1.409V16.114H15.758c.037.8,0,8.533,0,8.533h2.827V19.881a1.949,1.949,0,0,1,.093-.692,1.548,1.548,0,0,1,1.45-1.037c1.023,0,1.432.782,1.432,1.929v4.565Z" transform="translate(-5.352 -5.766)"/></svg>