<svg id="Layer_1" data-name="Layer 1" xmlns="http://www.w3.org/2000/svg" viewBox="0 0 25.78 25.78"><defs><style>.cls-2{isolation:isolate;}.cls-3{fill:#fff;}</style></defs><title>LittleCamera</title><g id="Layer_2" data-name="Layer 2"><g id="Notes"><circle cx="12.89" cy="12.89" r="12.89"/><g class="cls-2"><path class="cls-3" d="M19,7.34a2.23,2.23,0,0,1,2.23,2.23v7.82A2.23,2.23,0,0,1,19,19.62H6.75a2.23,2.23,0,0,1-2.23-2.23V9.57A2.23,2.23,0,0,1,6.75,7.34h2l.44-1.19a1.62,1.62,0,0,1,.61-.74,1.55,1.55,0,0,1,.9-.31h4.47a1.55,1.55,0,0,1,.9.31,1.62,1.62,0,0,1,.61.74l.45,1.19Zm-8.9,8.9a3.89,3.89,0,0,0,5.52,0,3.89,3.89,0,0,0,0-5.52,3.89,3.89,0,0,0-5.52,0,3.89,3.89,0,0,0,0,5.52Zm1-4.54a2.51,2.51,0,1,1,3.55,3.55,2.51,2.51,0,1,1-3.55-3.55Z"/></g></g></g></svg>
