<svg xmlns="http://www.w3.org/2000/svg" xmlns:xlink="http://www.w3.org/1999/xlink" viewBox="0 0 147.01 24.6"><defs><style>.cls-1{fill:none;}.cls-2{clip-path:url(#clip-path);}</style><clipPath id="clip-path" transform="translate(0 0)"><rect class="cls-1" width="147" height="24.59"/></clipPath></defs><title>PixieLane.Logo.Nav</title><g id="Layer_2" data-name="Layer 2"><g id="Layer_1-2" data-name="Layer 1"><g class="cls-2"><g id="PixieLane.LogoType"><g id="Group_333" data-name="Group 333"><path id="Path_166" data-name="Path 166" d="M4,19.94V7.51C4,6,3.52,5.21,2.47,5.21c-.22,0-.43,0-.65,0A7.77,7.77,0,0,1,1,5.34a.9.9,0,0,1-1-1c0-.72.46-1.09,1.37-1.09a3.57,3.57,0,0,1,.46,0l1.52.18a16.56,16.56,0,0,0,1.86.1c.52,0,1.14,0,1.86-.1,1.69-.14,3-.21,3.84-.22a16.91,16.91,0,0,1,3.41.31,5.35,5.35,0,0,1,3.21,1.93,5.63,5.63,0,0,1,1.16,3.6,5.29,5.29,0,0,1-2,4.47,9.28,9.28,0,0,1-5.79,1.56H7.42c-.33,0-.54.05-.63.17a1.43,1.43,0,0,0-.14.79v.61a26.21,26.21,0,0,0,.23,4.77c.16.55.6.83,1.35.83a2.05,2.05,0,0,0,.65-.1l.84-.06a.87.87,0,0,1,1,.76,1,1,0,0,1,0,.24c0,.74-.45,1.11-1.36,1.11l-.44-.06-1.55-.21a14.3,14.3,0,0,0-2-.1,11.68,11.68,0,0,0-1.77.1l-1.8.24-.18,0H1.4c-.93,0-1.4-.36-1.4-1.08a1,1,0,0,1,.28-.73A.92.92,0,0,1,1,22.1a4.81,4.81,0,0,1,.84.1,2.39,2.39,0,0,0,.65.06C3.51,22.26,4,21.49,4,19.94ZM6.86,5.86a3.83,3.83,0,0,0-.21,1.71v4.6c0,.56.39.88,1.18,1h1.8a16.63,16.63,0,0,0,3.66-.34,3.33,3.33,0,0,0,2.77-3.63q0-3.94-5-3.95c-2.49,0-3.88.22-4.17.65Z" transform="translate(0 0)"/><path id="Path_167" data-name="Path 167" d="M25.43,15.06v4q0,1.56,0,1.83c.11.93.39,1.4.84,1.4a4.32,4.32,0,0,0,.78-.16,1.82,1.82,0,0,1,.46-.06c.79,0,1.18.34,1.18,1a.91.91,0,0,1-.38.74,1.46,1.46,0,0,1-1,.31A10.87,10.87,0,0,1,25.85,24c-.5-.07-1-.12-1.52-.14a15.56,15.56,0,0,0-1.8.13,14.78,14.78,0,0,1-1.62.15c-.83,0-1.25-.35-1.25-1.05s.36-1,1.07-1a3.66,3.66,0,0,1,.73.1,4.53,4.53,0,0,0,.74.09c.5,0,.8-.66.91-2V12.36c-.11-1.31-.42-2-.94-2a3.39,3.39,0,0,0-.71.11,3,3,0,0,1-.67.11c-.76,0-1.13-.33-1.13-1S20.12,8.57,21,8.57a5.71,5.71,0,0,1,.83,0c.67.08,1.09.12,1.28.12a4.9,4.9,0,0,0,.76-.08,6.31,6.31,0,0,1,.76-.07c.6,0,.9.4.9,1.21a3.32,3.32,0,0,1,0,.37c0,.17,0,.29,0,.37s0,.81-.05,1.93Q25.43,13.73,25.43,15.06Z" transform="translate(0 0)"/><path id="Path_168" data-name="Path 168" d="M32.86,21l4.31-5-4.31-5.12a1.33,1.33,0,0,0-1.06-.5,1.22,1.22,0,0,0-.38,0l-.52.15a1.63,1.63,0,0,1-.44,0,.89.89,0,0,1-1-.74,1,1,0,0,1,0-.25c0-.71.42-1.06,1.27-1.06h.1l1.55.1a9.52,9.52,0,0,0,1.3.12c.51,0,1-.05,1.52-.11.67-.07,1.16-.11,1.49-.11.85,0,1.28.36,1.28,1.06s-.4,1-1.18,1a1.5,1.5,0,0,1-.47-.08l-.46-.14h-.19c-.09,0-.13,0-.13.06a1.33,1.33,0,0,0,.28.44l2.83,3.47,2.95-3.47c.18-.21.28-.35.28-.44s-.08-.06-.16-.06a1.72,1.72,0,0,0-.5.11,1.92,1.92,0,0,1-.54.11c-.73,0-1.1-.35-1.1-1s.44-1,1.31-1l1.64.15c.46,0,.94.07,1.46.07a15.24,15.24,0,0,0,1.65-.11,10.2,10.2,0,0,1,1.24-.11c.91,0,1.36.34,1.36,1s-.35,1-1,1a3.38,3.38,0,0,1-.72-.11,3.59,3.59,0,0,0-.72-.11c-.5,0-1.18.5-2.06,1.49L40.06,16,44.9,21.7a1.32,1.32,0,0,0,1.06.53,5.42,5.42,0,0,0,.58-.06,3.68,3.68,0,0,1,.58-.06c.74,0,1.12.33,1.12,1s-.44,1.09-1.31,1.09h-.25L45.47,24A12.29,12.29,0,0,0,44,24a13.52,13.52,0,0,0-1.68.1l-1.11.12h-.34c-1,0-1.47-.33-1.46-1s.38-1.09,1.14-1.09a7.35,7.35,0,0,1,1.15.12.57.57,0,0,0,.22,0c.21,0,.31-.09.31-.25a.28.28,0,0,0-.09-.19l-.1-.12-3.45-4-3.51,4a.69.69,0,0,0-.21.37c0,.1.1.15.31.15a3.66,3.66,0,0,0,.65-.06c.21,0,.43-.05.65-.06.89,0,1.34.36,1.34,1.09s-.45,1-1.34,1H36l-1.25-.12a14.75,14.75,0,0,0-1.64-.1,12.08,12.08,0,0,0-1.34.1,13.31,13.31,0,0,1-1.55.12c-.87,0-1.3-.35-1.3-1.06s.37-1,1.11-1a3.43,3.43,0,0,1,.56.05,5.27,5.27,0,0,0,.56,0C31.57,22.2,32.13,21.78,32.86,21Z" transform="translate(0 0)"/><path id="Path_169" data-name="Path 169" d="M54.84,15.06v4q0,1.56,0,1.83c.1.93.38,1.4.84,1.4a4.05,4.05,0,0,0,.77-.16A1.84,1.84,0,0,1,57,22.1c.79,0,1.18.34,1.18,1a.91.91,0,0,1-.38.74,1.48,1.48,0,0,1-1,.31A11,11,0,0,1,55.25,24a15.13,15.13,0,0,0-1.51-.14,15.73,15.73,0,0,0-1.81.13,14.34,14.34,0,0,1-1.62.15c-.83,0-1.25-.35-1.24-1.05a.92.92,0,0,1,1.06-1,3.66,3.66,0,0,1,.74.1,4.53,4.53,0,0,0,.74.09c.5,0,.8-.66.91-2V12.36c-.11-1.31-.42-2-.94-2a3.39,3.39,0,0,0-.71.11,3.12,3.12,0,0,1-.67.11c-.76,0-1.13-.33-1.13-1s.45-1.06,1.36-1.06a5.9,5.9,0,0,1,.84,0c.66.08,1.09.12,1.28.12a4.9,4.9,0,0,0,.76-.08,6.31,6.31,0,0,1,.76-.07c.6,0,.9.4.9,1.21a3.32,3.32,0,0,1,0,.37c0,.17,0,.29,0,.37s0,.81-.05,1.93Q54.84,13.73,54.84,15.06Z" transform="translate(0 0)"/><path id="Path_170" data-name="Path 170" d="M73.53,14.93a4,4,0,0,1-.15,1.45c-.11.17-.41.26-.9.26H62.6a.89.89,0,0,0-.53.11.45.45,0,0,0-.12.36A5.55,5.55,0,0,0,63.35,21a4.62,4.62,0,0,0,6,.8A3.38,3.38,0,0,0,70.8,19.9l.28-.9a1,1,0,0,1,1-.75,1,1,0,0,1,1.16.9.88.88,0,0,1,0,.28,4.49,4.49,0,0,1-2,3.59,7.51,7.51,0,0,1-4.66,1.57,6.56,6.56,0,0,1-5.19-2.19,8.54,8.54,0,0,1-1.92-5.88,9,9,0,0,1,2.05-6.15A6.71,6.71,0,0,1,66.83,8a6.38,6.38,0,0,1,4.81,2A6.86,6.86,0,0,1,73.53,14.93Zm-11.27-.81c0,.29.23.44.68.44h7.42c.44,0,.66-.15.66-.44a3.86,3.86,0,0,0-1.25-2.85,4,4,0,0,0-2.91-1.21,4.65,4.65,0,0,0-3.17,1.25A3.7,3.7,0,0,0,62.26,14.12Z" transform="translate(0 0)"/><path id="Path_171" data-name="Path 171" d="M81.89,19.51c0,1.21.12,1.94.37,2.16A1.24,1.24,0,0,0,83,22a17.14,17.14,0,0,0,2,.06h2.73a5,5,0,0,0,2.86-.56,2.87,2.87,0,0,0,.72-2.29c0-.3,0-.66,0-1.07q-.06-1.18-.06-1.44c0-.9.36-1.35,1.09-1.35s1.3.41,1.3,1.24a2.88,2.88,0,0,1,0,.59l-.21,1.59a9.69,9.69,0,0,0-.1,1.42,12.74,12.74,0,0,0,.08,1.29c0,.57.07,1,.07,1.29,0,.93-.52,1.4-1.58,1.4-.21,0-.68,0-1.43-.11-.49,0-1.26-.07-2.3-.11H80.83c-.5,0-1.33,0-2.49.13-.16,0-.45,0-.85,0s-.72.05-.95.05c-.87,0-1.3-.37-1.3-1.12a.86.86,0,0,1,.72-1,1,1,0,0,1,.24,0,4.53,4.53,0,0,1,.74.09,3.86,3.86,0,0,0,.75.1c1,0,1.58-.78,1.58-2.33V7.48c0-1.53-.53-2.3-1.58-2.3a2.35,2.35,0,0,0-.65.06,4.81,4.81,0,0,1-.84.1,1,1,0,0,1-.69-.3,1,1,0,0,1-.27-.73c0-.72.44-1.08,1.33-1.08a3.71,3.71,0,0,1,.47,0l1.64.18a19.63,19.63,0,0,0,2,.16,14.7,14.7,0,0,0,2-.16l1.43-.18a2.69,2.69,0,0,1,.4,0c.93,0,1.4.36,1.4,1.08a1,1,0,0,1-.28.73.92.92,0,0,1-.68.3,4.81,4.81,0,0,1-.84-.1,2.35,2.35,0,0,0-.65-.06c-1.06,0-1.59.76-1.59,2.29Z" transform="translate(0 0)"/><path id="Path_172" data-name="Path 172" d="M109,24.46a2.86,2.86,0,0,1-3.13-2.2,5.59,5.59,0,0,1-5,2.33,6.16,6.16,0,0,1-4-1.24A4.08,4.08,0,0,1,95.33,20a4,4,0,0,1,2.21-3.78A5.38,5.38,0,0,1,99,15.63c.4-.09,1.22-.21,2.44-.36a9.3,9.3,0,0,0,3.4-.77,2,2,0,0,0,.79-1.83,2.48,2.48,0,0,0-.89-2,3.8,3.8,0,0,0-2.46-.73,4.73,4.73,0,0,0-2.61.78c-.31.21-.47.42-.47.65s.1.19.28.31a1.24,1.24,0,0,1,.44,1.06,1.35,1.35,0,0,1-.45,1,1.69,1.69,0,0,1-1.14.4A1.8,1.8,0,0,1,97,13.6a1.89,1.89,0,0,1-.54-1.37,3.61,3.61,0,0,1,1.72-3A6.94,6.94,0,0,1,102.32,8c3.77,0,5.65,1.8,5.65,5.42v6.26a12.89,12.89,0,0,0,.06,1.76c.13.73.48,1.09,1.06,1.09s1.09-.66,1.09-2V19.05a.85.85,0,0,1,.95-1c.67,0,1,.49,1,1.49v1.92Q112.07,24.46,109,24.46Zm-3.44-6.17V16.08a4,4,0,0,1-1.44.86,14.72,14.72,0,0,1-2.71.44q-3.53.35-3.52,2.61a2.24,2.24,0,0,0,.85,1.86,3.54,3.54,0,0,0,2.31.68,4.55,4.55,0,0,0,3.27-1.13,4.18,4.18,0,0,0,1.24-3.11Z" transform="translate(0 0)"/><path id="Path_173" data-name="Path 173" d="M117.87,9.48v.89a6,6,0,0,1,5-2.36,6.27,6.27,0,0,1,3.17.85A4.45,4.45,0,0,1,128,11a7.4,7.4,0,0,1,.44,2.76v5.9q0,1.34,0,1.59.15,1.05.84,1.05a4.51,4.51,0,0,0,.73-.07,4.52,4.52,0,0,1,.63-.08,1,1,0,0,1,.7.28.92.92,0,0,1,.3.68,1,1,0,0,1-.38.78,1.33,1.33,0,0,1-.9.31c-.47,0-.95-.06-1.42-.12a14.56,14.56,0,0,0-1.87-.13c-.44,0-.89,0-1.33.06-1,.13-1.59.19-1.65.19-.83,0-1.24-.36-1.24-1.09s.36-1,1.08-1a2.76,2.76,0,0,1,.57.06,6.35,6.35,0,0,0,.76.13c.5,0,.78-.57.82-1.71V14.78a11.36,11.36,0,0,0-.16-2.26,2.94,2.94,0,0,0-1.2-1.83,3.93,3.93,0,0,0-2.32-.72,3.87,3.87,0,0,0-3.56,1.77,8.38,8.38,0,0,0-.74,4.13V20a6.19,6.19,0,0,0,.18,1.87.69.69,0,0,0,.69.49,2.61,2.61,0,0,0,.68-.11,3.38,3.38,0,0,1,.72-.11c.64,0,1,.35,1,1s-.42,1-1.24,1q-.25,0-1.62-.18a11,11,0,0,0-1.52-.1,17,17,0,0,0-1.74.12c-.91.11-1.43.16-1.55.16-.87,0-1.31-.35-1.31-1.06a.89.89,0,0,1,.77-1,.7.7,0,0,1,.25,0,2.91,2.91,0,0,1,.58.09,3.44,3.44,0,0,0,.84.1c.63,0,1-.6,1-1.8v-8.3a4,4,0,0,0-.27-1.45.72.72,0,0,0-.71-.38,3.59,3.59,0,0,0-.65.07,3.5,3.5,0,0,1-.65.08c-.75,0-1.13-.33-1.13-1s.46-1,1.39-1a1.55,1.55,0,0,1,.31,0l1.15.13a4.27,4.27,0,0,0,.87-.08l.84-.08C117.58,8.53,117.87,8.85,117.87,9.48Z" transform="translate(0 0)"/><path id="Path_174" data-name="Path 174" d="M147,14.93a4,4,0,0,1-.15,1.45c-.11.17-.41.26-.9.26h-9.88a.89.89,0,0,0-.53.11.45.45,0,0,0-.12.36,5.55,5.55,0,0,0,1.4,3.88,4.61,4.61,0,0,0,6,.8,3.4,3.4,0,0,0,1.48-1.89l.28-.9a1,1,0,0,1,1-.75,1,1,0,0,1,1.16.9.88.88,0,0,1,0,.28A4.48,4.48,0,0,1,144.67,23,7.46,7.46,0,0,1,140,24.59a6.56,6.56,0,0,1-5.19-2.19,8.59,8.59,0,0,1-1.93-5.88,9,9,0,0,1,2-6.15A6.72,6.72,0,0,1,140.29,8a6.42,6.42,0,0,1,4.82,2A6.86,6.86,0,0,1,147,14.93Zm-11.27-.81c0,.29.23.44.68.44h7.43c.43,0,.65-.15.65-.44a3.89,3.89,0,0,0-1.24-2.85,4,4,0,0,0-2.92-1.21,4.65,4.65,0,0,0-3.17,1.25A3.7,3.7,0,0,0,135.73,14.12Z" transform="translate(0 0)"/></g><g id="Path_175" data-name="Path 175"><path d="M20.07,7.31l.2-1,.25-1.21-.91-.84-.78-.71,1.05-.12,1.23-.15.51-1.12.44-1,.44,1L23,3.24l1.22.15,1.05.12-.77.71-.91.84.24,1.21.21,1-.92-.52-1.08-.61L21,6.79Z" transform="translate(0 0)"/><path d="M22.06,2.32l-.63,1.37-1.49.18,1.11,1-.3,1.48,1.31-.74,1.32.74-.3-1.48,1.11-1-1.5-.18-.63-1.37m0-2.32.88,1.92.4.87,1,.11,2.1.25L24.84,4.58l-.7.65.19.95.41,2.07-1.84-1-.84-.47-.84.47-1.84,1,.42-2.07L20,5.23l-.71-.65L17.73,3.15l2.09-.25,1-.11.4-.87Z" transform="translate(0 0)"/></g><g id="Path_176" data-name="Path 176"><path d="M54.3,7.31l-.92-.52-1.07-.61-1.08.61-.92.52.21-1,.24-1.21-.91-.84-.77-.71,1-.12,1.23-.15.51-1.12.45-1,.44,1,.51,1.12,1.23.15,1,.12-.77.71-.91.84.24,1.21Z" transform="translate(0 0)"/><path d="M52.31,2.32l-.63,1.37-1.5.18,1.11,1L51,6.37l1.32-.74,1.31.74-.3-1.48,1.11-1-1.5-.18-.62-1.37m0-2.32.88,1.92.4.87.95.11,2.1.25L55.09,4.58l-.71.65.19.95L55,8.25l-1.84-1-.83-.47-.84.47-1.84,1L50,6.18l.19-.95-.71-.65L48,3.15l2.1-.25,1-.11.4-.87Z" transform="translate(0 0)"/></g></g></g></g></g></svg>