<svg xmlns="http://www.w3.org/2000/svg" viewBox="0 0 20.82 24.68"><title>Manager</title><g id="Layer_2" data-name="Layer 2"><g id="Layer_1-2" data-name="Layer 1"><path d="M9.31,16.86A5.41,5.41,0,1,0,3.9,11.45,5.42,5.42,0,0,0,9.31,16.86Zm0-9.72A4.31,4.31,0,1,1,5,11.45,4.32,4.32,0,0,1,9.31,7.14Z"/><path d="M12.52,17.4H6.1A6.11,6.11,0,0,0,0,23.5v.62a.55.55,0,0,0,.55.55H18.07a.55.55,0,0,0,.55-.55V23.5A6.11,6.11,0,0,0,12.52,17.4ZM1.1,23.58v-.08a5,5,0,0,1,5-5h6.41a5,5,0,0,1,5,5v.08Z"/><path d="M20.27,3.63H17.19V.55a.55.55,0,1,0-1.09,0V3.63H13a.55.55,0,1,0,0,1.09h3.08V7.8a.55.55,0,1,0,1.09,0V4.72h3.08a.55.55,0,1,0,0-1.09Z"/></g></g></svg>
