<svg xmlns="http://www.w3.org/2000/svg" viewBox="0 0 30 28.35"><defs><style>.cls-1{fill:#ffd400;}.cls-2{fill:#ffde59;}.cls-3,.cls-4{fill:#d7ae29;}.cls-3,.cls-5,.cls-6,.cls-7{fill-rule:evenodd;}.cls-5{fill:#fbb231;}.cls-6{fill:#ec1b2e;}.cls-7{fill:#fff;}.cls-8{fill:none;stroke:#fff;stroke-miterlimit:2.61;stroke-width:0.01px;}</style></defs><title>Mastercard</title><g id="Layer_2" data-name="Layer 2"><g id="canvas"><path class="cls-1" d="M30,23.92a4.56,4.56,0,0,1-4.69,4.43H4.69A4.56,4.56,0,0,1,0,23.92V4.43A4.56,4.56,0,0,1,4.69,0H25.31A4.56,4.56,0,0,1,30,4.43Z"/><path class="cls-2" d="M28.59,1.27,1.34,27a4.81,4.81,0,0,0,3.35,1.33H25.31A4.56,4.56,0,0,0,30,23.92V4.43A4.3,4.3,0,0,0,28.59,1.27Z"/><polygon class="cls-3" points="19.86 21.86 20.23 21.85 20.6 21.83 20.96 21.78 21.32 21.72 21.67 21.65 22.02 21.55 22.36 21.44 22.69 21.32 23.01 21.18 23.32 21.03 23.63 20.87 23.92 20.69 24.21 20.5 24.48 20.29 24.75 20.08 25 19.85 25.24 19.61 25.47 19.36 25.68 19.1 25.89 18.83 26.08 18.55 26.25 18.26 26.41 17.97 26.56 17.66 26.69 17.35 26.8 17.03 26.9 16.7 26.98 16.37 27.05 16.03 27.09 15.69 27.12 15.34 27.13 14.99 27.12 14.63 27.09 14.29 27.05 13.95 26.98 13.61 26.9 13.28 26.8 12.96 26.69 12.64 26.56 12.33 26.41 12.02 26.25 11.73 26.08 11.44 25.89 11.16 25.68 10.89 25.47 10.64 25.24 10.39 25 10.15 24.75 9.92 24.48 9.71 24.21 9.5 23.92 9.31 23.63 9.13 23.32 8.97 23.01 8.82 22.69 8.68 22.36 8.56 22.02 8.45 21.67 8.35 21.32 8.28 20.96 8.22 20.6 8.17 20.23 8.15 19.86 8.14 19.48 8.15 19.11 8.17 18.75 8.22 18.39 8.28 18.04 8.35 17.7 8.45 17.36 8.56 17.03 8.68 16.71 8.82 16.4 8.97 16.1 9.13 15.8 9.31 15.52 9.5 15.24 9.71 14.98 9.92 14.73 10.15 14.49 10.39 14.26 10.64 14.05 10.89 13.85 11.16 13.66 11.44 13.48 11.73 13.32 12.02 13.18 12.33 13.05 12.64 12.94 12.96 12.84 13.28 12.76 13.61 12.69 13.95 12.65 14.29 12.62 14.63 12.61 14.99 12.62 15.34 12.65 15.69 12.69 16.03 12.76 16.37 12.84 16.7 12.94 17.03 13.05 17.35 13.18 17.66 13.32 17.97 13.48 18.26 13.66 18.55 13.85 18.83 14.05 19.1 14.26 19.36 14.49 19.61 14.73 19.85 14.98 20.08 15.24 20.29 15.52 20.5 15.8 20.69 16.1 20.87 16.4 21.03 16.71 21.18 17.03 21.32 17.36 21.44 17.7 21.55 18.04 21.65 18.39 21.72 18.75 21.78 19.11 21.83 19.48 21.85 19.86 21.86 19.86 21.86 19.86 21.86"/><polygon class="cls-3" points="10.14 21.86 10.52 21.85 10.89 21.83 11.25 21.78 11.61 21.72 11.96 21.65 12.3 21.55 12.64 21.44 12.97 21.32 13.29 21.18 13.6 21.03 13.9 20.87 14.2 20.69 14.48 20.5 14.76 20.29 15.02 20.08 15.27 19.85 15.51 19.61 15.74 19.36 15.95 19.1 16.15 18.83 16.34 18.55 16.52 18.26 16.68 17.97 16.82 17.66 16.95 17.35 17.06 17.03 17.16 16.7 17.24 16.37 17.31 16.03 17.35 15.69 17.38 15.34 17.39 14.99 17.38 14.63 17.35 14.29 17.31 13.95 17.24 13.61 17.16 13.28 17.06 12.96 16.95 12.64 16.82 12.33 16.68 12.02 16.52 11.73 16.34 11.44 16.15 11.16 15.95 10.89 15.74 10.64 15.51 10.39 15.27 10.15 15.02 9.92 14.76 9.71 14.48 9.5 14.2 9.31 13.9 9.13 13.6 8.97 13.29 8.82 12.97 8.68 12.64 8.56 12.3 8.45 11.96 8.35 11.61 8.28 11.25 8.22 10.89 8.17 10.52 8.15 10.14 8.14 9.77 8.15 9.4 8.17 9.04 8.22 8.68 8.28 8.33 8.35 7.98 8.45 7.64 8.56 7.31 8.68 6.99 8.82 6.68 8.97 6.37 9.13 6.08 9.31 5.79 9.5 5.52 9.71 5.25 9.92 5 10.15 4.76 10.39 4.53 10.64 4.32 10.89 4.11 11.16 3.92 11.44 3.75 11.73 3.59 12.02 3.44 12.33 3.31 12.64 3.2 12.96 3.1 13.28 3.02 13.61 2.96 13.95 2.91 14.29 2.88 14.63 2.87 14.99 2.88 15.34 2.91 15.69 2.96 16.03 3.02 16.37 3.1 16.7 3.2 17.03 3.31 17.35 3.44 17.66 3.59 17.97 3.75 18.26 3.92 18.55 4.11 18.83 4.32 19.1 4.53 19.36 4.76 19.61 5 19.85 5.25 20.08 5.52 20.29 5.79 20.5 6.08 20.69 6.37 20.87 6.68 21.03 6.99 21.18 7.31 21.32 7.64 21.44 7.98 21.55 8.33 21.65 8.68 21.72 9.04 21.78 9.4 21.83 9.77 21.85 10.14 21.86 10.14 21.86 10.14 21.86"/><polygon class="cls-3" points="14.15 10.77 18.01 10.77 18.01 10.4 14.48 10.4 14.15 10.77 14.15 10.77 14.15 10.77"/><polygon class="cls-3" points="13.57 11.6 18.01 11.6 18.01 11.23 13.8 11.23 13.57 11.6 13.57 11.6 13.57 11.6"/><polygon class="cls-3" points="13.14 12.43 18.01 12.43 18.01 12.05 13.31 12.05 13.14 12.43 13.14 12.43 13.14 12.43"/><polygon class="cls-3" points="12.85 13.25 18.01 13.25 18.01 12.88 12.97 12.88 12.85 13.25 12.85 13.25 12.85 13.25"/><polygon class="cls-3" points="13.02 17.26 18.02 17.26 18.02 16.89 12.89 16.89 13.02 17.26 13.02 17.26 13.02 17.26"/><polygon class="cls-3" points="13.39 18.09 18.02 18.09 18.02 17.71 13.2 17.71 13.39 18.09 13.39 18.09 13.39 18.09"/><polygon class="cls-3" points="13.9 18.91 18.02 18.91 18.02 18.54 13.66 18.54 13.9 18.91 13.9 18.91 13.9 18.91"/><polygon class="cls-3" points="14.62 19.74 18.02 19.74 18.02 19.37 14.28 19.37 14.62 19.74 14.62 19.74 14.62 19.74"/><polygon class="cls-3" points="12.67 14.08 18.01 14.08 18.01 13.71 12.75 13.71 12.67 14.08 12.67 14.08 12.67 14.08"/><polygon class="cls-3" points="15.92 16.43 17.96 16.43 17.96 16.06 16 16.06 15.92 16.43 15.92 16.43 15.92 16.43"/><polygon class="cls-3" points="16.09 15.61 17.96 15.61 17.96 15.23 16.16 15.23 16.09 15.61 16.09 15.61 16.09 15.61"/><polygon class="cls-3" points="12.54 15.23 13.07 15.23 13.07 15.61 12.56 15.61 12.54 15.23 12.54 15.23 12.54 15.23"/><polygon class="cls-3" points="11.55 14.78 11.52 14.78 11.48 14.77 11.45 14.77 11.42 14.76 11.39 14.76 11.36 14.75 11.32 14.75 11.29 14.74 11.26 14.74 11.22 14.74 11.17 14.73 11.13 14.73 11.07 14.73 11.02 14.73 10.96 14.74 10.88 14.74 10.84 14.75 10.79 14.76 10.75 14.77 10.71 14.79 10.68 14.8 10.64 14.82 10.62 14.84 10.6 14.87 10.58 14.89 10.57 14.92 10.56 14.94 10.56 14.97 10.57 15 10.58 15.03 10.6 15.06 10.63 15.09 10.68 15.13 10.73 15.17 10.8 15.2 10.88 15.23 10.96 15.25 11.04 15.27 11.12 15.3 11.2 15.33 11.27 15.37 11.34 15.42 11.4 15.48 11.45 15.55 11.49 15.64 11.51 15.74 11.52 15.87 11.51 16.01 11.5 16.12 11.47 16.22 11.43 16.3 11.38 16.38 11.32 16.45 11.26 16.5 11.19 16.56 11.11 16.6 11.04 16.64 10.96 16.66 10.87 16.69 10.79 16.71 10.7 16.72 10.62 16.73 10.54 16.73 10.46 16.73 10.36 16.73 10.26 16.73 10.18 16.73 10.1 16.73 10.02 16.73 9.96 16.72 9.9 16.72 9.84 16.71 9.79 16.71 9.74 16.7 9.7 16.69 9.65 16.68 9.61 16.67 9.57 16.66 9.53 16.64 9.49 16.63 9.6 16.12 9.63 16.12 9.65 16.13 9.69 16.14 9.73 16.15 9.77 16.16 9.82 16.16 9.88 16.18 9.93 16.19 9.99 16.2 10.06 16.2 10.13 16.21 10.19 16.22 10.26 16.22 10.34 16.22 10.41 16.22 10.48 16.22 10.55 16.21 10.6 16.19 10.65 16.16 10.68 16.13 10.71 16.1 10.73 16.06 10.74 16.02 10.75 15.99 10.75 15.92 10.73 15.86 10.69 15.82 10.63 15.78 10.56 15.74 10.47 15.71 10.37 15.68 10.28 15.64 10.18 15.6 10.09 15.55 10 15.49 9.92 15.42 9.86 15.33 9.82 15.23 9.8 15.1 9.8 14.95 9.81 14.86 9.83 14.78 9.85 14.7 9.88 14.62 9.92 14.55 9.96 14.49 10.02 14.44 10.08 14.39 10.15 14.34 10.23 14.3 10.31 14.27 10.41 14.24 10.52 14.22 10.64 14.21 10.78 14.2 10.92 14.2 11.01 14.2 11.09 14.2 11.17 14.2 11.24 14.2 11.3 14.21 11.36 14.21 11.4 14.22 11.45 14.22 11.49 14.23 11.53 14.23 11.56 14.24 11.59 14.24 11.61 14.25 11.63 14.25 11.65 14.25 11.68 14.26 11.55 14.78 11.55 14.78 11.55 14.78"/><polyline class="cls-4" points="11.55 14.78 11.55 14.78 11.52 14.78 11.48 14.77 11.45 14.77 11.42 14.76 11.39 14.76 11.36 14.75 11.32 14.75 11.29 14.74 11.26 14.74 11.22 14.74 11.17 14.73 11.13 14.73 11.07 14.73 11.02 14.73 10.96 14.74 10.88 14.74 10.88 14.74 10.84 14.75 10.79 14.76 10.75 14.77 10.71 14.79 10.68 14.8 10.64 14.82 10.62 14.84 10.6 14.87 10.58 14.89 10.57 14.92 10.56 14.94 10.56 14.97 10.57 15 10.58 15.03 10.6 15.06 10.63 15.09 10.63 15.09 10.68 15.13 10.73 15.17 10.8 15.2 10.88 15.23 10.96 15.25 11.04 15.27 11.12 15.3 11.2 15.33 11.27 15.37 11.34 15.42 11.4 15.48 11.45 15.55 11.49 15.64 11.51 15.74 11.52 15.87 11.51 16.01 11.51 16.01 11.5 16.12 11.47 16.22 11.43 16.3 11.38 16.38 11.32 16.45 11.26 16.5 11.19 16.56 11.11 16.6 11.04 16.64 10.96 16.66 10.87 16.69 10.79 16.71 10.7 16.72 10.62 16.73 10.54 16.73 10.46 16.73 10.46 16.73 10.36 16.73 10.26 16.73 10.18 16.73 10.1 16.73 10.02 16.73 9.96 16.72 9.9 16.72 9.84 16.71 9.79 16.71 9.74 16.7 9.7 16.69 9.65 16.68 9.61 16.67 9.57 16.66 9.53 16.64 9.49 16.63 9.6 16.12 9.6 16.12 9.63 16.12 9.65 16.13 9.69 16.14 9.73 16.15 9.77 16.16 9.82 16.16 9.88 16.18 9.93 16.19 9.99 16.2 10.06 16.2 10.13 16.21 10.19 16.22 10.26 16.22 10.34 16.22 10.41 16.22 10.48 16.22 10.48 16.22 10.55 16.21 10.6 16.19 10.65 16.16 10.68 16.13 10.71 16.1 10.73 16.06 10.74 16.02 10.75 15.99 10.75 15.99 10.75 15.92 10.73 15.86 10.69 15.82 10.63 15.78 10.56 15.74 10.47 15.71 10.37 15.68 10.28 15.64 10.18 15.6 10.09 15.55 10 15.49 9.92 15.42 9.86 15.33 9.82 15.23 9.8 15.1 9.8 14.95 9.8 14.95 9.81 14.86 9.83 14.78 9.85 14.7 9.88 14.62 9.92 14.55 9.96 14.49 10.02 14.44 10.08 14.39 10.15 14.34 10.23 14.3 10.31 14.27 10.41 14.24 10.52 14.22 10.64 14.21 10.78 14.2 10.92 14.2 10.92 14.2 11.01 14.2 11.09 14.2 11.17 14.2 11.24 14.2 11.3 14.21 11.36 14.21 11.4 14.22 11.45 14.22 11.49 14.23 11.53 14.23 11.56 14.24 11.59 14.24 11.61 14.25 11.63 14.25 11.65 14.25 11.68 14.26 11.55 14.78"/><polygon class="cls-3" points="12.13 13.68 12.81 13.68 12.71 14.24 13.12 14.24 13.03 14.77 12.6 14.76 12.36 16.05 12.36 16.09 12.37 16.13 12.4 16.16 12.43 16.19 12.47 16.2 12.52 16.22 12.58 16.23 12.63 16.23 12.69 16.23 12.74 16.23 12.78 16.22 12.82 16.21 12.85 16.2 12.87 16.19 12.89 16.19 12.89 16.19 12.81 16.62 12.79 16.63 12.77 16.64 12.76 16.65 12.74 16.66 12.72 16.66 12.7 16.67 12.68 16.68 12.66 16.68 12.63 16.69 12.61 16.7 12.58 16.7 12.55 16.7 12.52 16.71 12.48 16.71 12.44 16.72 12.4 16.72 12.22 16.72 12.12 16.72 12.03 16.71 11.95 16.69 11.89 16.68 11.83 16.66 11.79 16.63 11.74 16.61 11.71 16.57 11.69 16.54 11.67 16.5 11.66 16.46 11.65 16.42 11.65 16.37 11.65 16.32 11.65 16.27 11.66 16.21 12.13 13.68 12.13 13.68 12.13 13.68"/><polyline class="cls-4" points="12.13 13.68 12.81 13.68 12.71 14.24 13.12 14.24 13.03 14.77 12.6 14.76 12.36 16.05 12.36 16.05 12.36 16.09 12.37 16.13 12.4 16.16 12.43 16.19 12.47 16.2 12.52 16.22 12.58 16.23 12.63 16.23 12.63 16.23 12.69 16.23 12.74 16.23 12.78 16.22 12.82 16.21 12.85 16.2 12.87 16.19 12.89 16.19 12.89 16.19 12.81 16.62 12.81 16.62 12.79 16.63 12.77 16.64 12.76 16.65 12.74 16.66 12.72 16.66 12.7 16.67 12.68 16.68 12.66 16.68 12.63 16.69 12.61 16.7 12.58 16.7 12.55 16.7 12.52 16.71 12.48 16.71 12.44 16.72 12.4 16.72 12.22 16.72 12.22 16.72 12.12 16.72 12.03 16.71 11.95 16.69 11.89 16.68 11.83 16.66 11.79 16.63 11.74 16.61 11.71 16.57 11.69 16.54 11.67 16.5 11.66 16.46 11.65 16.42 11.65 16.37 11.65 16.32 11.65 16.27 11.66 16.21 12.13 13.68"/><polygon class="cls-3" points="13.66 15.64 13.65 15.68 13.65 15.72 13.65 15.77 13.66 15.81 13.68 15.85 13.7 15.89 13.73 15.94 13.76 15.98 13.79 16.02 13.83 16.05 13.87 16.09 13.91 16.11 13.95 16.14 14 16.16 14.05 16.18 14.1 16.19 14.16 16.2 14.23 16.2 14.29 16.21 14.35 16.21 14.42 16.22 14.48 16.22 14.55 16.21 14.61 16.21 14.68 16.2 14.74 16.19 14.81 16.18 14.88 16.15 14.95 16.13 15.02 16.1 15.09 16.06 15.16 16.02 15.06 16.59 15.02 16.61 14.98 16.63 14.94 16.64 14.91 16.66 14.87 16.67 14.83 16.68 14.79 16.69 14.75 16.7 14.71 16.7 14.66 16.71 14.61 16.71 14.55 16.72 14.49 16.72 14.42 16.72 14.34 16.72 14.26 16.72 14.14 16.72 14.02 16.71 13.9 16.69 13.78 16.66 13.66 16.63 13.54 16.59 13.43 16.53 13.33 16.46 13.23 16.38 13.15 16.29 13.08 16.18 13.02 16.06 12.98 15.92 12.95 15.77 12.94 15.6 12.96 15.41 12.96 15.33 12.98 15.25 13 15.16 13.03 15.06 13.06 14.96 13.11 14.86 13.16 14.76 13.23 14.66 13.31 14.57 13.41 14.48 13.51 14.4 13.64 14.33 13.78 14.27 13.94 14.23 14.11 14.21 14.31 14.2 14.41 14.2 14.51 14.21 14.61 14.22 14.71 14.25 14.81 14.28 14.9 14.32 14.99 14.38 15.07 14.44 15.14 14.52 15.21 14.62 15.26 14.72 15.29 14.84 15.31 14.98 15.31 15.14 15.29 15.32 15.26 15.51 15.24 15.65 13.46 15.65 13.57 15.2 14.64 15.2 14.65 15.14 14.65 15.08 14.64 15.03 14.63 14.98 14.62 14.94 14.6 14.9 14.57 14.87 14.55 14.83 14.52 14.81 14.49 14.78 14.45 14.76 14.41 14.74 14.38 14.73 14.34 14.72 14.29 14.71 14.25 14.71 14.2 14.71 14.16 14.72 14.12 14.73 14.08 14.74 14.04 14.76 14 14.78 13.96 14.81 13.93 14.83 13.9 14.87 13.87 14.9 13.84 14.94 13.82 14.98 13.8 15.02 13.78 15.07 13.77 15.11 13.76 15.16 13.66 15.64 13.66 15.64 13.66 15.64"/><polyline class="cls-4" points="13.66 15.64 13.66 15.64 13.65 15.68 13.65 15.72 13.65 15.77 13.66 15.81 13.68 15.85 13.7 15.89 13.73 15.94 13.76 15.98 13.79 16.02 13.83 16.05 13.87 16.09 13.91 16.11 13.95 16.14 14 16.16 14.05 16.18 14.1 16.19 14.1 16.19 14.16 16.2 14.23 16.2 14.29 16.21 14.35 16.21 14.42 16.22 14.48 16.22 14.55 16.21 14.61 16.21 14.68 16.2 14.74 16.19 14.81 16.18 14.88 16.15 14.95 16.13 15.02 16.1 15.09 16.06 15.16 16.02 15.06 16.59 15.06 16.59 15.02 16.61 14.98 16.63 14.94 16.64 14.91 16.66 14.87 16.67 14.83 16.68 14.79 16.69 14.75 16.7 14.71 16.7 14.66 16.71 14.61 16.71 14.55 16.72 14.49 16.72 14.42 16.72 14.34 16.72 14.26 16.72 14.26 16.72 14.14 16.72 14.02 16.71 13.9 16.69 13.78 16.66 13.66 16.63 13.54 16.59 13.43 16.53 13.33 16.46 13.23 16.38 13.15 16.29 13.08 16.18 13.02 16.06 12.98 15.92 12.95 15.77 12.94 15.6 12.96 15.41 12.96 15.41 12.96 15.33 12.98 15.25 13 15.16 13.03 15.06 13.06 14.96 13.11 14.86 13.16 14.76 13.23 14.66 13.31 14.57 13.41 14.48 13.51 14.4 13.64 14.33 13.78 14.27 13.94 14.23 14.11 14.21 14.31 14.2 14.31 14.2 14.41 14.2 14.51 14.21 14.61 14.22 14.71 14.25 14.81 14.28 14.9 14.32 14.99 14.38 15.07 14.44 15.14 14.52 15.21 14.62 15.26 14.72 15.29 14.84 15.31 14.98 15.31 15.14 15.29 15.32 15.26 15.51 15.24 15.65 13.46 15.65 13.57 15.2 14.64 15.2 14.64 15.2 14.65 15.14 14.65 15.08 14.64 15.03 14.63 14.98 14.62 14.94 14.6 14.9 14.57 14.87 14.55 14.83 14.52 14.81 14.49 14.78 14.45 14.76 14.41 14.74 14.38 14.73 14.34 14.72 14.29 14.71 14.25 14.71 14.25 14.71 14.2 14.71 14.16 14.72 14.12 14.73 14.08 14.74 14.04 14.76 14 14.78 13.96 14.81 13.93 14.83 13.9 14.87 13.87 14.9 13.84 14.94 13.82 14.98 13.8 15.02 13.78 15.07 13.77 15.11 13.76 15.16 13.66 15.64"/><polygon class="cls-3" points="19.5 14.38 19.47 14.37 19.43 14.35 19.4 14.34 19.36 14.32 19.33 14.31 19.29 14.29 19.24 14.28 19.2 14.27 19.15 14.25 19.11 14.24 19.05 14.23 19 14.23 18.95 14.22 18.89 14.22 18.83 14.22 18.77 14.22 18.71 14.22 18.65 14.22 18.58 14.23 18.51 14.24 18.44 14.26 18.37 14.29 18.31 14.32 18.24 14.36 18.17 14.41 18.11 14.47 18.05 14.54 17.99 14.63 17.93 14.73 17.88 14.85 17.84 14.98 17.8 15.13 17.78 15.21 17.77 15.29 17.77 15.37 17.77 15.45 17.78 15.53 17.79 15.6 17.82 15.67 17.84 15.74 17.88 15.8 17.92 15.86 17.98 15.92 18.03 15.97 18.1 16.01 18.18 16.04 18.26 16.07 18.35 16.09 18.38 16.1 18.42 16.11 18.46 16.11 18.51 16.12 18.57 16.12 18.62 16.12 18.68 16.12 18.75 16.12 18.81 16.11 18.87 16.1 18.93 16.08 19 16.06 19.06 16.04 19.11 16.01 19.16 15.97 19.21 15.93 19.1 16.55 19.09 16.56 19.07 16.57 19.05 16.59 19.03 16.6 19.01 16.62 18.97 16.64 18.93 16.65 18.89 16.67 18.83 16.68 18.77 16.7 18.7 16.7 18.61 16.71 18.51 16.72 18.4 16.72 18.28 16.72 18.14 16.71 18.03 16.7 17.92 16.68 17.8 16.64 17.69 16.6 17.58 16.54 17.48 16.47 17.38 16.39 17.29 16.3 17.21 16.19 17.14 16.08 17.08 15.95 17.04 15.81 17.01 15.65 17 15.49 17.01 15.31 17.03 15.12 17.05 15.02 17.07 14.93 17.1 14.84 17.12 14.75 17.15 14.67 17.18 14.59 17.21 14.51 17.25 14.44 17.29 14.37 17.32 14.3 17.36 14.24 17.41 14.18 17.45 14.12 17.5 14.06 17.55 14.01 17.6 13.96 17.66 13.92 17.71 13.87 17.77 13.84 17.83 13.8 17.9 13.76 17.96 13.73 18.03 13.71 18.11 13.68 18.18 13.66 18.26 13.64 18.34 13.62 18.42 13.61 18.5 13.6 18.59 13.59 18.68 13.58 18.77 13.58 18.85 13.58 18.93 13.59 19 13.59 19.07 13.6 19.14 13.61 19.21 13.63 19.27 13.64 19.33 13.65 19.39 13.67 19.43 13.68 19.48 13.69 19.52 13.71 19.55 13.72 19.58 13.73 19.61 13.74 19.62 13.74 19.5 14.38 19.5 14.38 19.5 14.38"/><polyline class="cls-4" points="19.5 14.38 19.5 14.38 19.47 14.37 19.43 14.35 19.4 14.34 19.36 14.32 19.33 14.31 19.29 14.29 19.24 14.28 19.2 14.27 19.15 14.25 19.11 14.24 19.05 14.23 19 14.23 18.95 14.22 18.89 14.22 18.83 14.22 18.77 14.22 18.77 14.22 18.71 14.22 18.65 14.22 18.58 14.23 18.51 14.24 18.44 14.26 18.37 14.29 18.31 14.32 18.24 14.36 18.17 14.41 18.11 14.47 18.05 14.54 17.99 14.63 17.93 14.73 17.88 14.85 17.84 14.98 17.8 15.13 17.8 15.13 17.78 15.21 17.77 15.29 17.77 15.37 17.77 15.45 17.78 15.53 17.79 15.6 17.82 15.67 17.84 15.74 17.88 15.8 17.92 15.86 17.98 15.92 18.03 15.97 18.1 16.01 18.18 16.04 18.26 16.07 18.35 16.09 18.35 16.09 18.38 16.1 18.42 16.11 18.46 16.11 18.51 16.12 18.57 16.12 18.62 16.12 18.68 16.12 18.75 16.12 18.81 16.11 18.87 16.1 18.93 16.08 19 16.06 19.06 16.04 19.11 16.01 19.16 15.97 19.21 15.93 19.1 16.55 19.1 16.55 19.09 16.56 19.07 16.57 19.05 16.59 19.03 16.6 19.01 16.62 18.97 16.64 18.93 16.65 18.89 16.67 18.83 16.68 18.77 16.7 18.7 16.7 18.61 16.71 18.51 16.72 18.4 16.72 18.28 16.72 18.14 16.71 18.14 16.71 18.03 16.7 17.92 16.68 17.8 16.64 17.69 16.6 17.58 16.54 17.48 16.47 17.38 16.39 17.29 16.3 17.21 16.19 17.14 16.08 17.08 15.95 17.04 15.81 17.01 15.65 17 15.49 17.01 15.31 17.03 15.12 17.03 15.12 17.05 15.02 17.07 14.93 17.1 14.84 17.12 14.75 17.15 14.67 17.18 14.59 17.21 14.51 17.25 14.44 17.29 14.37 17.32 14.3 17.36 14.24 17.41 14.18 17.45 14.12 17.5 14.06 17.55 14.01 17.6 13.96 17.66 13.92 17.71 13.87 17.77 13.84 17.83 13.8 17.9 13.76 17.96 13.73 18.03 13.71 18.11 13.68 18.18 13.66 18.26 13.64 18.34 13.62 18.42 13.61 18.5 13.6 18.59 13.59 18.68 13.58 18.77 13.58 18.77 13.58 18.85 13.58 18.93 13.59 19 13.59 19.07 13.6 19.14 13.61 19.21 13.63 19.27 13.64 19.33 13.65 19.39 13.67 19.43 13.68 19.48 13.69 19.52 13.71 19.55 13.72 19.58 13.73 19.61 13.74 19.62 13.74 19.5 14.38"/><polygon class="cls-3" points="25.53 16.72 24.85 16.72 24.9 16.47 24.9 16.44 24.86 16.49 24.82 16.53 24.77 16.57 24.73 16.6 24.69 16.63 24.64 16.66 24.6 16.68 24.55 16.7 24.51 16.71 24.46 16.73 24.41 16.74 24.36 16.74 24.32 16.75 24.27 16.75 24.22 16.76 24.17 16.76 24.04 16.75 23.93 16.72 23.82 16.68 23.72 16.63 23.63 16.56 23.55 16.48 23.48 16.4 23.43 16.3 23.38 16.2 23.34 16.09 23.31 15.98 23.29 15.86 23.28 15.74 23.29 15.62 23.3 15.5 23.32 15.38 23.36 15.25 23.4 15.12 23.45 15 23.51 14.89 23.58 14.78 23.65 14.69 23.73 14.61 23.81 14.53 23.89 14.46 23.98 14.41 24.08 14.36 24.17 14.32 24.27 14.28 24.37 14.26 24.46 14.25 24.57 14.24 24.64 14.25 24.7 14.25 24.77 14.27 24.83 14.28 24.88 14.3 24.93 14.32 24.98 14.35 25.02 14.37 25.06 14.4 25.1 14.43 25.13 14.46 25.16 14.49 25.19 14.52 25.21 14.55 25.23 14.58 25.24 14.61 25.24 14.61 25.41 13.7 26.08 13.7 25.53 16.72 25.53 16.72 25.53 16.72"/><polyline class="cls-4" points="25.53 16.72 24.85 16.72 24.9 16.47 24.9 16.44 24.9 16.44 24.86 16.49 24.82 16.53 24.77 16.57 24.73 16.6 24.69 16.63 24.64 16.66 24.6 16.68 24.55 16.7 24.51 16.71 24.46 16.73 24.41 16.74 24.36 16.74 24.32 16.75 24.27 16.75 24.22 16.76 24.17 16.76 24.17 16.76 24.04 16.75 23.93 16.72 23.82 16.68 23.72 16.63 23.63 16.56 23.55 16.48 23.48 16.4 23.43 16.3 23.38 16.2 23.34 16.09 23.31 15.98 23.29 15.86 23.28 15.74 23.29 15.62 23.3 15.5 23.32 15.38 23.32 15.38 23.36 15.25 23.4 15.12 23.45 15 23.51 14.89 23.58 14.78 23.65 14.69 23.73 14.61 23.81 14.53 23.89 14.46 23.98 14.41 24.08 14.36 24.17 14.32 24.27 14.28 24.37 14.26 24.46 14.25 24.57 14.24 24.57 14.24 24.64 14.25 24.7 14.25 24.77 14.27 24.83 14.28 24.88 14.3 24.93 14.32 24.98 14.35 25.02 14.37 25.06 14.4 25.1 14.43 25.13 14.46 25.16 14.49 25.19 14.52 25.21 14.55 25.23 14.58 25.24 14.61 25.24 14.61 25.41 13.7 26.08 13.7 25.53 16.72"/><polygon class="cls-3" points="24.42 16.16 24.49 16.16 24.55 16.14 24.61 16.13 24.66 16.1 24.72 16.07 24.77 16.04 24.81 16 24.85 15.96 24.89 15.91 24.93 15.86 24.96 15.81 24.98 15.75 25.01 15.7 25.03 15.63 25.05 15.57 25.06 15.51 25.07 15.45 25.08 15.38 25.08 15.32 25.07 15.25 25.07 15.19 25.06 15.13 25.04 15.08 25.02 15.02 25 14.98 24.97 14.93 24.93 14.9 24.9 14.87 24.86 14.84 24.81 14.82 24.77 14.81 24.71 14.8 24.65 14.81 24.59 14.82 24.53 14.83 24.47 14.86 24.43 14.89 24.38 14.93 24.34 14.96 24.29 15.01 24.26 15.06 24.22 15.11 24.19 15.17 24.16 15.23 24.14 15.29 24.12 15.35 24.1 15.42 24.09 15.49 24.07 15.59 24.08 15.7 24.09 15.81 24.13 15.92 24.18 16.02 24.24 16.09 24.32 16.14 24.42 16.16 24.42 16.16 24.42 16.16"/><polygon class="cls-3" points="9.38 16.21 9.28 16.72 8.66 16.72 8.68 16.63 8.7 16.54 8.7 16.48 8.71 16.44 8.68 16.48 8.64 16.52 8.59 16.55 8.54 16.58 8.48 16.62 8.42 16.64 8.36 16.67 8.29 16.7 8.22 16.72 8.15 16.73 8.08 16.75 8.01 16.75 7.93 16.76 7.86 16.76 7.8 16.75 7.73 16.75 7.64 16.73 7.57 16.7 7.5 16.67 7.44 16.64 7.38 16.6 7.33 16.56 7.29 16.52 7.26 16.47 7.23 16.42 7.21 16.37 7.19 16.32 7.17 16.27 7.16 16.21 7.15 16.16 7.15 16.11 7.15 16.06 7.16 15.97 7.17 15.88 7.2 15.8 7.23 15.72 7.27 15.65 7.31 15.58 7.36 15.52 7.42 15.46 7.48 15.41 7.55 15.36 7.62 15.31 7.7 15.28 7.77 15.24 7.86 15.22 7.94 15.2 8.02 15.18 8.03 15.18 8.04 15.18 8.06 15.18 8.09 15.18 8.11 15.17 8.15 15.17 8.19 15.16 8.23 15.16 8.27 15.16 8.31 15.15 8.35 15.15 8.39 15.14 8.43 15.14 8.47 15.14 8.5 15.14 8.53 15.14 8.59 15.14 8.64 15.14 8.7 15.14 8.75 15.14 8.8 15.14 8.83 15.15 8.86 15.15 8.86 15.15 8.87 15.13 8.88 15.09 8.89 15.04 8.9 15 8.89 14.95 8.87 14.9 8.84 14.86 8.8 14.82 8.75 14.79 8.7 14.77 8.64 14.76 8.58 14.76 8.51 14.75 8.44 14.75 8.36 14.75 8.28 14.75 8.2 14.76 8.12 14.77 8.05 14.77 7.97 14.78 7.9 14.79 7.83 14.8 7.76 14.81 7.7 14.82 7.65 14.84 7.61 14.85 7.57 14.87 7.54 14.88 7.72 14.32 7.77 14.3 7.83 14.29 7.88 14.27 7.94 14.26 8 14.25 8.06 14.24 8.13 14.23 8.2 14.22 8.26 14.22 8.33 14.22 8.41 14.21 8.48 14.21 8.56 14.21 8.64 14.21 8.73 14.22 8.81 14.22 8.88 14.22 8.96 14.23 9.03 14.25 9.11 14.27 9.19 14.3 9.26 14.33 9.33 14.37 9.4 14.42 9.46 14.47 9.52 14.52 9.57 14.59 9.6 14.65 9.63 14.73 9.64 14.81 9.64 14.89 9.63 14.99 9.38 16.21 9.38 16.21 9.38 16.21"/><polyline class="cls-4" points="9.38 16.21 9.28 16.72 8.66 16.72 8.66 16.72 8.68 16.63 8.7 16.54 8.7 16.48 8.71 16.44 8.71 16.44 8.68 16.48 8.64 16.52 8.59 16.55 8.54 16.58 8.48 16.62 8.42 16.64 8.36 16.67 8.29 16.7 8.22 16.72 8.15 16.73 8.08 16.75 8.01 16.75 7.93 16.76 7.86 16.76 7.8 16.75 7.73 16.75 7.73 16.75 7.64 16.73 7.57 16.7 7.5 16.67 7.44 16.64 7.38 16.6 7.33 16.56 7.29 16.52 7.26 16.47 7.23 16.42 7.21 16.37 7.19 16.32 7.17 16.27 7.16 16.21 7.15 16.16 7.15 16.11 7.15 16.06 7.15 16.06 7.16 15.97 7.17 15.88 7.2 15.8 7.23 15.72 7.27 15.65 7.31 15.58 7.36 15.52 7.42 15.46 7.48 15.41 7.55 15.36 7.62 15.31 7.7 15.28 7.77 15.24 7.86 15.22 7.94 15.2 8.02 15.18 8.02 15.18 8.03 15.18 8.04 15.18 8.06 15.18 8.09 15.18 8.11 15.17 8.15 15.17 8.19 15.16 8.23 15.16 8.27 15.16 8.31 15.15 8.35 15.15 8.39 15.14 8.43 15.14 8.47 15.14 8.5 15.14 8.53 15.14 8.53 15.14 8.59 15.14 8.64 15.14 8.7 15.14 8.75 15.14 8.8 15.14 8.83 15.15 8.86 15.15 8.86 15.15 8.86 15.15 8.87 15.13 8.88 15.09 8.89 15.04 8.9 15 8.9 15 8.89 14.95 8.87 14.9 8.84 14.86 8.8 14.82 8.75 14.79 8.7 14.77 8.64 14.76 8.58 14.76 8.58 14.76 8.51 14.75 8.44 14.75 8.36 14.75 8.28 14.75 8.2 14.76 8.12 14.77 8.05 14.77 7.97 14.78 7.9 14.79 7.83 14.8 7.76 14.81 7.7 14.82 7.65 14.84 7.61 14.85 7.57 14.87 7.54 14.88 7.72 14.32 7.72 14.32 7.77 14.3 7.83 14.29 7.88 14.27 7.94 14.26 8 14.25 8.06 14.24 8.13 14.23 8.2 14.22 8.26 14.22 8.33 14.22 8.41 14.21 8.48 14.21 8.56 14.21 8.64 14.21 8.73 14.22 8.81 14.22 8.81 14.22 8.88 14.22 8.96 14.23 9.03 14.25 9.11 14.27 9.19 14.3 9.26 14.33 9.33 14.37 9.4 14.42 9.46 14.47 9.52 14.52 9.57 14.59 9.6 14.65 9.63 14.73 9.64 14.81 9.64 14.89 9.63 14.99 9.38 16.21"/><polygon class="cls-3" points="8.79 15.61 8.79 15.59 8.78 15.58 8.76 15.57 8.74 15.57 8.71 15.57 8.68 15.56 8.64 15.56 8.61 15.56 8.57 15.57 8.53 15.57 8.49 15.57 8.45 15.58 8.41 15.58 8.38 15.59 8.35 15.6 8.32 15.61 8.3 15.61 8.28 15.62 8.26 15.63 8.23 15.64 8.2 15.65 8.17 15.67 8.13 15.68 8.1 15.7 8.06 15.73 8.03 15.75 8 15.78 7.98 15.8 7.95 15.83 7.93 15.87 7.92 15.9 7.91 15.94 7.91 16.02 7.92 16.08 7.95 16.13 7.98 16.16 8.02 16.19 8.06 16.2 8.1 16.21 8.14 16.21 8.21 16.21 8.28 16.2 8.34 16.19 8.4 16.18 8.45 16.16 8.49 16.14 8.53 16.12 8.57 16.09 8.6 16.07 8.63 16.04 8.65 16.02 8.68 15.99 8.69 15.96 8.71 15.93 8.72 15.91 8.73 15.88 8.75 15.82 8.76 15.74 8.78 15.66 8.79 15.61 8.79 15.61 8.79 15.61"/><polygon class="cls-3" points="4.23 16.72 3.56 16.72 4.12 13.68 5.28 13.68 5.39 15.49 6.19 13.68 7.4 13.68 6.83 16.72 6.16 16.72 6.58 14.45 6.56 14.45 5.56 16.72 4.81 16.72 4.8 16.63 4.79 16.38 4.76 16.02 4.74 15.61 4.71 15.19 4.69 14.83 4.68 14.56 4.67 14.45 4.66 14.45 4.65 14.45 4.63 14.45 4.63 14.45 4.23 16.72 4.23 16.72 4.23 16.72"/><polyline class="cls-4" points="4.23 16.72 3.56 16.72 4.12 13.68 5.28 13.68 5.39 15.49 6.19 13.68 7.4 13.68 6.83 16.72 6.16 16.72 6.58 14.45 6.56 14.45 5.56 16.72 4.81 16.72 4.81 16.72 4.8 16.63 4.79 16.38 4.76 16.02 4.74 15.61 4.71 15.19 4.69 14.83 4.68 14.56 4.67 14.45 4.67 14.45 4.66 14.45 4.65 14.45 4.63 14.45 4.63 14.45 4.23 16.72"/><polygon class="cls-3" points="21.53 16.21 21.43 16.72 20.82 16.72 20.82 16.63 20.83 16.55 20.83 16.48 20.83 16.45 20.8 16.49 20.76 16.52 20.72 16.56 20.67 16.59 20.62 16.62 20.56 16.65 20.5 16.67 20.44 16.7 20.37 16.72 20.3 16.73 20.23 16.75 20.16 16.75 20.09 16.76 20.02 16.76 19.96 16.75 19.89 16.75 19.8 16.73 19.73 16.7 19.66 16.67 19.59 16.64 19.54 16.6 19.49 16.56 19.45 16.52 19.42 16.47 19.39 16.42 19.37 16.37 19.35 16.32 19.34 16.27 19.33 16.21 19.32 16.16 19.32 16.11 19.32 16.06 19.32 15.97 19.33 15.88 19.36 15.8 19.39 15.72 19.43 15.65 19.47 15.58 19.52 15.52 19.58 15.46 19.64 15.41 19.71 15.36 19.78 15.31 19.86 15.28 19.93 15.24 20.01 15.22 20.09 15.2 20.18 15.18 20.18 15.18 20.19 15.18 20.21 15.18 20.24 15.18 20.27 15.17 20.3 15.17 20.34 15.16 20.38 15.16 20.42 15.16 20.46 15.15 20.5 15.15 20.55 15.14 20.59 15.14 20.62 15.14 20.65 15.14 20.68 15.14 20.74 15.14 20.8 15.14 20.86 15.14 20.91 15.14 20.95 15.14 21 15.15 21.02 15.15 21.03 15.15 21.03 15.13 21.04 15.09 21.05 15.04 21.05 15 21.04 14.95 21.02 14.9 20.99 14.86 20.95 14.82 20.91 14.79 20.86 14.77 20.8 14.76 20.75 14.76 20.68 14.75 20.6 14.75 20.53 14.75 20.45 14.75 20.37 14.76 20.29 14.77 20.21 14.77 20.14 14.78 20.06 14.79 19.99 14.8 19.93 14.81 19.87 14.82 19.81 14.84 19.77 14.85 19.74 14.87 19.71 14.88 19.88 14.32 19.93 14.3 19.99 14.29 20.05 14.27 20.11 14.26 20.17 14.25 20.23 14.24 20.29 14.23 20.36 14.22 20.43 14.22 20.5 14.22 20.57 14.21 20.64 14.21 20.72 14.21 20.8 14.21 20.88 14.22 20.96 14.22 21.03 14.22 21.11 14.23 21.18 14.25 21.26 14.27 21.34 14.3 21.41 14.33 21.49 14.37 21.55 14.42 21.62 14.47 21.67 14.52 21.72 14.59 21.76 14.65 21.79 14.73 21.8 14.81 21.8 14.89 21.79 14.99 21.53 16.21 21.53 16.21 21.53 16.21"/><polygon class="cls-3" points="21.43 16.74 21.45 16.73 21.55 16.21 21.52 16.21 21.42 16.72 21.43 16.71 21.43 16.74 21.45 16.74 21.45 16.73 21.43 16.74 21.43 16.74 21.43 16.74"/><polygon class="cls-3" points="20.8 16.72 20.82 16.74 21.43 16.74 21.43 16.71 20.82 16.71 20.83 16.72 20.8 16.72 20.8 16.74 20.82 16.74 20.8 16.72 20.8 16.72 20.8 16.72"/><polygon class="cls-3" points="20.84 16.46 20.82 16.45 20.81 16.48 20.81 16.55 20.81 16.63 20.8 16.72 20.83 16.72 20.84 16.63 20.84 16.55 20.84 16.48 20.84 16.46 20.82 16.45 20.84 16.46 20.84 16.46 20.84 16.46"/><polygon class="cls-3" points="19.89 16.76 19.89 16.76 19.96 16.77 20.02 16.78 20.09 16.77 20.16 16.77 20.24 16.76 20.3 16.75 20.37 16.73 20.44 16.71 20.5 16.69 20.57 16.66 20.63 16.63 20.68 16.6 20.73 16.57 20.77 16.54 20.81 16.5 20.84 16.46 20.82 16.45 20.79 16.48 20.75 16.51 20.71 16.55 20.66 16.58 20.61 16.61 20.55 16.63 20.49 16.66 20.43 16.68 20.37 16.7 20.3 16.72 20.23 16.73 20.16 16.74 20.09 16.75 20.02 16.75 19.96 16.74 19.89 16.73 19.89 16.73 19.89 16.76 19.89 16.76 19.89 16.76"/><polygon class="cls-3" points="19.3 16.06 19.3 16.06 19.3 16.11 19.3 16.16 19.31 16.22 19.32 16.27 19.33 16.32 19.35 16.37 19.38 16.43 19.41 16.48 19.44 16.52 19.48 16.57 19.53 16.61 19.59 16.65 19.65 16.69 19.72 16.72 19.8 16.74 19.89 16.76 19.89 16.73 19.81 16.71 19.73 16.69 19.66 16.66 19.6 16.63 19.55 16.59 19.51 16.55 19.47 16.5 19.43 16.46 19.41 16.41 19.38 16.36 19.36 16.32 19.35 16.27 19.34 16.21 19.33 16.16 19.33 16.11 19.33 16.06 19.33 16.06 19.3 16.06 19.3 16.06 19.3 16.06"/><polygon class="cls-3" points="20.18 15.17 20.18 15.17 20.09 15.18 20.01 15.21 19.93 15.23 19.85 15.26 19.77 15.3 19.7 15.35 19.63 15.39 19.57 15.45 19.51 15.51 19.46 15.57 19.41 15.64 19.37 15.72 19.34 15.8 19.32 15.88 19.3 15.97 19.3 16.06 19.33 16.06 19.33 15.97 19.35 15.88 19.37 15.81 19.4 15.73 19.44 15.66 19.48 15.59 19.54 15.53 19.59 15.47 19.65 15.42 19.72 15.37 19.79 15.33 19.86 15.29 19.94 15.26 20.02 15.23 20.1 15.21 20.18 15.2 20.18 15.2 20.18 15.17 20.18 15.17 20.18 15.17"/><polygon class="cls-3" points="20.68 15.12 20.68 15.12 20.65 15.12 20.62 15.13 20.59 15.13 20.55 15.13 20.5 15.13 20.46 15.14 20.42 15.14 20.38 15.15 20.34 15.15 20.3 15.16 20.27 15.16 20.24 15.16 20.21 15.16 20.19 15.17 20.18 15.17 20.18 15.17 20.18 15.2 20.18 15.2 20.2 15.2 20.21 15.19 20.24 15.19 20.27 15.19 20.3 15.18 20.34 15.18 20.38 15.18 20.42 15.17 20.46 15.16 20.5 15.16 20.55 15.16 20.59 15.16 20.62 15.15 20.65 15.15 20.68 15.15 20.68 15.15 20.68 15.12 20.68 15.12 20.68 15.12"/><polygon class="cls-3" points="21.01 15.15 21.03 15.13 21.02 15.13 21 15.13 20.95 15.13 20.91 15.13 20.86 15.13 20.8 15.13 20.74 15.12 20.68 15.12 20.68 15.15 20.74 15.15 20.8 15.15 20.86 15.16 20.91 15.16 20.95 15.16 21 15.16 21.02 15.16 21.03 15.16 21.04 15.15 21.03 15.16 21.04 15.16 21.04 15.15 21.01 15.15 21.01 15.15 21.01 15.15"/><polygon class="cls-3" points="21.04 15 21.03 15 21.03 15.04 21.02 15.09 21.02 15.13 21.01 15.15 21.04 15.15 21.05 15.13 21.05 15.09 21.06 15.04 21.07 15 21.07 15 21.04 15 21.04 15 21.04 15"/><polygon class="cls-3" points="20.75 14.77 20.75 14.77 20.8 14.77 20.85 14.79 20.9 14.81 20.94 14.84 20.98 14.87 21.01 14.91 21.03 14.95 21.04 15 21.07 15 21.06 14.95 21.04 14.89 21 14.85 20.96 14.81 20.92 14.78 20.86 14.76 20.81 14.75 20.75 14.74 20.75 14.74 20.75 14.77 20.75 14.77 20.75 14.77"/><polygon class="cls-3" points="19.69 14.88 19.72 14.89 19.74 14.88 19.77 14.87 19.82 14.85 19.87 14.84 19.93 14.83 19.99 14.82 20.06 14.8 20.14 14.79 20.21 14.79 20.29 14.78 20.37 14.77 20.45 14.77 20.53 14.77 20.6 14.77 20.68 14.77 20.75 14.77 20.75 14.74 20.68 14.74 20.6 14.73 20.53 14.73 20.45 14.74 20.37 14.74 20.29 14.75 20.21 14.76 20.14 14.77 20.06 14.78 19.99 14.79 19.93 14.8 19.87 14.81 19.81 14.82 19.77 14.84 19.73 14.86 19.7 14.87 19.72 14.88 19.69 14.88 19.69 14.88 19.69 14.88"/><polygon class="cls-3" points="19.88 14.31 19.87 14.32 19.69 14.88 19.72 14.88 19.89 14.33 19.89 14.34 19.88 14.31 19.87 14.31 19.87 14.32 19.88 14.31 19.88 14.31 19.88 14.31"/><polygon class="cls-3" points="20.96 14.21 20.96 14.21 20.88 14.2 20.8 14.2 20.72 14.2 20.64 14.2 20.57 14.2 20.5 14.2 20.43 14.21 20.36 14.21 20.29 14.21 20.23 14.22 20.16 14.23 20.1 14.24 20.04 14.26 19.99 14.27 19.93 14.29 19.88 14.31 19.89 14.34 19.94 14.32 20 14.3 20.05 14.28 20.11 14.27 20.17 14.26 20.23 14.25 20.29 14.24 20.36 14.24 20.43 14.23 20.5 14.23 20.57 14.23 20.64 14.23 20.72 14.23 20.8 14.23 20.88 14.23 20.96 14.23 20.96 14.23 20.96 14.21 20.96 14.21 20.96 14.21"/><polygon class="cls-3" points="21.8 14.99 21.8 14.99 21.82 14.89 21.82 14.81 21.8 14.73 21.77 14.65 21.73 14.58 21.68 14.51 21.63 14.46 21.57 14.4 21.49 14.36 21.42 14.32 21.34 14.29 21.27 14.26 21.19 14.24 21.11 14.22 21.03 14.21 20.96 14.21 20.96 14.23 21.03 14.24 21.11 14.25 21.18 14.27 21.26 14.29 21.33 14.31 21.41 14.35 21.48 14.38 21.55 14.43 21.61 14.48 21.66 14.53 21.71 14.59 21.74 14.66 21.77 14.73 21.79 14.81 21.79 14.89 21.78 14.98 21.78 14.98 21.8 14.99 21.8 14.99 21.8 14.99"/><polygon class="cls-3" points="21.55 16.21 21.55 16.21 21.8 14.99 21.78 14.98 21.52 16.21 21.52 16.21 21.55 16.21 21.55 16.21 21.55 16.21"/><polygon class="cls-3" points="20.94 15.61 20.94 15.59 20.93 15.58 20.91 15.57 20.88 15.57 20.86 15.56 20.83 15.56 20.79 15.56 20.75 15.56 20.71 15.57 20.67 15.57 20.64 15.58 20.6 15.58 20.56 15.59 20.53 15.59 20.5 15.6 20.47 15.61 20.46 15.61 20.44 15.61 20.41 15.62 20.39 15.63 20.35 15.64 20.32 15.66 20.29 15.68 20.26 15.7 20.23 15.72 20.19 15.74 20.17 15.77 20.14 15.8 20.12 15.83 20.1 15.86 20.09 15.9 20.08 15.94 20.08 16.02 20.09 16.08 20.11 16.13 20.14 16.16 20.17 16.19 20.22 16.2 20.26 16.21 20.3 16.21 20.37 16.21 20.44 16.2 20.5 16.19 20.56 16.17 20.61 16.15 20.66 16.13 20.71 16.11 20.75 16.08 20.78 16.06 20.81 16.03 20.84 16 20.86 15.97 20.88 15.94 20.89 15.91 20.9 15.88 20.9 15.86 20.91 15.79 20.93 15.73 20.94 15.66 20.94 15.61 20.94 15.61 20.94 15.61"/><polygon class="cls-3" points="21.72 16.72 22.41 16.72 22.41 16.72 22.66 15.41 22.66 15.36 22.68 15.3 22.69 15.25 22.71 15.2 22.74 15.15 22.77 15.1 22.8 15.06 22.84 15.01 22.88 14.97 22.93 14.94 22.99 14.9 23.05 14.87 23.12 14.85 23.2 14.83 23.29 14.82 23.38 14.81 23.42 14.81 23.44 14.81 23.44 14.81 23.44 14.81 23.55 14.22 23.48 14.22 23.42 14.23 23.36 14.24 23.3 14.26 23.25 14.28 23.19 14.3 23.14 14.32 23.1 14.35 23.05 14.39 23.01 14.42 22.97 14.46 22.93 14.49 22.9 14.53 22.86 14.57 22.82 14.62 22.79 14.66 22.86 14.24 22.18 14.24 21.72 16.72 21.72 16.72 21.72 16.72 21.72 16.72"/><polyline class="cls-4" points="21.72 16.72 22.41 16.72 22.41 16.72 22.66 15.41 22.66 15.41 22.66 15.36 22.68 15.3 22.69 15.25 22.71 15.2 22.74 15.15 22.77 15.1 22.8 15.06 22.84 15.01 22.88 14.97 22.93 14.94 22.99 14.9 23.05 14.87 23.12 14.85 23.2 14.83 23.29 14.82 23.38 14.81 23.38 14.81 23.42 14.81 23.44 14.81 23.44 14.81 23.44 14.81 23.55 14.22 23.55 14.22 23.48 14.22 23.42 14.23 23.36 14.24 23.3 14.26 23.25 14.28 23.19 14.3 23.14 14.32 23.1 14.35 23.05 14.39 23.01 14.42 22.97 14.46 22.93 14.49 22.9 14.53 22.86 14.57 22.82 14.62 22.79 14.66 22.86 14.24 22.18 14.24 21.72 16.72 21.72 16.72"/><polygon class="cls-3" points="15.23 16.72 15.92 16.72 15.94 16.72 16.17 15.41 16.18 15.36 16.19 15.31 16.2 15.26 16.22 15.21 16.24 15.16 16.27 15.12 16.3 15.08 16.33 15.04 16.37 15.01 16.41 14.97 16.47 14.94 16.53 14.92 16.59 14.9 16.67 14.88 16.75 14.87 16.85 14.86 16.86 14.86 16.87 14.86 16.88 14.87 16.89 14.87 16.9 14.87 16.91 14.87 16.92 14.87 16.92 14.87 16.93 14.86 16.93 14.83 16.94 14.79 16.95 14.74 16.97 14.68 16.99 14.62 17.01 14.55 17.03 14.49 17.05 14.44 17.08 14.4 17.1 14.36 17.13 14.32 17.15 14.28 17.16 14.25 17.18 14.24 17.18 14.23 17.18 14.23 17.17 14.23 17.16 14.23 17.14 14.22 17.12 14.22 17.1 14.22 17.09 14.22 17.07 14.22 16.99 14.22 16.93 14.23 16.86 14.24 16.8 14.26 16.75 14.27 16.7 14.3 16.65 14.32 16.6 14.35 16.56 14.38 16.52 14.41 16.49 14.45 16.45 14.49 16.41 14.53 16.38 14.57 16.34 14.62 16.3 14.66 16.39 14.24 15.69 14.24 15.23 16.72 15.23 16.72 15.23 16.72 15.23 16.72"/><polyline class="cls-4" points="15.23 16.72 15.92 16.72 15.94 16.72 16.17 15.41 16.17 15.41 16.18 15.36 16.19 15.31 16.2 15.26 16.22 15.21 16.24 15.16 16.27 15.12 16.3 15.08 16.33 15.04 16.37 15.01 16.41 14.97 16.47 14.94 16.53 14.92 16.59 14.9 16.67 14.88 16.75 14.87 16.85 14.86 16.85 14.86 16.86 14.86 16.87 14.86 16.88 14.87 16.89 14.87 16.9 14.87 16.91 14.87 16.92 14.87 16.92 14.87 16.92 14.87 16.93 14.86 16.93 14.83 16.94 14.79 16.95 14.74 16.97 14.68 16.99 14.62 17.01 14.55 17.03 14.49 17.03 14.49 17.05 14.44 17.08 14.4 17.1 14.36 17.13 14.32 17.15 14.28 17.16 14.25 17.18 14.24 17.18 14.23 17.18 14.23 17.18 14.23 17.17 14.23 17.16 14.23 17.14 14.22 17.12 14.22 17.1 14.22 17.09 14.22 17.07 14.22 17.07 14.22 16.99 14.22 16.93 14.23 16.86 14.24 16.8 14.26 16.75 14.27 16.7 14.3 16.65 14.32 16.6 14.35 16.56 14.38 16.52 14.41 16.49 14.45 16.45 14.49 16.41 14.53 16.38 14.57 16.34 14.62 16.3 14.66 16.39 14.24 15.69 14.24 15.23 16.72 15.23 16.72"/><polygon class="cls-5" points="19.86 21.04 20.23 21.03 20.6 21 20.96 20.96 21.32 20.9 21.67 20.82 22.02 20.73 22.36 20.62 22.69 20.5 23.01 20.36 23.32 20.21 23.63 20.04 23.92 19.86 24.21 19.67 24.48 19.47 24.75 19.25 25 19.02 25.24 18.79 25.47 18.54 25.68 18.28 25.89 18.01 26.08 17.73 26.25 17.44 26.41 17.14 26.56 16.84 26.69 16.53 26.8 16.21 26.9 15.88 26.98 15.55 27.05 15.21 27.09 14.87 27.12 14.52 27.13 14.16 27.12 13.81 27.09 13.46 27.05 13.12 26.98 12.79 26.9 12.46 26.8 12.13 26.69 11.81 26.56 11.5 26.41 11.2 26.25 10.9 26.08 10.62 25.89 10.34 25.68 10.07 25.47 9.81 25.24 9.56 25 9.32 24.75 9.1 24.48 8.88 24.21 8.68 23.92 8.49 23.63 8.31 23.32 8.14 23.01 7.99 22.69 7.86 22.36 7.73 22.02 7.62 21.67 7.53 21.32 7.46 20.96 7.39 20.6 7.35 20.23 7.33 19.86 7.32 19.48 7.33 19.11 7.35 18.75 7.39 18.39 7.46 18.04 7.53 17.7 7.62 17.36 7.73 17.03 7.86 16.71 7.99 16.4 8.14 16.1 8.31 15.8 8.49 15.52 8.68 15.24 8.88 14.98 9.1 14.73 9.32 14.49 9.56 14.26 9.81 14.05 10.07 13.85 10.34 13.66 10.62 13.48 10.9 13.32 11.2 13.18 11.5 13.05 11.81 12.94 12.13 12.84 12.46 12.76 12.79 12.69 13.12 12.65 13.46 12.62 13.81 12.61 14.16 12.62 14.52 12.65 14.87 12.69 15.21 12.76 15.55 12.84 15.88 12.94 16.21 13.05 16.53 13.18 16.84 13.32 17.14 13.48 17.44 13.66 17.73 13.85 18.01 14.05 18.28 14.26 18.54 14.49 18.79 14.73 19.02 14.98 19.25 15.24 19.47 15.52 19.67 15.8 19.86 16.1 20.04 16.4 20.21 16.71 20.36 17.03 20.5 17.36 20.62 17.7 20.73 18.04 20.82 18.39 20.9 18.75 20.96 19.11 21 19.48 21.03 19.86 21.04 19.86 21.04 19.86 21.04"/><polygon class="cls-6" points="10.14 21.04 10.52 21.03 10.89 21 11.25 20.96 11.61 20.9 11.96 20.82 12.3 20.73 12.64 20.62 12.97 20.5 13.29 20.36 13.6 20.21 13.9 20.04 14.2 19.86 14.48 19.67 14.76 19.47 15.02 19.25 15.27 19.02 15.51 18.79 15.74 18.54 15.95 18.28 16.15 18.01 16.34 17.73 16.52 17.44 16.68 17.14 16.82 16.84 16.95 16.53 17.06 16.21 17.16 15.88 17.24 15.55 17.31 15.21 17.35 14.87 17.38 14.52 17.39 14.16 17.38 13.81 17.35 13.46 17.31 13.12 17.24 12.79 17.16 12.46 17.06 12.13 16.95 11.81 16.82 11.5 16.68 11.2 16.52 10.9 16.34 10.62 16.15 10.34 15.95 10.07 15.74 9.81 15.51 9.56 15.27 9.32 15.02 9.1 14.76 8.88 14.48 8.68 14.2 8.49 13.9 8.31 13.6 8.14 13.29 7.99 12.97 7.86 12.64 7.73 12.3 7.62 11.96 7.53 11.61 7.46 11.25 7.39 10.89 7.35 10.52 7.33 10.14 7.32 9.77 7.33 9.4 7.35 9.04 7.39 8.68 7.46 8.33 7.53 7.98 7.62 7.64 7.73 7.31 7.86 6.99 7.99 6.68 8.14 6.37 8.31 6.08 8.49 5.79 8.68 5.52 8.88 5.25 9.1 5 9.32 4.76 9.56 4.53 9.81 4.32 10.07 4.11 10.34 3.92 10.62 3.75 10.9 3.59 11.2 3.44 11.5 3.31 11.81 3.2 12.13 3.1 12.46 3.02 12.79 2.96 13.12 2.91 13.46 2.88 13.81 2.87 14.16 2.88 14.52 2.91 14.87 2.96 15.21 3.02 15.55 3.1 15.88 3.2 16.21 3.31 16.53 3.44 16.84 3.59 17.14 3.75 17.44 3.92 17.73 4.11 18.01 4.32 18.28 4.53 18.54 4.76 18.79 5 19.02 5.25 19.25 5.52 19.47 5.79 19.67 6.08 19.86 6.37 20.04 6.68 20.21 6.99 20.36 7.31 20.5 7.64 20.62 7.98 20.73 8.33 20.82 8.68 20.9 9.04 20.96 9.4 21 9.77 21.03 10.14 21.04 10.14 21.04 10.14 21.04"/><polygon class="cls-5" points="14.15 9.95 18.01 9.95 18.01 9.57 14.48 9.57 14.15 9.95 14.15 9.95 14.15 9.95"/><polygon class="cls-5" points="13.57 10.78 18.01 10.78 18.01 10.4 13.8 10.4 13.57 10.78 13.57 10.78 13.57 10.78"/><polygon class="cls-5" points="13.14 11.6 18.01 11.6 18.01 11.23 13.31 11.23 13.14 11.6 13.14 11.6 13.14 11.6"/><polygon class="cls-5" points="12.85 12.43 18.01 12.43 18.01 12.06 12.97 12.06 12.85 12.43 12.85 12.43 12.85 12.43"/><polygon class="cls-5" points="13.02 16.43 18.02 16.43 18.02 16.06 12.89 16.06 13.02 16.43 13.02 16.43 13.02 16.43"/><polygon class="cls-5" points="13.39 17.26 18.02 17.26 18.02 16.89 13.2 16.89 13.39 17.26 13.39 17.26 13.39 17.26"/><polygon class="cls-5" points="13.9 18.09 18.02 18.09 18.02 17.72 13.66 17.72 13.9 18.09 13.9 18.09 13.9 18.09"/><polygon class="cls-5" points="14.62 18.92 18.02 18.92 18.02 18.54 14.28 18.54 14.62 18.92 14.62 18.92 14.62 18.92"/><polygon class="cls-5" points="12.67 13.26 18.01 13.26 18.01 12.88 12.75 12.88 12.67 13.26 12.67 13.26 12.67 13.26"/><polygon class="cls-5" points="15.92 15.61 17.96 15.61 17.96 15.24 16 15.24 15.92 15.61 15.92 15.61 15.92 15.61"/><polygon class="cls-5" points="16.09 14.78 17.96 14.78 17.96 14.41 16.16 14.41 16.09 14.78 16.09 14.78 16.09 14.78"/><polygon class="cls-5" points="12.54 14.41 13.07 14.41 13.07 14.78 12.56 14.78 12.54 14.41 12.54 14.41 12.54 14.41"/><polygon class="cls-7" points="11.55 13.96 11.52 13.95 11.48 13.95 11.45 13.94 11.42 13.94 11.39 13.94 11.36 13.93 11.32 13.93 11.29 13.92 11.26 13.92 11.22 13.91 11.17 13.91 11.13 13.91 11.07 13.91 11.02 13.91 10.96 13.92 10.88 13.92 10.84 13.93 10.79 13.94 10.75 13.95 10.71 13.96 10.68 13.98 10.64 14 10.62 14.02 10.6 14.04 10.58 14.07 10.57 14.09 10.56 14.12 10.56 14.15 10.57 14.18 10.58 14.21 10.6 14.24 10.63 14.27 10.68 14.31 10.73 14.35 10.8 14.38 10.88 14.4 10.96 14.43 11.04 14.45 11.12 14.48 11.2 14.51 11.27 14.55 11.34 14.6 11.4 14.65 11.45 14.73 11.49 14.81 11.51 14.92 11.52 15.04 11.51 15.19 11.5 15.3 11.47 15.39 11.43 15.48 11.38 15.56 11.32 15.63 11.26 15.68 11.19 15.73 11.11 15.78 11.04 15.81 10.96 15.84 10.87 15.87 10.79 15.88 10.7 15.9 10.62 15.9 10.54 15.91 10.46 15.91 10.36 15.91 10.26 15.91 10.18 15.91 10.1 15.91 10.02 15.9 9.96 15.9 9.9 15.89 9.84 15.89 9.79 15.88 9.74 15.88 9.7 15.87 9.65 15.86 9.61 15.85 9.57 15.83 9.53 15.82 9.49 15.8 9.6 15.29 9.63 15.3 9.65 15.3 9.69 15.31 9.73 15.32 9.77 15.33 9.82 15.34 9.88 15.35 9.93 15.36 9.99 15.37 10.06 15.38 10.13 15.39 10.19 15.4 10.26 15.4 10.34 15.4 10.41 15.4 10.48 15.4 10.55 15.38 10.6 15.37 10.65 15.34 10.68 15.31 10.71 15.28 10.73 15.24 10.74 15.2 10.75 15.17 10.75 15.1 10.73 15.04 10.69 14.99 10.63 14.96 10.56 14.92 10.47 14.89 10.37 14.85 10.28 14.82 10.18 14.78 10.09 14.73 10 14.67 9.92 14.6 9.86 14.51 9.82 14.4 9.8 14.28 9.8 14.13 9.81 14.04 9.83 13.95 9.85 13.88 9.88 13.8 9.92 13.73 9.96 13.67 10.02 13.61 10.08 13.56 10.15 13.52 10.23 13.48 10.31 13.45 10.41 13.42 10.52 13.4 10.64 13.38 10.78 13.38 10.92 13.37 11.01 13.37 11.09 13.38 11.17 13.38 11.24 13.38 11.3 13.38 11.36 13.39 11.4 13.39 11.45 13.4 11.49 13.4 11.53 13.41 11.56 13.41 11.59 13.42 11.61 13.42 11.63 13.43 11.65 13.43 11.68 13.43 11.55 13.96 11.55 13.96 11.55 13.96"/><polyline class="cls-8" points="11.55 13.96 11.55 13.96 11.52 13.95 11.48 13.95 11.45 13.94 11.42 13.94 11.39 13.94 11.36 13.93 11.32 13.93 11.29 13.92 11.26 13.92 11.22 13.91 11.17 13.91 11.13 13.91 11.07 13.91 11.02 13.91 10.96 13.92 10.88 13.92 10.88 13.92 10.84 13.93 10.79 13.94 10.75 13.95 10.71 13.96 10.68 13.98 10.64 14 10.62 14.02 10.6 14.04 10.58 14.07 10.57 14.09 10.56 14.12 10.56 14.15 10.57 14.18 10.58 14.21 10.6 14.24 10.63 14.27 10.63 14.27 10.68 14.31 10.73 14.35 10.8 14.38 10.88 14.4 10.96 14.43 11.04 14.45 11.12 14.48 11.2 14.51 11.27 14.55 11.34 14.6 11.4 14.65 11.45 14.73 11.49 14.81 11.51 14.92 11.52 15.04 11.51 15.19 11.51 15.19 11.5 15.3 11.47 15.39 11.43 15.48 11.38 15.56 11.32 15.63 11.26 15.68 11.19 15.73 11.11 15.78 11.04 15.81 10.96 15.84 10.87 15.87 10.79 15.88 10.7 15.9 10.62 15.9 10.54 15.91 10.46 15.91 10.46 15.91 10.36 15.91 10.26 15.91 10.18 15.91 10.1 15.91 10.02 15.9 9.96 15.9 9.9 15.89 9.84 15.89 9.79 15.88 9.74 15.88 9.7 15.87 9.65 15.86 9.61 15.85 9.57 15.83 9.53 15.82 9.49 15.8 9.6 15.29 9.6 15.29 9.63 15.3 9.65 15.3 9.69 15.31 9.73 15.32 9.77 15.33 9.82 15.34 9.88 15.35 9.93 15.36 9.99 15.37 10.06 15.38 10.13 15.39 10.19 15.4 10.26 15.4 10.34 15.4 10.41 15.4 10.48 15.4 10.48 15.4 10.55 15.38 10.6 15.37 10.65 15.34 10.68 15.31 10.71 15.28 10.73 15.24 10.74 15.2 10.75 15.17 10.75 15.17 10.75 15.1 10.73 15.04 10.69 14.99 10.63 14.96 10.56 14.92 10.47 14.89 10.37 14.85 10.28 14.82 10.18 14.78 10.09 14.73 10 14.67 9.92 14.6 9.86 14.51 9.82 14.4 9.8 14.28 9.8 14.13 9.8 14.13 9.81 14.04 9.83 13.95 9.85 13.88 9.88 13.8 9.92 13.73 9.96 13.67 10.02 13.61 10.08 13.56 10.15 13.52 10.23 13.48 10.31 13.45 10.41 13.42 10.52 13.4 10.64 13.38 10.78 13.38 10.92 13.37 10.92 13.37 11.01 13.37 11.09 13.38 11.17 13.38 11.24 13.38 11.3 13.38 11.36 13.39 11.4 13.39 11.45 13.4 11.49 13.4 11.53 13.41 11.56 13.41 11.59 13.42 11.61 13.42 11.63 13.43 11.65 13.43 11.68 13.43 11.55 13.96"/><polygon class="cls-7" points="12.13 12.86 12.81 12.86 12.71 13.42 13.12 13.42 13.03 13.94 12.6 13.93 12.36 15.22 12.36 15.27 12.37 15.31 12.4 15.34 12.43 15.37 12.47 15.38 12.52 15.4 12.58 15.4 12.63 15.41 12.69 15.41 12.74 15.4 12.78 15.4 12.82 15.39 12.85 15.38 12.87 15.37 12.89 15.37 12.89 15.36 12.81 15.79 12.79 15.8 12.77 15.81 12.76 15.82 12.74 15.83 12.72 15.84 12.7 15.85 12.68 15.85 12.66 15.86 12.63 15.87 12.61 15.87 12.58 15.88 12.55 15.88 12.52 15.89 12.48 15.89 12.44 15.89 12.4 15.9 12.22 15.9 12.12 15.89 12.03 15.88 11.95 15.87 11.89 15.85 11.83 15.83 11.79 15.81 11.74 15.78 11.71 15.75 11.69 15.72 11.67 15.68 11.66 15.64 11.65 15.6 11.65 15.55 11.65 15.5 11.65 15.44 11.66 15.39 12.13 12.86 12.13 12.86 12.13 12.86"/><polyline class="cls-8" points="12.13 12.86 12.81 12.86 12.71 13.42 13.12 13.42 13.03 13.94 12.6 13.93 12.36 15.22 12.36 15.22 12.36 15.27 12.37 15.31 12.4 15.34 12.43 15.37 12.47 15.38 12.52 15.4 12.58 15.4 12.63 15.41 12.63 15.41 12.69 15.41 12.74 15.4 12.78 15.4 12.82 15.39 12.85 15.38 12.87 15.37 12.89 15.37 12.89 15.36 12.81 15.79 12.81 15.79 12.79 15.8 12.77 15.81 12.76 15.82 12.74 15.83 12.72 15.84 12.7 15.85 12.68 15.85 12.66 15.86 12.63 15.87 12.61 15.87 12.58 15.88 12.55 15.88 12.52 15.89 12.48 15.89 12.44 15.89 12.4 15.9 12.22 15.9 12.22 15.9 12.12 15.89 12.03 15.88 11.95 15.87 11.89 15.85 11.83 15.83 11.79 15.81 11.74 15.78 11.71 15.75 11.69 15.72 11.67 15.68 11.66 15.64 11.65 15.6 11.65 15.55 11.65 15.5 11.65 15.44 11.66 15.39 12.13 12.86"/><polygon class="cls-7" points="13.66 14.82 13.65 14.86 13.65 14.9 13.65 14.94 13.66 14.99 13.68 15.03 13.7 15.07 13.73 15.12 13.76 15.15 13.79 15.19 13.83 15.23 13.87 15.26 13.91 15.29 13.95 15.32 14 15.34 14.05 15.35 14.1 15.36 14.16 15.37 14.23 15.38 14.29 15.39 14.35 15.39 14.42 15.39 14.48 15.39 14.55 15.39 14.61 15.39 14.68 15.38 14.74 15.37 14.81 15.35 14.88 15.33 14.95 15.3 15.02 15.28 15.09 15.24 15.16 15.2 15.06 15.77 15.02 15.79 14.98 15.81 14.94 15.82 14.91 15.84 14.87 15.85 14.83 15.86 14.79 15.87 14.75 15.88 14.71 15.88 14.66 15.89 14.61 15.89 14.55 15.89 14.49 15.9 14.42 15.9 14.34 15.9 14.26 15.9 14.14 15.9 14.02 15.89 13.9 15.87 13.78 15.84 13.66 15.81 13.54 15.76 13.43 15.71 13.33 15.64 13.23 15.56 13.15 15.46 13.08 15.36 13.02 15.24 12.98 15.1 12.95 14.94 12.94 14.77 12.96 14.58 12.96 14.51 12.98 14.42 13 14.33 13.03 14.24 13.06 14.14 13.11 14.04 13.16 13.94 13.23 13.84 13.31 13.74 13.41 13.66 13.51 13.58 13.64 13.51 13.78 13.45 13.94 13.41 14.11 13.38 14.31 13.37 14.41 13.38 14.51 13.38 14.61 13.4 14.71 13.42 14.81 13.46 14.9 13.5 14.99 13.55 15.07 13.62 15.14 13.7 15.21 13.79 15.26 13.9 15.29 14.02 15.31 14.16 15.31 14.32 15.29 14.49 15.26 14.69 15.24 14.83 13.46 14.83 13.57 14.37 14.64 14.37 14.65 14.31 14.65 14.26 14.64 14.21 14.63 14.16 14.62 14.12 14.6 14.08 14.57 14.04 14.55 14.01 14.52 13.98 14.49 13.96 14.45 13.94 14.41 13.92 14.38 13.91 14.34 13.9 14.29 13.89 14.25 13.89 14.2 13.89 14.16 13.9 14.12 13.9 14.08 13.92 14.04 13.94 14 13.96 13.96 13.98 13.93 14.01 13.9 14.04 13.87 14.08 13.84 14.12 13.82 14.15 13.8 14.2 13.78 14.24 13.77 14.29 13.76 14.34 13.66 14.82 13.66 14.82 13.66 14.82"/><polyline class="cls-8" points="13.66 14.82 13.66 14.82 13.65 14.86 13.65 14.9 13.65 14.94 13.66 14.99 13.68 15.03 13.7 15.07 13.73 15.12 13.76 15.15 13.79 15.19 13.83 15.23 13.87 15.26 13.91 15.29 13.95 15.32 14 15.34 14.05 15.35 14.1 15.36 14.1 15.36 14.16 15.37 14.23 15.38 14.29 15.39 14.35 15.39 14.42 15.39 14.48 15.39 14.55 15.39 14.61 15.39 14.68 15.38 14.74 15.37 14.81 15.35 14.88 15.33 14.95 15.3 15.02 15.28 15.09 15.24 15.16 15.2 15.06 15.77 15.06 15.77 15.02 15.79 14.98 15.81 14.94 15.82 14.91 15.84 14.87 15.85 14.83 15.86 14.79 15.87 14.75 15.88 14.71 15.88 14.66 15.89 14.61 15.89 14.55 15.89 14.49 15.9 14.42 15.9 14.34 15.9 14.26 15.9 14.26 15.9 14.14 15.9 14.02 15.89 13.9 15.87 13.78 15.84 13.66 15.81 13.54 15.76 13.43 15.71 13.33 15.64 13.23 15.56 13.15 15.46 13.08 15.36 13.02 15.24 12.98 15.1 12.95 14.94 12.94 14.77 12.96 14.58 12.96 14.58 12.96 14.51 12.98 14.42 13 14.33 13.03 14.24 13.06 14.14 13.11 14.04 13.16 13.94 13.23 13.84 13.31 13.74 13.41 13.66 13.51 13.58 13.64 13.51 13.78 13.45 13.94 13.41 14.11 13.38 14.31 13.37 14.31 13.37 14.41 13.38 14.51 13.38 14.61 13.4 14.71 13.42 14.81 13.46 14.9 13.5 14.99 13.55 15.07 13.62 15.14 13.7 15.21 13.79 15.26 13.9 15.29 14.02 15.31 14.16 15.31 14.32 15.29 14.49 15.26 14.69 15.24 14.83 13.46 14.83 13.57 14.37 14.64 14.37 14.64 14.37 14.65 14.31 14.65 14.26 14.64 14.21 14.63 14.16 14.62 14.12 14.6 14.08 14.57 14.04 14.55 14.01 14.52 13.98 14.49 13.96 14.45 13.94 14.41 13.92 14.38 13.91 14.34 13.9 14.29 13.89 14.25 13.89 14.25 13.89 14.2 13.89 14.16 13.9 14.12 13.9 14.08 13.92 14.04 13.94 14 13.96 13.96 13.98 13.93 14.01 13.9 14.04 13.87 14.08 13.84 14.12 13.82 14.15 13.8 14.2 13.78 14.24 13.77 14.29 13.76 14.34 13.66 14.82"/><polygon class="cls-7" points="19.5 13.56 19.47 13.54 19.43 13.53 19.4 13.51 19.36 13.5 19.33 13.48 19.29 13.47 19.24 13.46 19.2 13.44 19.15 13.43 19.11 13.42 19.05 13.41 19 13.4 18.95 13.4 18.89 13.4 18.83 13.4 18.77 13.4 18.71 13.4 18.65 13.4 18.58 13.41 18.51 13.42 18.44 13.44 18.37 13.46 18.31 13.49 18.24 13.54 18.17 13.59 18.11 13.65 18.05 13.72 17.99 13.81 17.93 13.91 17.88 14.03 17.84 14.15 17.8 14.3 17.78 14.39 17.77 14.47 17.77 14.55 17.77 14.63 17.78 14.71 17.79 14.78 17.82 14.85 17.84 14.92 17.88 14.98 17.92 15.04 17.98 15.1 18.03 15.14 18.1 15.19 18.18 15.22 18.26 15.25 18.35 15.27 18.38 15.28 18.42 15.28 18.46 15.29 18.51 15.29 18.57 15.3 18.62 15.3 18.68 15.3 18.75 15.29 18.81 15.29 18.87 15.28 18.93 15.26 19 15.24 19.06 15.21 19.11 15.19 19.16 15.15 19.21 15.11 19.1 15.72 19.09 15.74 19.07 15.75 19.05 15.77 19.03 15.78 19.01 15.8 18.97 15.81 18.93 15.83 18.89 15.84 18.83 15.86 18.77 15.87 18.7 15.88 18.61 15.89 18.51 15.89 18.4 15.9 18.28 15.89 18.14 15.89 18.03 15.88 17.92 15.85 17.8 15.82 17.69 15.77 17.58 15.72 17.48 15.65 17.38 15.57 17.29 15.47 17.21 15.37 17.14 15.25 17.08 15.13 17.04 14.98 17.01 14.83 17 14.66 17.01 14.48 17.03 14.29 17.05 14.2 17.07 14.1 17.1 14.01 17.12 13.93 17.15 13.85 17.18 13.77 17.21 13.69 17.25 13.62 17.29 13.55 17.32 13.48 17.36 13.41 17.41 13.35 17.45 13.3 17.5 13.24 17.55 13.19 17.6 13.14 17.66 13.1 17.71 13.05 17.77 13.01 17.83 12.97 17.9 12.94 17.96 12.91 18.03 12.88 18.11 12.86 18.18 12.83 18.26 12.81 18.34 12.8 18.42 12.79 18.5 12.77 18.59 12.76 18.68 12.76 18.77 12.76 18.85 12.76 18.93 12.76 19 12.77 19.07 12.78 19.14 12.79 19.21 12.8 19.27 12.81 19.33 12.83 19.39 12.84 19.43 12.86 19.48 12.87 19.52 12.88 19.55 12.9 19.58 12.9 19.61 12.91 19.62 12.92 19.5 13.56 19.5 13.56 19.5 13.56"/><polyline class="cls-8" points="19.5 13.56 19.5 13.56 19.47 13.54 19.43 13.53 19.4 13.51 19.36 13.5 19.33 13.48 19.29 13.47 19.24 13.46 19.2 13.44 19.15 13.43 19.11 13.42 19.05 13.41 19 13.4 18.95 13.4 18.89 13.4 18.83 13.4 18.77 13.4 18.77 13.4 18.71 13.4 18.65 13.4 18.58 13.41 18.51 13.42 18.44 13.44 18.37 13.46 18.31 13.49 18.24 13.54 18.17 13.59 18.11 13.65 18.05 13.72 17.99 13.81 17.93 13.91 17.88 14.03 17.84 14.15 17.8 14.3 17.8 14.3 17.78 14.39 17.77 14.47 17.77 14.55 17.77 14.63 17.78 14.71 17.79 14.78 17.82 14.85 17.84 14.92 17.88 14.98 17.92 15.04 17.98 15.1 18.03 15.14 18.1 15.19 18.18 15.22 18.26 15.25 18.35 15.27 18.35 15.27 18.38 15.28 18.42 15.28 18.46 15.29 18.51 15.29 18.57 15.3 18.62 15.3 18.68 15.3 18.75 15.29 18.81 15.29 18.87 15.28 18.93 15.26 19 15.24 19.06 15.21 19.11 15.19 19.16 15.15 19.21 15.11 19.1 15.72 19.1 15.72 19.09 15.74 19.07 15.75 19.05 15.77 19.03 15.78 19.01 15.8 18.97 15.81 18.93 15.83 18.89 15.84 18.83 15.86 18.77 15.87 18.7 15.88 18.61 15.89 18.51 15.89 18.4 15.9 18.28 15.89 18.14 15.89 18.14 15.89 18.03 15.88 17.92 15.85 17.8 15.82 17.69 15.77 17.58 15.72 17.48 15.65 17.38 15.57 17.29 15.47 17.21 15.37 17.14 15.25 17.08 15.13 17.04 14.98 17.01 14.83 17 14.66 17.01 14.48 17.03 14.29 17.03 14.29 17.05 14.2 17.07 14.1 17.1 14.01 17.12 13.93 17.15 13.85 17.18 13.77 17.21 13.69 17.25 13.62 17.29 13.55 17.32 13.48 17.36 13.41 17.41 13.35 17.45 13.3 17.5 13.24 17.55 13.19 17.6 13.14 17.66 13.1 17.71 13.05 17.77 13.01 17.83 12.97 17.9 12.94 17.96 12.91 18.03 12.88 18.11 12.86 18.18 12.83 18.26 12.81 18.34 12.8 18.42 12.79 18.5 12.77 18.59 12.76 18.68 12.76 18.77 12.76 18.77 12.76 18.85 12.76 18.93 12.76 19 12.77 19.07 12.78 19.14 12.79 19.21 12.8 19.27 12.81 19.33 12.83 19.39 12.84 19.43 12.86 19.48 12.87 19.52 12.88 19.55 12.9 19.58 12.9 19.61 12.91 19.62 12.92 19.5 13.56"/><polygon class="cls-7" points="25.53 15.9 24.85 15.9 24.9 15.64 24.9 15.62 24.86 15.67 24.82 15.71 24.77 15.74 24.73 15.78 24.69 15.81 24.64 15.83 24.6 15.85 24.55 15.88 24.51 15.89 24.46 15.9 24.41 15.91 24.36 15.92 24.32 15.93 24.27 15.93 24.22 15.94 24.17 15.94 24.04 15.93 23.93 15.9 23.82 15.86 23.72 15.81 23.63 15.74 23.55 15.66 23.48 15.58 23.43 15.48 23.38 15.38 23.34 15.27 23.31 15.15 23.29 15.03 23.28 14.92 23.29 14.8 23.3 14.68 23.32 14.56 23.36 14.42 23.4 14.29 23.45 14.18 23.51 14.06 23.58 13.96 23.65 13.87 23.73 13.79 23.81 13.71 23.89 13.64 23.98 13.58 24.08 13.53 24.17 13.49 24.27 13.46 24.37 13.44 24.46 13.43 24.57 13.42 24.64 13.42 24.7 13.43 24.77 13.44 24.83 13.46 24.88 13.48 24.93 13.5 24.98 13.52 25.02 13.55 25.06 13.58 25.1 13.61 25.13 13.64 25.16 13.67 25.19 13.7 25.21 13.73 25.23 13.76 25.24 13.78 25.24 13.78 25.41 12.87 26.08 12.87 25.53 15.9 25.53 15.9 25.53 15.9"/><polyline class="cls-8" points="25.53 15.9 24.85 15.9 24.9 15.64 24.9 15.62 24.9 15.62 24.86 15.67 24.82 15.71 24.77 15.74 24.73 15.78 24.69 15.81 24.64 15.83 24.6 15.85 24.55 15.88 24.51 15.89 24.46 15.9 24.41 15.91 24.36 15.92 24.32 15.93 24.27 15.93 24.22 15.94 24.17 15.94 24.17 15.94 24.04 15.93 23.93 15.9 23.82 15.86 23.72 15.81 23.63 15.74 23.55 15.66 23.48 15.58 23.43 15.48 23.38 15.38 23.34 15.27 23.31 15.15 23.29 15.03 23.28 14.92 23.29 14.8 23.3 14.68 23.32 14.56 23.32 14.56 23.36 14.42 23.4 14.29 23.45 14.18 23.51 14.06 23.58 13.96 23.65 13.87 23.73 13.79 23.81 13.71 23.89 13.64 23.98 13.58 24.08 13.53 24.17 13.49 24.27 13.46 24.37 13.44 24.46 13.43 24.57 13.42 24.57 13.42 24.64 13.42 24.7 13.43 24.77 13.44 24.83 13.46 24.88 13.48 24.93 13.5 24.98 13.52 25.02 13.55 25.06 13.58 25.1 13.61 25.13 13.64 25.16 13.67 25.19 13.7 25.21 13.73 25.23 13.76 25.24 13.78 25.24 13.78 25.41 12.87 26.08 12.87 25.53 15.9"/><polygon class="cls-5" points="24.42 15.34 24.49 15.34 24.55 15.32 24.61 15.3 24.66 15.28 24.72 15.25 24.77 15.22 24.81 15.18 24.85 15.14 24.89 15.09 24.93 15.04 24.96 14.99 24.98 14.93 25.01 14.87 25.03 14.81 25.05 14.75 25.06 14.69 25.07 14.62 25.08 14.55 25.08 14.49 25.07 14.43 25.07 14.37 25.06 14.31 25.04 14.25 25.02 14.2 25 14.15 24.97 14.11 24.93 14.07 24.9 14.04 24.86 14.01 24.81 13.99 24.77 13.98 24.71 13.98 24.65 13.98 24.59 13.99 24.53 14.01 24.47 14.04 24.43 14.06 24.38 14.1 24.34 14.14 24.29 14.19 24.26 14.24 24.22 14.29 24.19 14.35 24.16 14.4 24.14 14.47 24.12 14.53 24.1 14.6 24.09 14.66 24.07 14.77 24.08 14.88 24.09 14.99 24.13 15.1 24.18 15.19 24.24 15.27 24.32 15.32 24.42 15.34 24.42 15.34 24.42 15.34"/><polygon class="cls-7" points="9.38 15.39 9.28 15.9 8.66 15.9 8.68 15.8 8.7 15.72 8.7 15.65 8.71 15.62 8.68 15.66 8.64 15.69 8.59 15.73 8.54 15.76 8.48 15.79 8.42 15.82 8.36 15.85 8.29 15.87 8.22 15.89 8.15 15.91 8.08 15.92 8.01 15.93 7.93 15.94 7.86 15.94 7.8 15.93 7.73 15.92 7.64 15.9 7.57 15.88 7.5 15.85 7.44 15.81 7.38 15.78 7.33 15.74 7.29 15.69 7.26 15.64 7.23 15.6 7.21 15.55 7.19 15.49 7.17 15.44 7.16 15.39 7.15 15.34 7.15 15.29 7.15 15.24 7.16 15.15 7.17 15.06 7.2 14.98 7.23 14.9 7.27 14.83 7.31 14.76 7.36 14.69 7.42 14.64 7.48 14.58 7.55 14.53 7.62 14.49 7.7 14.45 7.77 14.42 7.86 14.4 7.94 14.38 8.02 14.36 8.03 14.36 8.04 14.36 8.06 14.36 8.09 14.35 8.11 14.35 8.15 14.35 8.19 14.34 8.23 14.34 8.27 14.33 8.31 14.33 8.35 14.33 8.39 14.32 8.43 14.32 8.47 14.32 8.5 14.31 8.53 14.31 8.59 14.31 8.64 14.32 8.7 14.32 8.75 14.32 8.8 14.32 8.83 14.32 8.86 14.33 8.86 14.33 8.87 14.31 8.88 14.27 8.89 14.22 8.9 14.18 8.89 14.13 8.87 14.08 8.84 14.04 8.8 14 8.75 13.97 8.7 13.95 8.64 13.94 8.58 13.93 8.51 13.93 8.44 13.93 8.36 13.93 8.28 13.93 8.2 13.94 8.12 13.94 8.05 13.95 7.97 13.96 7.9 13.97 7.83 13.98 7.76 13.99 7.7 14 7.65 14.02 7.61 14.03 7.57 14.05 7.54 14.06 7.72 13.5 7.77 13.48 7.83 13.46 7.88 13.45 7.94 13.44 8 13.42 8.06 13.41 8.13 13.4 8.2 13.4 8.26 13.4 8.33 13.39 8.41 13.39 8.48 13.39 8.56 13.39 8.64 13.39 8.73 13.39 8.81 13.4 8.88 13.4 8.96 13.41 9.03 13.43 9.11 13.45 9.19 13.48 9.26 13.51 9.33 13.55 9.4 13.59 9.46 13.64 9.52 13.7 9.57 13.76 9.6 13.83 9.63 13.9 9.64 13.98 9.64 14.07 9.63 14.16 9.38 15.39 9.38 15.39 9.38 15.39"/><polyline class="cls-8" points="9.38 15.39 9.28 15.9 8.66 15.9 8.66 15.9 8.68 15.8 8.7 15.72 8.7 15.65 8.71 15.62 8.71 15.62 8.68 15.66 8.64 15.69 8.59 15.73 8.54 15.76 8.48 15.79 8.42 15.82 8.36 15.85 8.29 15.87 8.22 15.89 8.15 15.91 8.08 15.92 8.01 15.93 7.93 15.94 7.86 15.94 7.8 15.93 7.73 15.92 7.73 15.92 7.64 15.9 7.57 15.88 7.5 15.85 7.44 15.81 7.38 15.78 7.33 15.74 7.29 15.69 7.26 15.64 7.23 15.6 7.21 15.55 7.19 15.49 7.17 15.44 7.16 15.39 7.15 15.34 7.15 15.29 7.15 15.24 7.15 15.24 7.16 15.15 7.17 15.06 7.2 14.98 7.23 14.9 7.27 14.83 7.31 14.76 7.36 14.69 7.42 14.64 7.48 14.58 7.55 14.53 7.62 14.49 7.7 14.45 7.77 14.42 7.86 14.4 7.94 14.38 8.02 14.36 8.02 14.36 8.03 14.36 8.04 14.36 8.06 14.36 8.09 14.35 8.11 14.35 8.15 14.35 8.19 14.34 8.23 14.34 8.27 14.33 8.31 14.33 8.35 14.33 8.39 14.32 8.43 14.32 8.47 14.32 8.5 14.31 8.53 14.31 8.53 14.31 8.59 14.31 8.64 14.32 8.7 14.32 8.75 14.32 8.8 14.32 8.83 14.32 8.86 14.33 8.86 14.33 8.86 14.33 8.87 14.31 8.88 14.27 8.89 14.22 8.9 14.18 8.9 14.18 8.89 14.13 8.87 14.08 8.84 14.04 8.8 14 8.75 13.97 8.7 13.95 8.64 13.94 8.58 13.93 8.58 13.93 8.51 13.93 8.44 13.93 8.36 13.93 8.28 13.93 8.2 13.94 8.12 13.94 8.05 13.95 7.97 13.96 7.9 13.97 7.83 13.98 7.76 13.99 7.7 14 7.65 14.02 7.61 14.03 7.57 14.05 7.54 14.06 7.72 13.5 7.72 13.5 7.77 13.48 7.83 13.46 7.88 13.45 7.94 13.44 8 13.42 8.06 13.41 8.13 13.4 8.2 13.4 8.26 13.4 8.33 13.39 8.41 13.39 8.48 13.39 8.56 13.39 8.64 13.39 8.73 13.39 8.81 13.4 8.81 13.4 8.88 13.4 8.96 13.41 9.03 13.43 9.11 13.45 9.19 13.48 9.26 13.51 9.33 13.55 9.4 13.59 9.46 13.64 9.52 13.7 9.57 13.76 9.6 13.83 9.63 13.9 9.64 13.98 9.64 14.07 9.63 14.16 9.38 15.39"/><polygon class="cls-6" points="8.79 14.78 8.79 14.77 8.78 14.76 8.76 14.75 8.74 14.75 8.71 14.74 8.68 14.74 8.64 14.74 8.61 14.74 8.57 14.74 8.53 14.75 8.49 14.75 8.45 14.76 8.41 14.76 8.38 14.77 8.35 14.78 8.32 14.78 8.3 14.79 8.28 14.79 8.26 14.8 8.23 14.81 8.2 14.83 8.17 14.85 8.13 14.86 8.1 14.88 8.06 14.9 8.03 14.93 8 14.95 7.98 14.98 7.95 15.01 7.93 15.04 7.92 15.08 7.91 15.12 7.91 15.2 7.92 15.26 7.95 15.3 7.98 15.34 8.02 15.36 8.06 15.38 8.1 15.38 8.14 15.39 8.21 15.38 8.28 15.38 8.34 15.37 8.4 15.35 8.45 15.34 8.49 15.32 8.53 15.3 8.57 15.27 8.6 15.25 8.63 15.22 8.65 15.19 8.68 15.17 8.69 15.14 8.71 15.11 8.72 15.09 8.73 15.06 8.75 14.99 8.76 14.92 8.78 14.84 8.79 14.78 8.79 14.78 8.79 14.78"/><polygon class="cls-7" points="4.23 15.9 3.56 15.9 4.12 12.86 5.28 12.86 5.39 14.66 6.19 12.86 7.4 12.86 6.83 15.9 6.16 15.9 6.58 13.63 6.56 13.63 5.56 15.9 4.81 15.9 4.8 15.8 4.79 15.55 4.76 15.19 4.74 14.78 4.71 14.37 4.69 14 4.68 13.74 4.67 13.63 4.66 13.63 4.65 13.63 4.63 13.63 4.63 13.63 4.23 15.9 4.23 15.9 4.23 15.9"/><polyline class="cls-8" points="4.23 15.9 3.56 15.9 4.12 12.86 5.28 12.86 5.39 14.66 6.19 12.86 7.4 12.86 6.83 15.9 6.16 15.9 6.58 13.63 6.56 13.63 5.56 15.9 4.81 15.9 4.81 15.9 4.8 15.8 4.79 15.55 4.76 15.19 4.74 14.78 4.71 14.37 4.69 14 4.68 13.74 4.67 13.63 4.67 13.63 4.66 13.63 4.65 13.63 4.63 13.63 4.63 13.63 4.23 15.9"/><polygon class="cls-7" points="21.53 15.39 21.43 15.9 20.82 15.9 20.82 15.8 20.83 15.72 20.83 15.66 20.83 15.63 20.8 15.67 20.76 15.7 20.72 15.73 20.67 15.77 20.62 15.8 20.56 15.82 20.5 15.85 20.44 15.88 20.37 15.89 20.3 15.91 20.23 15.92 20.16 15.93 20.09 15.94 20.02 15.94 19.96 15.93 19.89 15.92 19.8 15.9 19.73 15.88 19.66 15.85 19.59 15.81 19.54 15.78 19.49 15.74 19.45 15.69 19.42 15.64 19.39 15.6 19.37 15.55 19.35 15.49 19.34 15.44 19.33 15.39 19.32 15.34 19.32 15.29 19.32 15.24 19.32 15.15 19.33 15.06 19.36 14.98 19.39 14.9 19.43 14.83 19.47 14.76 19.52 14.69 19.58 14.64 19.64 14.58 19.71 14.53 19.78 14.49 19.86 14.45 19.93 14.42 20.01 14.4 20.09 14.38 20.18 14.36 20.18 14.36 20.19 14.36 20.21 14.36 20.24 14.35 20.27 14.35 20.3 14.35 20.34 14.34 20.38 14.34 20.42 14.33 20.46 14.33 20.5 14.33 20.55 14.32 20.59 14.32 20.62 14.32 20.65 14.31 20.68 14.31 20.74 14.31 20.8 14.32 20.86 14.32 20.91 14.32 20.95 14.32 21 14.32 21.02 14.33 21.03 14.33 21.03 14.31 21.04 14.27 21.05 14.22 21.05 14.18 21.04 14.13 21.02 14.08 20.99 14.04 20.95 14 20.91 13.97 20.86 13.95 20.8 13.94 20.75 13.93 20.68 13.93 20.6 13.93 20.53 13.93 20.45 13.93 20.37 13.94 20.29 13.94 20.21 13.95 20.14 13.96 20.06 13.97 19.99 13.98 19.93 13.99 19.87 14 19.81 14.02 19.77 14.03 19.74 14.05 19.71 14.06 19.88 13.5 19.93 13.48 19.99 13.46 20.05 13.45 20.11 13.44 20.17 13.42 20.23 13.41 20.29 13.4 20.36 13.4 20.43 13.4 20.5 13.39 20.57 13.39 20.64 13.39 20.72 13.39 20.8 13.39 20.88 13.39 20.96 13.4 21.03 13.4 21.11 13.41 21.18 13.43 21.26 13.45 21.34 13.48 21.41 13.51 21.49 13.55 21.55 13.59 21.62 13.64 21.67 13.7 21.72 13.76 21.76 13.83 21.79 13.9 21.8 13.98 21.8 14.07 21.79 14.16 21.53 15.39 21.53 15.39 21.53 15.39"/><polygon class="cls-7" points="21.43 15.92 21.45 15.9 21.55 15.39 21.52 15.38 21.42 15.9 21.43 15.88 21.43 15.92 21.45 15.91 21.45 15.9 21.43 15.92 21.43 15.92 21.43 15.92"/><polygon class="cls-7" points="20.8 15.9 20.82 15.92 21.43 15.92 21.43 15.88 20.82 15.88 20.83 15.9 20.8 15.9 20.8 15.92 20.82 15.92 20.8 15.9 20.8 15.9 20.8 15.9"/><polygon class="cls-7" points="20.84 15.64 20.82 15.62 20.81 15.66 20.81 15.72 20.81 15.8 20.8 15.9 20.83 15.9 20.84 15.8 20.84 15.72 20.84 15.66 20.84 15.64 20.82 15.62 20.84 15.64 20.84 15.64 20.84 15.64"/><polygon class="cls-7" points="19.89 15.94 19.89 15.94 19.96 15.95 20.02 15.95 20.09 15.95 20.16 15.95 20.24 15.94 20.3 15.93 20.37 15.91 20.44 15.89 20.5 15.87 20.57 15.84 20.63 15.81 20.68 15.78 20.73 15.74 20.77 15.71 20.81 15.68 20.84 15.64 20.82 15.62 20.79 15.66 20.75 15.69 20.71 15.72 20.66 15.75 20.61 15.78 20.55 15.81 20.49 15.84 20.43 15.86 20.37 15.88 20.3 15.9 20.23 15.91 20.16 15.92 20.09 15.92 20.02 15.93 19.96 15.92 19.89 15.91 19.89 15.91 19.89 15.94 19.89 15.94 19.89 15.94"/><polygon class="cls-7" points="19.3 15.24 19.3 15.24 19.3 15.29 19.3 15.34 19.31 15.39 19.32 15.45 19.33 15.5 19.35 15.55 19.38 15.6 19.41 15.65 19.44 15.7 19.48 15.74 19.53 15.79 19.59 15.83 19.65 15.86 19.72 15.89 19.8 15.92 19.89 15.94 19.89 15.91 19.81 15.89 19.73 15.87 19.66 15.84 19.6 15.8 19.55 15.77 19.51 15.73 19.47 15.68 19.43 15.64 19.41 15.59 19.38 15.54 19.36 15.49 19.35 15.44 19.34 15.39 19.33 15.34 19.33 15.29 19.33 15.24 19.33 15.24 19.3 15.24 19.3 15.24 19.3 15.24"/><polygon class="cls-7" points="20.18 14.35 20.18 14.35 20.09 14.36 20.01 14.38 19.93 14.41 19.85 14.44 19.77 14.48 19.7 14.52 19.63 14.57 19.57 14.63 19.51 14.69 19.46 14.75 19.41 14.82 19.37 14.9 19.34 14.97 19.32 15.06 19.3 15.15 19.3 15.24 19.33 15.24 19.33 15.15 19.35 15.06 19.37 14.98 19.4 14.9 19.44 14.83 19.48 14.77 19.54 14.7 19.59 14.65 19.65 14.6 19.72 14.55 19.79 14.5 19.86 14.47 19.94 14.44 20.02 14.41 20.1 14.39 20.18 14.38 20.18 14.38 20.18 14.35 20.18 14.35 20.18 14.35"/><polygon class="cls-7" points="20.68 14.3 20.68 14.3 20.65 14.3 20.62 14.3 20.59 14.3 20.55 14.31 20.5 14.31 20.46 14.31 20.42 14.32 20.38 14.32 20.34 14.33 20.3 14.33 20.27 14.34 20.24 14.34 20.21 14.34 20.19 14.35 20.18 14.35 20.18 14.35 20.18 14.38 20.18 14.38 20.2 14.37 20.21 14.37 20.24 14.37 20.27 14.36 20.3 14.36 20.34 14.36 20.38 14.35 20.42 14.35 20.46 14.34 20.5 14.34 20.55 14.34 20.59 14.33 20.62 14.33 20.65 14.33 20.68 14.33 20.68 14.33 20.68 14.3 20.68 14.3 20.68 14.3"/><polygon class="cls-7" points="21.01 14.32 21.03 14.31 21.02 14.31 21 14.31 20.95 14.31 20.91 14.3 20.86 14.3 20.8 14.3 20.74 14.3 20.68 14.3 20.68 14.33 20.74 14.33 20.8 14.33 20.86 14.34 20.91 14.34 20.95 14.34 21 14.34 21.02 14.34 21.03 14.34 21.04 14.33 21.03 14.34 21.04 14.34 21.04 14.33 21.01 14.32 21.01 14.32 21.01 14.32"/><polygon class="cls-7" points="21.04 14.18 21.03 14.18 21.03 14.22 21.02 14.27 21.02 14.31 21.01 14.32 21.04 14.33 21.05 14.31 21.05 14.27 21.06 14.22 21.07 14.18 21.07 14.18 21.04 14.18 21.04 14.18 21.04 14.18"/><polygon class="cls-7" points="20.75 13.95 20.75 13.95 20.8 13.95 20.85 13.96 20.9 13.99 20.94 14.01 20.98 14.05 21.01 14.09 21.03 14.13 21.04 14.18 21.07 14.18 21.06 14.12 21.04 14.07 21 14.03 20.96 13.99 20.92 13.96 20.86 13.94 20.81 13.92 20.75 13.92 20.75 13.92 20.75 13.95 20.75 13.95 20.75 13.95"/><polygon class="cls-7" points="19.69 14.06 19.72 14.07 19.74 14.06 19.77 14.04 19.82 14.03 19.87 14.02 19.93 14 19.99 13.99 20.06 13.98 20.14 13.97 20.21 13.96 20.29 13.96 20.37 13.95 20.45 13.94 20.53 13.94 20.6 13.94 20.68 13.94 20.75 13.95 20.75 13.92 20.68 13.92 20.6 13.91 20.53 13.91 20.45 13.92 20.37 13.92 20.29 13.93 20.21 13.94 20.14 13.94 20.06 13.95 19.99 13.96 19.93 13.98 19.87 13.99 19.81 14 19.77 14.02 19.73 14.03 19.7 14.05 19.72 14.06 19.69 14.06 19.69 14.06 19.69 14.06"/><polygon class="cls-7" points="19.88 13.49 19.87 13.5 19.69 14.06 19.72 14.06 19.89 13.51 19.89 13.52 19.88 13.49 19.87 13.49 19.87 13.5 19.88 13.49 19.88 13.49 19.88 13.49"/><polygon class="cls-7" points="20.96 13.38 20.96 13.38 20.88 13.38 20.8 13.38 20.72 13.38 20.64 13.38 20.57 13.38 20.5 13.38 20.43 13.38 20.36 13.39 20.29 13.39 20.23 13.4 20.16 13.41 20.1 13.42 20.04 13.43 19.99 13.45 19.93 13.47 19.88 13.49 19.89 13.52 19.94 13.49 20 13.48 20.05 13.46 20.11 13.45 20.17 13.44 20.23 13.43 20.29 13.42 20.36 13.41 20.43 13.41 20.5 13.41 20.57 13.41 20.64 13.41 20.72 13.41 20.8 13.41 20.88 13.41 20.96 13.41 20.96 13.41 20.96 13.38 20.96 13.38 20.96 13.38"/><polygon class="cls-7" points="21.8 14.17 21.8 14.17 21.82 14.07 21.82 13.98 21.8 13.9 21.77 13.83 21.73 13.76 21.68 13.69 21.63 13.63 21.57 13.58 21.49 13.54 21.42 13.49 21.34 13.46 21.27 13.44 21.19 13.41 21.11 13.4 21.03 13.39 20.96 13.38 20.96 13.41 21.03 13.41 21.11 13.43 21.18 13.44 21.26 13.46 21.33 13.49 21.41 13.52 21.48 13.56 21.55 13.6 21.61 13.65 21.66 13.71 21.71 13.77 21.74 13.84 21.77 13.91 21.79 13.98 21.79 14.07 21.78 14.16 21.78 14.16 21.8 14.17 21.8 14.17 21.8 14.17"/><polygon class="cls-7" points="21.55 15.39 21.55 15.39 21.8 14.17 21.78 14.16 21.52 15.38 21.52 15.38 21.55 15.39 21.55 15.39 21.55 15.39"/><polygon class="cls-5" points="20.94 14.78 20.94 14.77 20.93 14.76 20.91 14.75 20.88 14.74 20.86 14.74 20.83 14.74 20.79 14.74 20.75 14.74 20.71 14.74 20.67 14.75 20.64 14.75 20.6 14.76 20.56 14.77 20.53 14.77 20.5 14.78 20.47 14.78 20.46 14.78 20.44 14.79 20.41 14.8 20.39 14.81 20.35 14.82 20.32 14.84 20.29 14.85 20.26 14.87 20.23 14.89 20.19 14.92 20.17 14.94 20.14 14.97 20.12 15.01 20.1 15.04 20.09 15.08 20.08 15.12 20.08 15.2 20.09 15.26 20.11 15.3 20.14 15.34 20.17 15.36 20.22 15.38 20.26 15.38 20.3 15.39 20.37 15.38 20.44 15.38 20.5 15.37 20.56 15.35 20.61 15.33 20.66 15.31 20.71 15.29 20.75 15.26 20.78 15.23 20.81 15.2 20.84 15.18 20.86 15.15 20.88 15.12 20.89 15.09 20.9 15.06 20.9 15.04 20.91 14.97 20.93 14.9 20.94 14.84 20.94 14.78 20.94 14.78 20.94 14.78"/><polygon class="cls-7" points="21.72 15.9 22.41 15.9 22.41 15.9 22.66 14.58 22.66 14.53 22.68 14.48 22.69 14.43 22.71 14.38 22.74 14.33 22.77 14.28 22.8 14.23 22.84 14.19 22.88 14.15 22.93 14.11 22.99 14.08 23.05 14.05 23.12 14.03 23.2 14.01 23.29 13.99 23.38 13.99 23.42 13.99 23.44 13.99 23.44 13.99 23.44 13.99 23.55 13.4 23.48 13.4 23.42 13.41 23.36 13.42 23.3 13.44 23.25 13.45 23.19 13.48 23.14 13.5 23.1 13.53 23.05 13.56 23.01 13.6 22.97 13.63 22.93 13.67 22.9 13.71 22.86 13.75 22.82 13.79 22.79 13.84 22.86 13.42 22.18 13.42 21.72 15.9 21.72 15.9 21.72 15.9 21.72 15.9"/><polyline class="cls-8" points="21.72 15.9 22.41 15.9 22.41 15.9 22.66 14.58 22.66 14.58 22.66 14.53 22.68 14.48 22.69 14.43 22.71 14.38 22.74 14.33 22.77 14.28 22.8 14.23 22.84 14.19 22.88 14.15 22.93 14.11 22.99 14.08 23.05 14.05 23.12 14.03 23.2 14.01 23.29 13.99 23.38 13.99 23.38 13.99 23.42 13.99 23.44 13.99 23.44 13.99 23.44 13.99 23.55 13.4 23.55 13.4 23.48 13.4 23.42 13.41 23.36 13.42 23.3 13.44 23.25 13.45 23.19 13.48 23.14 13.5 23.1 13.53 23.05 13.56 23.01 13.6 22.97 13.63 22.93 13.67 22.9 13.71 22.86 13.75 22.82 13.79 22.79 13.84 22.86 13.42 22.18 13.42 21.72 15.9 21.72 15.9"/><polygon class="cls-7" points="15.23 15.9 15.92 15.9 15.94 15.9 16.17 14.58 16.18 14.53 16.19 14.48 16.2 14.44 16.22 14.39 16.24 14.34 16.27 14.3 16.3 14.26 16.33 14.22 16.37 14.18 16.41 14.15 16.47 14.12 16.53 14.1 16.59 14.07 16.67 14.05 16.75 14.04 16.85 14.04 16.86 14.04 16.87 14.04 16.88 14.04 16.89 14.04 16.9 14.04 16.91 14.05 16.92 14.05 16.92 14.05 16.93 14.04 16.93 14.01 16.94 13.97 16.95 13.92 16.97 13.86 16.99 13.79 17.01 13.73 17.03 13.66 17.05 13.62 17.08 13.58 17.1 13.53 17.13 13.49 17.15 13.46 17.16 13.43 17.18 13.41 17.18 13.41 17.18 13.41 17.17 13.4 17.16 13.4 17.14 13.4 17.12 13.4 17.1 13.4 17.09 13.4 17.07 13.4 16.99 13.4 16.93 13.41 16.86 13.42 16.8 13.43 16.75 13.45 16.7 13.47 16.65 13.5 16.6 13.53 16.56 13.55 16.52 13.59 16.49 13.63 16.45 13.66 16.41 13.7 16.38 13.75 16.34 13.79 16.3 13.84 16.39 13.42 15.69 13.42 15.23 15.9 15.23 15.9 15.23 15.9 15.23 15.9"/><polyline class="cls-8" points="15.23 15.9 15.92 15.9 15.94 15.9 16.17 14.58 16.17 14.58 16.18 14.53 16.19 14.48 16.2 14.44 16.22 14.39 16.24 14.34 16.27 14.3 16.3 14.26 16.33 14.22 16.37 14.18 16.41 14.15 16.47 14.12 16.53 14.1 16.59 14.07 16.67 14.05 16.75 14.04 16.85 14.04 16.85 14.04 16.86 14.04 16.87 14.04 16.88 14.04 16.89 14.04 16.9 14.04 16.91 14.05 16.92 14.05 16.92 14.05 16.92 14.05 16.93 14.04 16.93 14.01 16.94 13.97 16.95 13.92 16.97 13.86 16.99 13.79 17.01 13.73 17.03 13.66 17.03 13.66 17.05 13.62 17.08 13.58 17.1 13.53 17.13 13.49 17.15 13.46 17.16 13.43 17.18 13.41 17.18 13.41 17.18 13.41 17.18 13.41 17.17 13.4 17.16 13.4 17.14 13.4 17.12 13.4 17.1 13.4 17.09 13.4 17.07 13.4 17.07 13.4 16.99 13.4 16.93 13.41 16.86 13.42 16.8 13.43 16.75 13.45 16.7 13.47 16.65 13.5 16.6 13.53 16.56 13.55 16.52 13.59 16.49 13.63 16.45 13.66 16.41 13.7 16.38 13.75 16.34 13.79 16.3 13.84 16.39 13.42 15.69 13.42 15.23 15.9 15.23 15.9"/></g></g></svg>