<svg xmlns="http://www.w3.org/2000/svg" viewBox="0 0 284 256"><defs><style>.cls-1{fill:#277a92;}.cls-2{fill:#99daee;}.cls-3{fill:#fff;}.cls-4{fill:#8ed2f0;}.cls-5{fill:#3db5d1;}</style></defs><title>MilkCarton</title><g id="Layer_2" data-name="Layer 2"><g id="_404_milk" data-name="404 milk"><path class="cls-1" d="M238.5,256H45.5a4.5,4.5,0,0,1-4.5-4.5h0a4.5,4.5,0,0,1,4.5-4.5h193a4.5,4.5,0,0,1,4.5,4.5h0A4.5,4.5,0,0,1,238.5,256Z"/><path class="cls-1" d="M32.5,256h-13a4.5,4.5,0,0,1-4.5-4.5h0a4.5,4.5,0,0,1,4.5-4.5h13a4.5,4.5,0,0,1,4.5,4.5h0A4.5,4.5,0,0,1,32.5,256Z"/><path class="cls-1" d="M264.5,256h-13a4.5,4.5,0,0,1-4.5-4.5h0a4.5,4.5,0,0,1,4.5-4.5h13a4.5,4.5,0,0,1,4.5,4.5h0A4.5,4.5,0,0,1,264.5,256Z"/><path class="cls-1" d="M6.5,256h-2A4.5,4.5,0,0,1,0,251.5H0A4.5,4.5,0,0,1,4.5,247h2a4.5,4.5,0,0,1,4.5,4.5h0A4.5,4.5,0,0,1,6.5,256Z"/><path class="cls-1" d="M279.5,256h-2a4.5,4.5,0,0,1-4.5-4.5h0a4.5,4.5,0,0,1,4.5-4.5h2a4.5,4.5,0,0,1,4.5,4.5h0A4.5,4.5,0,0,1,279.5,256Z"/><rect class="cls-2" x="96" y="1" width="90" height="22"/><rect class="cls-3" x="96" width="90" height="6"/><polygon class="cls-4" points="136 59 232 59 186 16 97 16 136 59"/><polygon class="cls-5" points="131 59 226 59 162 16 96 16 131 59"/><rect class="cls-4" x="129.5" y="59" width="102.5" height="192"/><rect class="cls-3" x="150" y="68" width="68" height="170" rx="4" ry="4"/><rect class="cls-1" x="164" y="211" width="40" height="6"/><rect class="cls-1" x="164" y="221" width="40" height="6"/><rect class="cls-2" x="160" y="102" width="48" height="76"/><path class="cls-1" d="M193.84,153a2,2,0,0,1-2-1.93,7.35,7.35,0,0,0-14.68,0,2,2,0,0,1-2.07,1.93,2,2,0,0,1-1.93-2.07,11.35,11.35,0,0,1,22.68,0,2,2,0,0,1-1.93,2.07Z"/><rect class="cls-1" x="160" y="79" width="48" height="14"/><path class="cls-1" d="M169,205v-5h-8v-3l7-10h5v10h2v3h-2v5Zm0-8v-7c-.61,1.16-4,7-4,7Z"/><path class="cls-1" d="M201,205v-5h-8v-3l7-10h5v10h2v3h-2v5Zm0-8v-7c-.61,1.16-4,7-4,7Z"/><path class="cls-1" d="M191,195.42c0,5.68-2.31,9.58-7.06,9.58s-6.91-4.27-6.94-9.47,2.29-9.53,7.09-9.53C189,186,191,190.38,191,195.42Zm-9.63.11c0,4.21,1,6.22,2.69,6.22s2.6-2.09,2.6-6.28-.89-6.22-2.63-6.22S181.33,191.26,181.36,195.53Z"/><path class="cls-3" d="M197.58,157.58h0a4.85,4.85,0,0,1-6.85,0h0a4.85,4.85,0,0,1-1.09-5.17l4.52-11.71,4.52,11.71A4.85,4.85,0,0,1,197.58,157.58Z"/><circle class="cls-1" cx="175" cy="134" r="4"/><circle class="cls-1" cx="194" cy="134" r="4"/><rect class="cls-2" x="52" y="59" width="90" height="192"/><rect class="cls-1" x="72" y="81" width="48" height="14"/><rect class="cls-1" x="72" y="104" width="48" height="6"/><rect class="cls-1" x="72" y="114" width="48" height="6"/><polygon class="cls-3" points="142 59 52 59 96 16 186 16 142 59"/><rect class="cls-3" x="96" y="3" width="6" height="14"/><rect class="cls-3" x="52" y="59" width="6" height="192"/><rect class="cls-3" x="136" y="59" width="6" height="192"/><polygon class="cls-5" points="226 59 226 245 142 245 142 251 232 251 232 59 226 59"/><rect class="cls-3" x="94" y="206" width="6" height="84" transform="translate(-151 345) rotate(-90)"/><rect class="cls-3" x="108" y="3" width="6" height="14"/><rect class="cls-3" x="120" y="3" width="6" height="9"/><path class="cls-1" d="M97,205h0a6,6,0,0,1-6-6V176h12v23A6,6,0,0,1,97,205Z"/><path class="cls-1" d="M123.24,195.24h0a6,6,0,0,0,0-8.49L107,170.49,98.49,179l16.26,16.26A6,6,0,0,0,123.24,195.24Z"/><path class="cls-5" d="M114,154H78a6,6,0,0,0-6,6v8a23.89,23.89,0,0,0,4.1,13.42l-5.34,5.34a6,6,0,1,0,8.49,8.49l5.86-5.86A24,24,0,0,0,120,168v-8A6,6,0,0,0,114,154Z"/><circle class="cls-2" cx="84" cy="166" r="5"/><path class="cls-3" d="M89,140.5v4a4.5,4.5,0,0,1-4.5,4.5h0a4.5,4.5,0,0,1-4.5-4.5v-4a4.5,4.5,0,0,1,4.5-4.5h0A4.5,4.5,0,0,1,89,140.5Z"/><path class="cls-3" d="M79,59v66.5a6.5,6.5,0,0,0,13,0V90a4,4,0,1,1,8,0v4.5a6.5,6.5,0,0,0,13,0V59Z"/><path class="cls-3" d="M136,212v23a5.82,5.82,0,0,0-4.31-1.93c-4.38,0-4.38,4-8.77,4s-4.38-4-8.76-4-4.38,4-8.76,4-4.38-4-8.76-4-4.38,4-8.76,4-4.38-4-8.76-4-4.39,4-8.77,4-4.38-4-8.76-4A5.22,5.22,0,0,0,58,234.31v-23A5.22,5.22,0,0,1,61.55,210c4.38,0,4.38,4,8.76,4s4.38-4,8.77-4,4.38,4,8.76,4,4.38-4,8.76-4,4.38,4,8.76,4,4.38-4,8.76-4,4.38,4,8.76,4,4.39-4,8.77-4A5.83,5.83,0,0,1,136,212Z"/><path class="cls-5" d="M136,220v15a5.82,5.82,0,0,0-4.31-1.93c-4.38,0-4.38,4-8.77,4s-4.38-4-8.76-4-4.38,4-8.76,4-4.38-4-8.76-4-4.38,4-8.76,4-4.38-4-8.76-4-4.39,4-8.77,4-4.38-4-8.76-4A5.22,5.22,0,0,0,58,234.31v-15A5.22,5.22,0,0,1,61.55,218c4.38,0,4.38,4,8.76,4s4.38-4,8.77-4,4.38,4,8.76,4,4.38-4,8.76-4,4.38,4,8.76,4,4.38-4,8.76-4,4.38,4,8.76,4,4.39-4,8.77-4A5.83,5.83,0,0,1,136,220Z"/><path class="cls-1" d="M131.65,226c-4.38,0-4.38,4-8.77,4s-4.38-4-8.76-4-4.38,4-8.76,4-4.38-4-8.76-4-4.38,4-8.76,4-4.38-4-8.76-4-4.39,4-8.77,4-4.38-4-8.76-4A5.22,5.22,0,0,0,58,227.28V245h78V228A5.83,5.83,0,0,0,131.65,226Z"/></g></g></svg>