<svg xmlns="http://www.w3.org/2000/svg" viewBox="0 0 17 17"><defs><style>.cls-1{fill:#257a91;}</style></defs><g id="Layer_2" data-name="Layer 2"><g id="_9:_Handoff" data-name="9: Handoff"><path class="cls-1" d="M8.5,2.65a3.22,3.22,0,1,0,3.21,3.21A3.21,3.21,0,0,0,8.5,2.65Zm0,5.28A2.07,2.07,0,0,1,8.41,3.8H8.5A2.06,2.06,0,0,1,10,4.41a2,2,0,0,1,.6,1.46A2.06,2.06,0,0,1,8.5,7.93Z"/><path class="cls-1" d="M17,8.93c0-.14,0-.28,0-.43s0-.29,0-.43A8.5,8.5,0,0,0,8.52,0h0a8.5,8.5,0,0,0,0,17h0A8.5,8.5,0,0,0,17,8.93ZM8.5,15.47a6.94,6.94,0,0,1-5-2.14A3.34,3.34,0,0,1,6.74,10.6h3.52a3.34,3.34,0,0,1,3.26,2.73A6.91,6.91,0,0,1,8.5,15.47Zm1.77-6H6.74a4.51,4.51,0,0,0-4.12,2.78A6.88,6.88,0,0,1,1.53,8.5h0a7,7,0,1,1,12.85,3.73A4.5,4.5,0,0,0,10.27,9.45Z"/></g></g></svg>