<svg xmlns="http://www.w3.org/2000/svg" viewBox="0 0 4.38 17.5"><title>Move</title><g id="Layer_2" data-name="Layer 2"><g id="canvas"><path d="M3.72.66a2.07,2.07,0,0,1,.66,1.53,2.1,2.1,0,0,1-.66,1.53,2.1,2.1,0,0,1-1.53.66A2.07,2.07,0,0,1,.66,3.72,2.1,2.1,0,0,1,0,2.19,2.07,2.07,0,0,1,.66.66,2.07,2.07,0,0,1,2.19,0,2.1,2.1,0,0,1,3.72.66Zm0,6.56a2.1,2.1,0,0,1,0,3.06,2.1,2.1,0,0,1-1.53.66,2.07,2.07,0,0,1-1.53-.66,2.1,2.1,0,0,1,0-3.06,2.07,2.07,0,0,1,1.53-.66A2.1,2.1,0,0,1,3.72,7.22Zm0,6.56a2.1,2.1,0,0,1,.66,1.53,2.07,2.07,0,0,1-.66,1.53,2.1,2.1,0,0,1-1.53.66,2.07,2.07,0,0,1-1.53-.66A2.07,2.07,0,0,1,0,15.31a2.1,2.1,0,0,1,.66-1.53,2.07,2.07,0,0,1,1.53-.66A2.1,2.1,0,0,1,3.72,13.78Z"/></g></g></svg>
