<svg xmlns="http://www.w3.org/2000/svg" xmlns:xlink="http://www.w3.org/1999/xlink" width="29.953" height="25.728" viewBox="0 0 29.953 25.728"><defs><style>.b{clip-path:url(#a);}.c{fill:#373737;}</style><clipPath id="a"><rect class="a" width="29.953" height="25.728"/></clipPath></defs><g class="b"><path class="c" d="M27.818,9.2H11.9a4.642,4.642,0,0,0-4.635,4.635v.126H7.135A4.642,4.642,0,0,0,2.5,18.6v11.7a4.642,4.642,0,0,0,4.635,4.635H23.057a4.642,4.642,0,0,0,4.635-4.635v-.126h.126a4.642,4.642,0,0,0,4.635-4.635V13.866A4.649,4.649,0,0,0,27.818,9.2ZM7.135,15.317H23.057A3.277,3.277,0,0,1,26.336,18.6v9.648l-5.928-6.779a2.031,2.031,0,0,0-1.545-.694h0a2.149,2.149,0,0,0-1.576.694l-5.139,5.928-1.766-1.955a1.914,1.914,0,0,0-1.419-.631h0a1.865,1.865,0,0,0-1.419.631L3.856,29.474V18.6A3.3,3.3,0,0,1,7.135,15.317ZM23.057,33.572H7.135a3.324,3.324,0,0,1-3.121-2.3l4.477-4.95a.572.572,0,0,1,.441-.189.622.622,0,0,1,.441.189l2.27,2.491a.627.627,0,0,0,.5.221.744.744,0,0,0,.5-.221l5.644-6.5a.79.79,0,0,1,.568-.252.856.856,0,0,1,.536.252l6.937,7.945A3.283,3.283,0,0,1,23.057,33.572Zm8.04-8.04a3.3,3.3,0,0,1-3.279,3.311h-.126V18.6a4.642,4.642,0,0,0-4.635-4.635H8.617v-.126A3.277,3.277,0,0,1,11.9,10.556H27.818A3.3,3.3,0,0,1,31.1,13.835Z" transform="translate(-2.5 -9.2)"/><path class="c" d="M16.654,41.008A2.554,2.554,0,1,0,14.1,38.454,2.563,2.563,0,0,0,16.654,41.008Zm0-3.784a1.23,1.23,0,0,1,0,2.459,1.212,1.212,0,0,1-1.23-1.23A1.252,1.252,0,0,1,16.654,37.224Z" transform="translate(-10.443 -27.482)"/></g></svg>
