<svg xmlns="http://www.w3.org/2000/svg" viewBox="0 0 27.49 23"><defs><style>.cls-1{fill:#939598;}</style></defs><title>Payer.Download</title><g id="Layer_2" data-name="Layer 2"><g id="Notes"><path class="cls-1" d="M27.21,15.71a.28.28,0,0,0-.28.28v6.45H.56V16A.28.28,0,1,0,0,16v6.73A.28.28,0,0,0,.28,23H27.21a.28.28,0,0,0,.28-.28V16A.28.28,0,0,0,27.21,15.71Z"/><path class="cls-1" d="M13.74,15.15a.28.28,0,0,0,.28-.28V.28a.28.28,0,0,0-.56,0V14.87A.28.28,0,0,0,13.74,15.15Z"/><path class="cls-1" d="M13.55,16.19a.28.28,0,0,0,.4,0l5.61-5.61a.28.28,0,1,0-.4-.4l-5.41,5.41L8.33,10.18a.28.28,0,1,0-.4.4Z"/></g></g></svg>