<svg xmlns="http://www.w3.org/2000/svg" viewBox="0 0 38.47 38.47"><defs><style>.cls-1{fill:#fff;}</style></defs><title>PaymentsView</title><g id="Layer_2" data-name="Layer 2"><g id="Notes_Withdrawal" data-name="Notes Withdrawal"><path class="cls-1" d="M19.24,0A19.24,19.24,0,1,0,38.47,19.24,19.23,19.23,0,0,0,19.24,0Zm1.42,28.86v3.4h-3.1V29.2a12.64,12.64,0,0,1-5.39-1.32l.95-3.7a11.2,11.2,0,0,0,5.27,1.39c1.8,0,3.07-.73,3.07-2s-1.05-2-3.39-2.75c-3.4-1.14-5.71-2.73-5.71-5.81s2-5,5.37-5.63V6.32h3.1V9.1a11.12,11.12,0,0,1,4.64,1.09l-.95,3.58A9.71,9.71,0,0,0,20,12.65c-2.05,0-2.72.92-2.72,1.82s1.11,1.69,3.81,2.68c3.8,1.34,5.28,3.07,5.28,6S24.35,28.27,20.66,28.86Z"/></g></g></svg>