<svg xmlns="http://www.w3.org/2000/svg" viewBox="0 0 27.46 23.35"><defs><style>.cls-1{fill:#e7e7e7;}.cls-2{fill:#58595b;}</style></defs><title>PaymentNote</title><g id="Layer_2" data-name="Layer 2"><g id="Layer_1-2" data-name="Layer 1"><rect class="cls-1" width="27.46" height="23.35" rx="2.28"/><path class="cls-2" d="M18.64,11.4l1.07-1.07v6.72a.74.74,0,0,1-.77.77H8.71a.75.75,0,0,1-.77-.77V6.82a.76.76,0,0,1,.22-.55.74.74,0,0,1,.55-.22h6.72L14.36,7.12h-5c-.24,0-.37.11-.37.34v9c0,.22.11.33.34.33h9q.3,0,.3-.33ZM17.37,6.52l1.84,1.84-5.92,5.78-2.14.47.47-2.14Zm3.25-.33a.5.5,0,0,1,0,.83l-1.07,1L17.71,6.22l1-1.07a.51.51,0,0,1,.84,0Z"/></g></g></svg>