<svg xmlns="http://www.w3.org/2000/svg" width="18" height="18" viewBox="0 0 18 18"><defs><style>.percent-a{fill:#cecfd2;}</style></defs><g transform="translate(-24.549 -24.549)"><path class="percent-a" d="M42.238,24.86a1.059,1.059,0,0,0-1.5,0L24.86,40.738a1.061,1.061,0,1,0,1.5,1.5L42.238,26.36A1.061,1.061,0,0,0,42.238,24.86Z"/><path class="percent-a" d="M28.509,32.468a3.959,3.959,0,1,0-3.96-3.959A3.963,3.963,0,0,0,28.509,32.468Zm0-5.8a1.838,1.838,0,1,1-1.838,1.838A1.84,1.84,0,0,1,28.509,26.671Z"/><path class="percent-a" d="M38.589,34.63a3.959,3.959,0,1,0,3.96,3.959A3.963,3.963,0,0,0,38.589,34.63Zm0,5.8a1.838,1.838,0,1,1,1.838-1.838A1.84,1.84,0,0,1,38.589,40.427Z"/></g></svg>
