<svg xmlns="http://www.w3.org/2000/svg" viewBox="0 0 18 24"><defs><style>.cls-1{fill:#b9bfca;}</style></defs><title>text</title><g id="Layer_2" data-name="Layer 2"><g id="Layer_1-2" data-name="Layer 1"><path class="cls-1" d="M14,3H13V2H1V20H13V13h1V23a1,1,0,0,1-1,1H1a1,1,0,0,1-1-1V1A1,1,0,0,1,1,0H13a1,1,0,0,1,1,1ZM7,23a1,1,0,1,0-1-1A1,1,0,0,0,7,23Z"/><path class="cls-1" d="M17,12H11L9,14l-.67-2H7a1,1,0,0,1-1-1V5A1,1,0,0,1,7,4H17a1,1,0,0,1,1,1v6A1,1,0,0,1,17,12ZM9,9A1,1,0,1,0,8,8,1,1,0,0,0,9,9Zm3,0a1,1,0,1,0-1-1A1,1,0,0,0,12,9Zm3,0a1,1,0,1,0-1-1A1,1,0,0,0,15,9Z"/></g></g></svg>