<svg xmlns="http://www.w3.org/2000/svg" viewBox="0 0 15.82 15.81"><defs><style>.cls-1{fill:#414142;}</style></defs><title>PhoneNumber</title><g id="Layer_2" data-name="Layer 2"><g id="Layer_1-2" data-name="Layer 1"><path class="cls-1" d="M6.25,4a10.47,10.47,0,0,0-1,1.36,2.44,2.44,0,0,0-.44.9A6.3,6.3,0,0,0,6.25,8.6a10.15,10.15,0,0,0,3.37,2.63,5.8,5.8,0,0,0,2.29-1.45.62.62,0,0,1,.51-.1,5.94,5.94,0,0,1,1.26.47,5.33,5.33,0,0,1,.94.59,4.65,4.65,0,0,1,.64.61,3.36,3.36,0,0,1,.37.45,1.28,1.28,0,0,1,.12.21.78.78,0,0,1,.07.33,5.77,5.77,0,0,1-.41,1.35,5.85,5.85,0,0,1-.52,1,3.39,3.39,0,0,1-.57.62,5.28,5.28,0,0,1-.46.36,1.17,1.17,0,0,1-.23.11.35.35,0,0,1-.2.07.4.4,0,0,1-.17,0l-.44-.14c-.52-.13-1-.25-1.3-.37a16.27,16.27,0,0,1-1.65-.67,14.84,14.84,0,0,1-2-1.08A19.53,19.53,0,0,1,5.78,11.9,14.59,14.59,0,0,1,3.62,9.61,22.2,22.2,0,0,1,1.7,6.51,25.53,25.53,0,0,1,0,2.5a.51.51,0,0,1,0-.3A.47.47,0,0,1,.07,2a3.24,3.24,0,0,1,.28-.44A3.89,3.89,0,0,1,.91,1a3.72,3.72,0,0,1,1-.53A6.51,6.51,0,0,1,3.32,0a.53.53,0,0,1,.3,0A1.35,1.35,0,0,1,3.94.2l.63.43a6,6,0,0,1,.79.71,4.82,4.82,0,0,1,.67,1,3,3,0,0,1,.35,1.28A.43.43,0,0,1,6.25,4Z"/></g></g></svg>