<svg xmlns="http://www.w3.org/2000/svg" width="23.986" height="23.986" viewBox="0 0 23.986 23.986" fill="currentColor">
    <g transform="translate(-21.445 -278)">
        <path d="M184.87,1.881a6.4,6.4,0,0,0-9.046,0l-3.569,3.568a7.907,7.907,0,0,1,.855-.044,8.259,8.259,0,0,1,2.613.42L177.746,3.8a3.678,3.678,0,0,1,5.2,5.2L178.99,12.96A3.681,3.681,0,0,1,173,11.8a1.823,1.823,0,0,0-1.195.534l-1.054,1.055a6.4,6.4,0,0,0,10.156,1.49l3.958-3.959A6.4,6.4,0,0,0,184.87,1.881Z"
              transform="translate(-141.312 277.992)"/>
        <path d="M13.682,165.8a8.2,8.2,0,0,1-2.642-.435L9,167.4a3.677,3.677,0,0,1-5.2-5.2l3.957-3.957a3.682,3.682,0,0,1,5.985,1.158,1.819,1.819,0,0,0,1.2-.534L16,157.808a6.4,6.4,0,0,0-10.157-1.492l-3.957,3.959a6.4,6.4,0,0,0,9.044,9.046l3.563-3.563c-.266.025-.534.038-.805.038Z"
              transform="translate(21.438 130.792)"/>
    </g>
</svg>
