<svg id="Layer_1" data-name="Layer 1" xmlns="http://www.w3.org/2000/svg" viewBox="0 0 111.37 106"><defs><style>.cls-3{isolation:isolate;}.cls-4{fill:#fff;}</style></defs><title>ProfileImage</title><g id="Layer_2" data-name="Layer 2"><g id="canvas"><path class="profile-image-fill-color" d="M53,55.62A19.38,19.38,0,1,0,33.58,36.24,19.38,19.38,0,0,0,53,55.62Zm0-33.5A14.11,14.11,0,1,1,38.84,36.24,14.11,14.11,0,0,1,53,22.12Z"/><path class="profile-image-fill-color" d="M53,0a53,53,0,1,0,53,53A53,53,0,0,0,53,0Zm0,5.27A47.66,47.66,0,0,1,91,81.75,27.45,27.45,0,0,0,64.14,60H41.78A27.45,27.45,0,0,0,15,81.75,47.66,47.66,0,0,1,53,5.27ZM19.65,87A22.16,22.16,0,0,1,41.78,65.31H64.14A22.16,22.16,0,0,1,86.27,87,47.58,47.58,0,0,1,19.65,87Z"/><circle class="profile-image-icon-camera-wrapper" cx="98.48" cy="73.68" r="12.89"/><g class="cls-3"><path class="cls-4" d="M104.62,68.13a2.23,2.23,0,0,1,2.23,2.23v7.82a2.23,2.23,0,0,1-2.23,2.23H92.34a2.23,2.23,0,0,1-2.23-2.23V70.36a2.23,2.23,0,0,1,2.23-2.23h2l.44-1.19a1.62,1.62,0,0,1,.61-.74,1.56,1.56,0,0,1,.9-.31h4.47a1.56,1.56,0,0,1,.9.31,1.63,1.63,0,0,1,.61.74l.44,1.19ZM95.72,77a3.9,3.9,0,1,0-1.15-2.76A3.76,3.76,0,0,0,95.72,77Zm1-4.54A2.51,2.51,0,1,1,96,74.27,2.42,2.42,0,0,1,96.71,72.49Z"/></g></g></g></svg>
