<svg xmlns="http://www.w3.org/2000/svg" width="25.191" height="28.96" viewBox="0 0 25.191 28.96"><defs><style>.a{fill:#373737;}</style></defs><g transform="translate(-40.792 -36.15)"><path class="a" d="M67.655,66.038V64.9H66.35v1.14l-.173.021c-.687.083-2.928.512-2.928,2.544,0,2,1.634,2.351,3.608,2.572,1.085.128,2.526.428,2.526,1.544,0,1.019-.961,1.653-2.508,1.653a3.237,3.237,0,0,1-2.753-1.346l-1.22.517a3.89,3.89,0,0,0,3.269,1.988l.178.016V76.8h1.305V75.481l.182-.013c1.486-.108,2.985-1,2.985-2.744,0-2.1-1.75-2.485-3.864-2.745-1.046-.125-2.35-.28-2.35-1.371,0-.923.846-1.452,2.32-1.452a3.135,3.135,0,0,1,2.325.965l1.108-.512a3.178,3.178,0,0,0-2.54-1.546Z" transform="translate(-13.441 -17.48)"/><path class="a" d="M61.115,42.561a.588.588,0,1,0-.722.928,11.424,11.424,0,1,1-6.377-2.38L51.029,44.1a.588.588,0,0,0,.832.832l4.3-4.3-4.3-4.3a.588.588,0,0,0-.832.832L53.8,39.925a12.594,12.594,0,0,0-2.37,25.029,12.756,12.756,0,0,0,1.984.155,12.6,12.6,0,0,0,7.7-22.549Z" transform="translate(0 0)"/></g></svg>