<svg xmlns="http://www.w3.org/2000/svg" viewBox="0 0 45.87 41.34"><defs><style>.cls-1{fill:#257a91;}</style></defs><title>Secure</title><g id="Layer_2" data-name="Layer 2"><g id="canvas"><path class="cls-1" d="M19.22,2.9A19.22,19.22,0,1,0,38.3,24.32l0-.2.2,0a8.24,8.24,0,0,0,7.35-8.2V10.73a2.59,2.59,0,0,0-2.5-2.59h-.24V5.51a5.51,5.51,0,0,0-11,0V7.89l-.41-.35A19.19,19.19,0,0,0,19.22,2.9Zm0,36.82a17.6,17.6,0,1,1,0-35.2,17.39,17.39,0,0,1,11,3.91l.23.18-.22.2a2.61,2.61,0,0,0-.87,1.93V15.9a8.29,8.29,0,0,0,7.08,8.16l.24,0,0,.24A17.63,17.63,0,0,1,19.22,39.72Zm-.66-5.56h1.56v-2.5l.22,0a5.64,5.64,0,0,0,3.57-1.53,4.55,4.55,0,0,0,1.27-3.37,5.18,5.18,0,0,0-.33-1.93,4.34,4.34,0,0,0-.94-1.45h0a6.37,6.37,0,0,0-1.53-1.14,19.79,19.79,0,0,0-2.57-1.11,7,7,0,0,1-2.43-1.34,2.66,2.66,0,0,1-.77-2,2.79,2.79,0,0,1,.77-2.11,2.93,2.93,0,0,1,2.11-.74,2.64,2.64,0,0,1,2.18,1,4.19,4.19,0,0,1,.78,2.47h2.63a6.19,6.19,0,0,0-1.17-3.71,4.9,4.9,0,0,0-3.32-1.81l-.21,0V10.08H18.82v2.79l-.22,0a5.36,5.36,0,0,0-3.39,1.57A4.71,4.71,0,0,0,14,17.82a4.88,4.88,0,0,0,2.88,4.56,18,18,0,0,0,2.5,1.05,6.27,6.27,0,0,1,2.42,1.35,2.76,2.76,0,0,1,.77,2,2.7,2.7,0,0,1-.85,2.07,3.45,3.45,0,0,1-2.41.78,3.24,3.24,0,0,1-2.5-1,3.71,3.71,0,0,1-.88-2.44H13.25a5.64,5.64,0,0,0,1.31,3.69,5.71,5.71,0,0,0,3.78,1.75l.22,0ZM37.63,22.54A6.64,6.64,0,0,1,31,15.91V10.74a1,1,0,0,1,1-1H43.27a1,1,0,0,1,1,1v5.17A6.64,6.64,0,0,1,37.63,22.54Zm0-9.82a1.69,1.69,0,0,0-.92,3.1l.11.07V18.1a.81.81,0,0,0,1.62,0V15.89l.11-.07a1.69,1.69,0,0,0-.92-3.1Zm3.9-4.59H33.73V5.51a3.9,3.9,0,0,1,7.79,0Z"/></g></g></svg>