<svg xmlns="http://www.w3.org/2000/svg" viewBox="0 0 18.44 21.72"><title>SendMessage</title><g id="Layer_2" data-name="Layer 2"><g id="Layer_1-2" data-name="Layer 1"><path d="M1.71,0h15a1.71,1.71,0,0,1,1.71,1.71v15a1.67,1.67,0,0,1-.5,1.19h0a1.79,1.79,0,0,1-1.18.52h-7L6.17,21.06l-1,.66V18.44H1.71A1.71,1.71,0,0,1,0,16.73v-15A1.71,1.71,0,0,1,1.71,0Zm15,1.37h-15a.35.35,0,0,0-.35.35v15a.35.35,0,0,0,.35.35H6.49v2.18l2.74-2.08.15-.1H16.7A.43.43,0,0,0,17,17h0a.32.32,0,0,0,.09-.23v-15a.35.35,0,0,0-.35-.35Z"/><path d="M4.45,5.8a.68.68,0,0,1,0-1.37H14A.68.68,0,1,1,14,5.8Z"/><path d="M4.45,9.91a.68.68,0,0,1,0-1.37H14a.68.68,0,0,1,0,1.37Z"/><path d="M4.45,14a.68.68,0,1,1,0-1.37h6.81a.68.68,0,0,1,0,1.37Z"/></g></g></svg>
