<svg xmlns="http://www.w3.org/2000/svg" viewBox="0 0 31.66 29.77"><defs><style>.cls-1{fill:#fff;}</style></defs><title>ShippingView</title><g id="Layer_2" data-name="Layer 2"><g id="Notes_Withdrawal" data-name="Notes Withdrawal"><path class="cls-1" d="M.13,5.75V29.67H26.35v-.62l.26.24,4.77-5h.18V.16H6.07a.58.58,0,0,0-.65.1L.28,5.14a.58.58,0,0,0-.15.61Zm11,22.57V24.46h4.24v3.86Zm14.08.19H16.52V23.3H10v5.21H1.29V6.91H10v5h6.56v-5H25.2Zm-13.58-23,1.69-1.93h3.6L15.46,5.56Zm3.74,1.35v3.86H11.12V6.91Zm15,16.77-4,4.21V6.43l4-3.85v21ZM6,1.32H30.06L25.39,5.75H16.77l2.45-3.27H12.79L10.52,5.06l-.6.69H1.32Z"/><path class="cls-1" d="M26.35,29.77H.13a.1.1,0,0,1-.1-.1V5.76a.66.66,0,0,1,.18-.69L5.35.19A.68.68,0,0,1,6.09.06H31.56a.09.09,0,0,1,.1.1V24.27a.1.1,0,0,1-.1.1h-.13l-4.74,5a.11.11,0,0,1-.07,0h0l-.07,0-.09-.09v.39A.1.1,0,0,1,26.35,29.77ZM.23,29.57h26v-.52a.1.1,0,0,1,.06-.09.09.09,0,0,1,.11,0l.19.17,4.7-4.95a.11.11,0,0,1,.07,0h.08V.26H6a.47.47,0,0,0-.53.08L.35,5.22a.46.46,0,0,0-.12.5V29.57Zm25-1H16.52a.09.09,0,0,1-.1-.1V23.4H10.06v5.11a.09.09,0,0,1-.1.1H1.29a.09.09,0,0,1-.1-.1V6.91a.09.09,0,0,1,.1-.1H10a.09.09,0,0,1,.1.1v4.92h6.36V6.91a.09.09,0,0,1,.1-.1H25.2a.1.1,0,0,1,.1.1v21.6A.1.1,0,0,1,25.2,28.61Zm-8.58-.2H25.1V7H16.62v4.92a.1.1,0,0,1-.1.1H10a.11.11,0,0,1-.1-.1V7H1.39v21.4H9.86V23.3a.11.11,0,0,1,.1-.1h6.56a.1.1,0,0,1,.1.1Zm-1.26,0H11.12a.11.11,0,0,1-.1-.1V24.46a.1.1,0,0,1,.1-.1h4.24a.09.09,0,0,1,.1.1v3.86A.1.1,0,0,1,15.36,28.42Zm-4.14-.2h4V24.56h-4ZM26.35,28h0a.11.11,0,0,1-.07-.09V6.43a.1.1,0,0,1,0-.07l4-3.85a.09.09,0,0,1,.11,0,.1.1,0,0,1,.06.09v21a.14.14,0,0,1,0,.07L26.43,28A.12.12,0,0,1,26.35,28Zm.1-21.52V27.63l3.83-4h0l0,0V2.82Zm-11.09,4.4H11.12a.11.11,0,0,1-.1-.1V6.91a.11.11,0,0,1,.1-.1h4.24a.1.1,0,0,1,.1.1v3.86A.1.1,0,0,1,15.36,10.87Zm-4.14-.2h4V7h-4ZM25.39,5.85H16.77a.09.09,0,0,1-.09,0,.09.09,0,0,1,0-.11L19,2.58H12.83L10,5.82a.11.11,0,0,1-.08,0H1.32a.09.09,0,0,1-.09-.06.09.09,0,0,1,0-.11L5.92,1.24l.07,0H30.06a.09.09,0,0,1,.09.06.09.09,0,0,1,0,.11L25.46,5.82A.09.09,0,0,1,25.39,5.85ZM17,5.65h8.38l4.46-4.24H6L1.57,5.65H9.88l2.83-3.24a.11.11,0,0,1,.08,0h6.43a.11.11,0,0,1,.09.05.11.11,0,0,1,0,.11Zm-1.51,0H11.62a.11.11,0,0,1-.09-.06.1.1,0,0,1,0-.1l1.69-1.93a.1.1,0,0,1,.07,0h3.6a.13.13,0,0,1,.09.06.12.12,0,0,1,0,.1L15.54,5.62A.09.09,0,0,1,15.46,5.66Zm-3.62-.2h3.57l1.3-1.73H13.36Z"/></g></g></svg>