<svg xmlns="http://www.w3.org/2000/svg" xmlns:xlink="http://www.w3.org/1999/xlink" width="35" height="35" viewBox="0 0 35 35"><defs><style>.a{fill:none;}.b{clip-path:url(#a);}.c{fill:#1da1f3;}.d{fill:#fff;}</style><clipPath id="a"><rect class="a" width="35" height="35"/></clipPath></defs><g class="b"><g transform="translate(-0.175)"><rect class="c" width="35" height="35" rx="3.671" transform="translate(0.175)"/></g><path class="d" d="M-1921.71,1458a11.6,11.6,0,0,0,11.675-11.675c0-.178,0-.355-.012-.531a8.335,8.335,0,0,0,2.047-2.124,8.184,8.184,0,0,1-2.357.646,4.114,4.114,0,0,0,1.8-2.27,8.21,8.21,0,0,1-2.6,1,4.108,4.108,0,0,0-5.806-.178,4.106,4.106,0,0,0-1.187,3.921,11.655,11.655,0,0,1-8.457-4.287,4.106,4.106,0,0,0,1.27,5.477,4.067,4.067,0,0,1-1.862-.513v.052a4.1,4.1,0,0,0,3.292,4.022,4.085,4.085,0,0,1-1.853.07,4.108,4.108,0,0,0,3.834,2.85,8.232,8.232,0,0,1-5.1,1.76,8.367,8.367,0,0,1-.977-.059,11.62,11.62,0,0,0,6.29,1.84" transform="translate(1935 -1432.748)"/></g></svg>