<svg xmlns="http://www.w3.org/2000/svg" xmlns:xlink="http://www.w3.org/1999/xlink" width="34.996" height="35.095" viewBox="0 0 34.996 35.095"><defs><style>.a{fill:none;}.b{clip-path:url(#a);}.c{fill:#1b80e4;}.d{clip-path:url(#b);}.e{fill:#fff;}</style><clipPath id="a"><rect class="a" width="34.996" height="35.095"/></clipPath><clipPath id="b"><rect class="a" width="10.262" height="20"/></clipPath></defs><g class="b"><g transform="translate(-238.502 -460.155)"><path class="c" d="M269.123,460.155H242.876a4.385,4.385,0,0,0-4.374,4.387v26.321a4.385,4.385,0,0,0,4.374,4.387h26.247a4.386,4.386,0,0,0,4.375-4.387V464.542a4.386,4.386,0,0,0-4.375-4.387Z"/></g><g class="d" transform="translate(13 8)"><path class="e" d="M-973,40V31h2.8l.458-4H-973V25.052c0-1.03.027-2.052,1.5-2.052h1.5V20.14a16.976,16.976,0,0,0-2.585-.14C-975.3,20-977,21.657-977,24.7V27h-3v4h3v9Z" transform="translate(980 -20)"/></g></g></svg>