<svg xmlns="http://www.w3.org/2000/svg" width="16.851" height="18" viewBox="0 0 16.851 18"><defs><style>.sort-alphabetic-a,.sort-alphabetic-a{fill:#cecfd2;}.sort-alphabetic-a{fill-rule:evenodd;}</style></defs><path class="sort-alphabetic-a" d="M14.321,8.6h1.223l2.921,6.737H16.8l-.584-1.424H13.609l-.566,1.424H11.4Zm.584,1.954-.822,2.1h1.643Z" transform="translate(-11.4 -8.6)"/><path class="sort-alphabetic-a" d="M16.3,59.368l3.414-4.053H16.428V54h5.094v1.315l-3.359,4.053h3.469v1.369H16.3Z" transform="translate(-15.406 -42.746)"/><path class="sort-alphabetic-a" d="M60.938,20.906H59.422V9.518a.858.858,0,0,0-.767-.918h-.822a.858.858,0,0,0-.767.918V20.906H55.552c-.31,0-.438.24-.274.546l2.666,4.918c.164.306.438.306.6,0l2.666-4.918C61.376,21.146,61.248,20.906,60.938,20.906Z" transform="translate(-44.432 -8.6)"/></svg>
