<svg xmlns="http://www.w3.org/2000/svg" viewBox="0 0 28.02 28.02"><defs><style>.tag-plus-icon-cls-2{fill:#fff;}</style></defs><title>AddItem</title><g id="Layer_2" data-name="Layer 2"><g id="Layer_1-2" data-name="Layer 1"><circle cx="21.86" cy="22.03" r="5.35"/><polygon class="tag-plus-icon-cls-2" points="19.09 21.39 21.22 21.39 21.22 19.26 22.5 19.26 22.5 21.39 24.63 21.39 24.63 22.67 22.5 22.67 22.5 24.8 21.22 24.8 21.22 22.67 19.09 22.67 19.09 21.39"/><path d="M13.83,21.81a8,8,0,0,1,12.42-6.67l.77-.77a3.45,3.45,0,0,0,1-2.45V3.28A3.28,3.28,0,0,0,24.73,0H16.09a3.45,3.45,0,0,0-2.45,1L1,13.64A3.43,3.43,0,0,0,1,18.5L9.52,27a3.43,3.43,0,0,0,4.85,0l.79-.79A8,8,0,0,1,13.83,21.81Zm7.56-18a2.83,2.83,0,1,1-2.83,2.83A2.84,2.84,0,0,1,21.39,3.79Z"/></g></g></svg>
