<svg xmlns="http://www.w3.org/2000/svg" viewBox="0 0 15.91 15.91"><defs><style>.cls-1{fill:#414142;}</style></defs><title>Time</title><g id="Layer_2" data-name="Layer 2"><g id="Layer_1-2" data-name="Layer 1"><path class="cls-1" d="M2.33,2.33A7.69,7.69,0,0,1,8,0a7.69,7.69,0,0,1,5.62,2.33A7.71,7.71,0,0,1,15.91,8a7.69,7.69,0,0,1-2.33,5.62A7.69,7.69,0,0,1,8,15.91a7.69,7.69,0,0,1-5.63-2.33A7.69,7.69,0,0,1,0,8,7.71,7.71,0,0,1,2.33,2.33ZM3.46,12.44A6.11,6.11,0,0,0,8,14.31a6.14,6.14,0,0,0,4.5-1.87A6.16,6.16,0,0,0,14.31,8a6.17,6.17,0,0,0-1.85-4.49A6.13,6.13,0,0,0,8,1.61a6.1,6.1,0,0,0-4.5,1.86A6.13,6.13,0,0,0,1.61,8,6.12,6.12,0,0,0,3.46,12.44ZM8.37,4V8.14L12,10.27l-.59,1L7.17,8.74V4Z"/></g></g></svg>