<svg xmlns="http://www.w3.org/2000/svg" viewBox="0 0 16.5 18"><defs><style>.cls-1{isolation:isolate;}.cls-2{fill:#9e9d9e;}</style></defs><title>DeleteIcon</title><g id="Layer_2" data-name="Layer 2"><g id="Layer_1-2" data-name="Layer 1"><g id="_" data-name=" " class="cls-1"><g class="cls-1"><path class="cls-2" d="M12.23,3H16.5V4.5h-.42a.69.69,0,0,0-.38.19l-.18.42-.9,11.3c0,.4,0,.68-.07.84a.75.75,0,0,1-.21.45.78.78,0,0,1-.49.25,6.59,6.59,0,0,1-.91.05H3.56A6.59,6.59,0,0,1,2.65,18a.75.75,0,0,1-.49-.25A.75.75,0,0,1,2,17.25c0-.16,0-.44-.07-.84L1,5.06A.78.78,0,0,0,.8,4.64L.42,4.5H0V3H4.27V1.64A1.61,1.61,0,0,1,4.71.47,1.53,1.53,0,0,1,5.86,0h4.73a1.57,1.57,0,0,1,1.18.49,1.62,1.62,0,0,1,.46,1.15ZM4.88,15h.93L5.34,6h-1ZM5.25,1.64V3h6V1.64c0-.47-.3-.7-.89-.7H6.09C5.53.94,5.25,1.17,5.25,1.64ZM8.77,15V6h-1v9Zm2.9,0,.47-9H11.2l-.51,9Z"/></g></g></g></g></svg>