<svg xmlns="http://www.w3.org/2000/svg" width="25" height="25" viewBox="0 0 25 25"><defs><style>.a{fill:#55acee;}.b{fill:#fff;}</style></defs><path class="a" d="M0,12.5A12.5,12.5,0,1,1,12.5,25,12.5,12.5,0,0,1,0,12.5Z"/><path class="b" d="M17.876,17.06l.026.433-.437-.053A7.111,7.111,0,0,1,13.3,15.392l-.577-.574-.149.424a2.547,2.547,0,0,0,.542,2.613c.35.371.271.424-.332.2a1.032,1.032,0,0,0-.411-.1,3.164,3.164,0,0,0,.315,1.183,2.824,2.824,0,0,0,1.2,1.13l.428.2-.507.009c-.49,0-.507.009-.455.194a2.643,2.643,0,0,0,1.635,1.448l.542.185-.472.282a4.922,4.922,0,0,1-2.343.653,2.589,2.589,0,0,0-.717.071,6.651,6.651,0,0,0,1.688.777,7.386,7.386,0,0,0,5.736-.653,7.676,7.676,0,0,0,2.912-3.425,9.1,9.1,0,0,0,.595-2.648c0-.406.026-.459.516-.944a5.775,5.775,0,0,0,.612-.68c.087-.168.079-.168-.367-.018-.743.265-.848.229-.481-.168a2.568,2.568,0,0,0,.595-.945c0-.026-.131.018-.28.1a4.877,4.877,0,0,1-.769.3l-.472.15-.428-.291a3.558,3.558,0,0,0-.743-.388,2.987,2.987,0,0,0-1.53.035A2.527,2.527,0,0,0,17.876,17.06Z" transform="translate(-5.75 -6.9)"/></svg>