<svg xmlns="http://www.w3.org/2000/svg" width="25.51" height="25.51" viewBox="0 0 25.51 25.51" fill="currentColor">
    <path d="M33.649,195.937a5.08,5.08,0,0,0-2.672-8.27,5.11,5.11,0,0,0-6.29,4.968,5.056,5.056,0,0,0,1.242,3.3,10.315,10.315,0,0,0-5.8,6.256,2.549,2.549,0,0,0,2.446,3.316H37a2.548,2.548,0,0,0,2.446-3.316A10.312,10.312,0,0,0,33.649,195.937Zm-3.86-5.853a2.549,2.549,0,0,1,.055,5.1l-.055,0-.054,0a2.549,2.549,0,0,1,.054-5.1Zm5.185,12.875H24.607a1.275,1.275,0,0,1-1.071-1.978,7.644,7.644,0,0,1,6.2-3.249c.018,0,.036.005.054.005s.036-.005.055-.005a7.64,7.64,0,0,1,6.2,3.249A1.274,1.274,0,0,1,34.975,202.959ZM45.51,185.1a1.276,1.276,0,0,1-1.276,1.276H41.684v2.551a1.276,1.276,0,0,1-2.551,0v-2.551H36.582a1.276,1.276,0,0,1,0-2.551h2.551v-2.551a1.276,1.276,0,0,1,2.551,0v2.551h2.551A1.276,1.276,0,0,1,45.51,185.1Z"
          transform="translate(-20 -180)"/>
</svg>
