<svg xmlns="http://www.w3.org/2000/svg" viewBox="0 0 30 28.35"><defs><style>.cls-1{fill:#cdebf3;}.cls-2{fill:#002d43;}.cls-3{fill:#257a91;}.cls-4{fill:#fff;}.cls-5{fill:#f9a533;}</style></defs><title>Visa</title><g id="Layer_2" data-name="Layer 2"><g id="canvas"><path class="cls-1" d="M30,23.92a4.56,4.56,0,0,1-4.69,4.43H4.69A4.56,4.56,0,0,1,0,23.92V4.43A4.56,4.56,0,0,1,4.69,0H25.31A4.56,4.56,0,0,1,30,4.43Z"/><path class="cls-2" d="M30,23.92a4.56,4.56,0,0,1-4.69,4.43H4.69A4.56,4.56,0,0,1,0,23.92V4.43A4.56,4.56,0,0,1,4.69,0H25.31A4.56,4.56,0,0,1,30,4.43Z"/><path class="cls-3" d="M28.48,1.17,1.24,26.92a4.8,4.8,0,0,0,3.45,1.43H25.31A4.56,4.56,0,0,0,30,23.92V4.43A4.31,4.31,0,0,0,28.48,1.17Z"/><polygon class="cls-4" points="13.42 18.29 11.48 18.29 12.69 11.24 14.63 11.24 13.42 18.29"/><path class="cls-4" d="M9.85,11.24,8,16.09l-.22-1h0l-.65-3.17s-.08-.63-.92-.63H3.15l0,.12a7.5,7.5,0,0,1,2,.81l1.69,6.12h2l3.09-7Z"/><path class="cls-4" d="M25.11,18.28h1.78l-1.55-7H23.77a.89.89,0,0,0-.9.52L20,18.28h2l.4-1h2.47ZM23,15.79l1-2.64.57,2.64Z"/><path class="cls-4" d="M20.14,12.94l.28-1.51a5.88,5.88,0,0,0-1.74-.31c-1,0-3.25.4-3.25,2.33s2.68,1.84,2.68,2.8-2.41.78-3.2.18L14.61,18a5.7,5.7,0,0,0,2.19.4c1.32,0,3.32-.65,3.32-2.41s-2.71-2-2.71-2.8S19.31,12.5,20.14,12.94Z"/><path class="cls-5" d="M7.78,15l-.65-3.17s-.08-.63-.92-.63H3.15l0,.12A7.72,7.72,0,0,1,6,12.73,5.49,5.49,0,0,1,7.78,15Z"/></g></g></svg>