<svg xmlns="http://www.w3.org/2000/svg" viewBox="0 0 23.07 16.3"><title>Waiver.LtBlue</title><g id="Layer_2" data-name="Layer 2"><g id="canvas"><g id="Layer_2-2" data-name="Layer 2"><g id="Layer_1-2" data-name="Layer 1-2"><path d="M23,11.34a1.6,1.6,0,0,0-.85-1.11,2.8,2.8,0,0,0-1.27-.31,7.67,7.67,0,0,0-2.95.57,3.27,3.27,0,0,1-2.09.22,2.35,2.35,0,0,1-.67-.29h.09a12.09,12.09,0,0,0,2.61-1.2,9.33,9.33,0,0,0,3-2.83,6.26,6.26,0,0,0,1-2,3.35,3.35,0,0,0,.07-1.51A3.49,3.49,0,0,0,20.13.42a3,3,0,0,0-3.07,0,7.21,7.21,0,0,0-1.39,1,10.1,10.1,0,0,0-2.58,3.86,8.16,8.16,0,0,0-.55,3.59v.39A29.79,29.79,0,0,1,8,9.42v1.75H9a23.24,23.24,0,0,0,4-.25.18.18,0,0,1,.18.08,3,3,0,0,0,1.06,1,4.77,4.77,0,0,0,3.79.3c.61-.2,1.23-.4,1.85-.57a2.26,2.26,0,0,1,1-.07c.4.08.44.15.45.49v.68H23A6.19,6.19,0,0,0,23,11.34ZM14.28,8.89v-.2a6.34,6.34,0,0,1,.3-2.16A8.43,8.43,0,0,1,17.7,2a1.55,1.55,0,0,1,1.63-.16,1.58,1.58,0,0,1,.92,1.3,2.14,2.14,0,0,1-.17,1,5.93,5.93,0,0,1-2,2.8,11,11,0,0,1-3.69,1.89Z"/><path d="M23.07,14.6H0v1.7H23Z"/><path d="M6.26,11.21l-2-2,2-2L5.05,6.1l-2,2L1.21,6.17,0,7.38,1.92,9.25,0,11.18l1.2,1.15,1.93-1.9,1.94,2Z"/><path d="M23.07,14.6v1.7H0V14.6Z"/><path d="M6.26,11.21,5.07,12.4l-1.94-2L1.2,12.33,0,11.18,1.9,9.25,0,7.38,1.21,6.17,3.08,8.08l2-2,1.15,1.2-1.95,2Z"/></g></g></g></g></svg>
