<svg xmlns="http://www.w3.org/2000/svg" viewBox="0 0 30 30"><defs><style>.withdraw-cls-2{fill:#fff;}</style></defs><title>BalanceIcon</title><g id="Layer_2" data-name="Layer 2"><g id="Navigation_Symbol" data-name="Navigation Symbol"><circle cx="15" cy="15" r="15"/><path class="withdraw-cls-2" d="M15.54,8.18a6,6,0,0,1,2,.34,4.24,4.24,0,0,1,1.69,1.09l-1.34,1.3a3.1,3.1,0,0,0-1-.85,3,3,0,0,0-1.31-.33v4.39l0,0q.8.22,1.54.49a5,5,0,0,1,1.29.69,3.13,3.13,0,0,1,.89,1.05A3.36,3.36,0,0,1,19.56,18a3.57,3.57,0,0,1-.33,1.55,3.69,3.69,0,0,1-.88,1.18,4.06,4.06,0,0,1-1.28.77,5.36,5.36,0,0,1-1.54.34v1.34h-1V21.82a6.36,6.36,0,0,1-2.28-.4A4.14,4.14,0,0,1,10.44,20l1.43-1.28A2.9,2.9,0,0,0,13,19.83a3.57,3.57,0,0,0,1.51.42V15.67a9.31,9.31,0,0,1-1.44-.47,4.74,4.74,0,0,1-1.21-.74A3.25,3.25,0,0,1,11,13.38a3.47,3.47,0,0,1-.31-1.53,3.22,3.22,0,0,1,.32-1.44,3.72,3.72,0,0,1,.84-1.12,4.18,4.18,0,0,1,1.21-.76,4.57,4.57,0,0,1,1.43-.34V6.84h1Zm-1,1.56a2.69,2.69,0,0,0-1.45.68,1.87,1.87,0,0,0-.56,1.42,1.67,1.67,0,0,0,.17.77,1.88,1.88,0,0,0,.45.57,2.71,2.71,0,0,0,.64.41,5.22,5.22,0,0,0,.75.28Zm1,10.5a3.23,3.23,0,0,0,.87-.22,2.45,2.45,0,0,0,.71-.45,2,2,0,0,0,.66-1.53,1.65,1.65,0,0,0-.2-.83,2,2,0,0,0-.5-.59,3,3,0,0,0-.72-.41q-.41-.17-.82-.3Z"/></g></g></svg>
